<?xml version="1.0" encoding="utf-8"?>
<!-- Generator: Adobe Illustrator 24.2.0, SVG Export Plug-In . SVG Version: 6.00 Build 0)  -->
<svg version="1.1" id="Layer_1" xmlns="http://www.w3.org/2000/svg" xmlns:xlink="http://www.w3.org/1999/xlink" x="0px" y="0px"
	 viewBox="0 0 448.3 126.2" style="enable-background:new 0 0 448.3 126.2;" xml:space="preserve">
<style type="text/css">
	.st0{fill:#121212;}
	.st1{fill:#FFFFFF;}
</style>
<g id="Layer_1_1_">
</g>
<g id="Layer_2_1_">
	<path d="M86.8,7.3c0-3.5-3.3-4.3-5.9-4.3v0.5c1.6,0,2.8,0.5,2.8,1.7c0,0.7-0.5,1.7-2.1,1.7c-1.2,0-3.8-0.7-5.8-1.4
		C73.6,4.7,71.5,4,69.8,4c-3.5,0-5.9,2.6-5.9,5.6c0,2.6,1.9,3.5,2.6,3.8l0.2-0.3c-0.4-0.3-0.9-0.7-0.9-1.7c0-0.7,0.7-1.9,2.4-1.9
		c1.6,0,3.7,0.7,6.4,1.6c2.4,0.7,5,1.2,6.4,1.4v5.4L78.5,20v0.2l2.6,2.3v7.5c-1.4,0.9-3,1-4.4,1c-2.6,0-4.9-0.7-6.8-2.8l7.1-3.5v-12
		l-8.7,3.8c0.7-2.3,2.6-3.8,4.5-4.9l-0.2-0.5c-5.2,1.4-9.9,6.3-9.9,12.2c0,7,5.8,12.2,12.2,12.2c7,0,11.5-5.6,11.5-11.3h-0.4
		c-1,2.3-2.6,4.3-4.5,5.4v-7.1l2.8-2.3V20l-2.8-2.3v-5.4C84.2,12.4,86.8,10.6,86.8,7.3z M71.7,26.5l-2.1,1c-1.2-1.6-1.9-3.7-1.9-6.6
		c0-1.2,0-2.6,0.4-3.7l3.7-1.6V26.5z M90.2,30.5l-2.3,1.7l0.4,0.3l1-0.9l3.8,3.5l5.2-3.5l-0.2-0.3l-1.4,0.9L95,30.5V18.6l1.4-1
		l3,2.4v10.6c0,6.6-1.4,7.7-4.4,8.7v0.5c4.9,0.2,9.4-1.4,9.4-9.9V18.5l1.6-1.2l-0.4-0.3l-1.4,1l-4.4-3.7L95,17.9V3.6h-0.4l-6.1,4.2
		v0.3c0.7,0.3,1.7,0.7,1.7,2.6C90.3,10.8,90.2,30.5,90.2,30.5z M122,28.6l-4.4,3.3l-4.4-3.5v-2.1l8.2-5.6v-0.2l-4.2-6.3l-9.1,4.9
		v11.5l-1.7,1.4l0.4,0.3l1.6-1.2l5.9,4.3l7.8-6.3C122.2,29.3,122,28.6,122,28.6z M113.3,25.6v-8.5l0.4-0.2l3.8,6.1
		C117.5,23,113.3,25.6,113.3,25.6z M155.3,5.7c0-0.5-0.2-1-0.4-1.6h-0.4c-0.5,1.4-1.2,2.1-3,2.1c-1.6,0-2.6-0.9-3.3-1.6l-5,5.8
		l0.4,0.3l1.7-1.6c1,0.9,1.9,1.6,4.4,1.7v14.5L139.4,7.8c-0.9-1.4-2.1-3.3-4.5-3.3c-2.8,0-5.2,2.4-4.9,6.3h0.5
		c0.2-1,0.7-2.3,1.9-2.3c0.9,0,1.7,0.9,2.3,1.7V16c-3.1,0-5.2,1.4-5.2,4c0,1.4,0.7,3.5,2.8,4v-0.3c-0.4-0.3-0.5-0.7-0.5-1.2
		c0-0.9,0.7-1.6,1.9-1.6h0.9v7.3c-3.7,0-6.6,2.1-6.6,5.6c0,3.3,2.8,4.9,5.9,4.7v-0.3c-1.9-0.2-2.8-1-2.8-2.3c0-1.6,1-2.3,2.4-2.3
		s2.6,0.9,3.5,1.9l5-5.6l-0.4-0.3l-1.2,1.4c-1.9-1.7-3-2.3-5.2-2.6V11l13.9,24.4h1V11C152.9,10.8,155.3,8.7,155.3,5.7z M168,28.6
		l-4.4,3.3l-4.4-3.5v-2.1l8.2-5.6v-0.2l-4.2-6.3l-9.1,4.9v11.5l-1.7,1.4l0.4,0.3l1.6-1.2l5.9,4.3l7.8-6.3
		C168.2,29.3,168,28.6,168,28.6z M159.3,25.6v-8.5l0.4-0.2l3.8,6.1C163.5,23,159.3,25.6,159.3,25.6z M196.4,16.2l-1.2,0.9l-3.3-2.8
		l-3.8,3.5l1.6,1.6v13.1l-4.2-2.6V19l1.4-0.9l-4-3.8l-3.8,3.5l1.6,1.6v12.5l-0.5,0.3l-3.7-2.6V19.2c0-2.4-1.2-3.1-2.6-4
		c-1.2-0.9-1.9-1.4-1.9-2.6c0-1,1-1.6,1.6-1.9v-0.3c-1.4,0-5,1.4-5,4.7c0,1.7,0.9,2.4,1.7,3.3c0.9,0.9,1.7,1.6,1.7,3.1v10.1
		l-1.9,1.4l0.4,0.3l1.7-1.4l4,3.5l4.4-3l4.9,3l9.2-5.4V18.3l2.3-1.7L196.4,16.2L196.4,16.2z M228.8,6.6L227,8.2l-3.8-3.5l-5.8,4.2
		V5.1h-0.5l0.2,28.2c-0.5,0-2.1-0.3-3.3-0.7l-0.4-23.5c0-1.7-1.2-4.2-4.4-4.2s-5.2,2.4-5.2,4.9h0.5c0.2-1,0.7-1.9,1.7-1.9
		s1.9,0.7,1.9,3v6.8c-3.1,0.2-5,1.9-5,4.2c0,1.4,0.7,3.5,2.8,3.5v-0.3c-0.7-0.3-0.9-0.9-0.9-1.2c0-1,0.9-1.4,2.3-1.4h0.7v10.8
		c-2.6,0.9-3.7,2.8-3.7,4.9c0,3,2.3,5.1,5.8,5.1c2.4,0,4.5-0.3,6.6-0.9c1.7-0.3,4-0.9,5-0.9c1.4,0,1.9,0.7,1.9,1.6
		c0,1.2-0.5,1.7-1.2,1.9v0.3c2.8-0.5,4.5-2.3,4.5-4.9c0-2.6-2.6-4.2-5.4-4.2c-1.4,0-4.4,0.5-6.4,0.9c-2.4,0.5-4.9,0.9-5.6,0.9
		c-1.2,0-2.6-0.5-2.6-2.3c0-1.4,1.2-2.6,4.2-2.6c1.6,0,3.5,0.2,5.4,0.7c2.1,0.5,4,1,5.8,1c2.6,0,4.9-0.9,4.9-4.5V8.7l2.1-1.7
		L228.8,6.6L228.8,6.6z M221.6,17.2c-0.5,0.5-1.2,1-2.1,1s-1.7-0.5-2.1-1V9.6l1.7-1.2l2.4,2.3C221.6,10.6,221.6,17.2,221.6,17.2z
		 M221.6,22.5c-0.4-0.3-1.2-0.9-2.1-0.9s-1.7,0.5-2.1,0.9v-4.5c0.4,0.3,1.2,0.9,2.1,0.9s1.7-0.5,2.1-0.9V22.5z M221.6,30.6
		c0,1.4-0.9,2.8-2.8,2.8h-1.4V23.2c0.4-0.3,1.2-0.9,2.1-0.9s1.6,0.5,2.1,0.9C221.6,23.2,221.6,30.6,221.6,30.6z M245.5,18.3l-5.6-4
		l-8.5,4.9v11.3l-1.7,1.4l0.2,0.3l1.4-1l5.6,4.2l8.7-5.2C245.5,30.1,245.5,18.3,245.5,18.3z M236.1,29.3V16.7l4.3,3.1v12.4
		C240.5,32.2,236.1,29.3,236.1,29.3z M262.1,14.6h-0.3c-0.5,0.3-1,0.7-1.6,0.7c-0.7,0-1.6-0.3-1.9-0.9h-0.3l-3,3.3l-3-3.3l-5.2,3.5
		l0.2,0.3l1.4-0.9l1.7,1.9v11l-2.3,1.7l0.3,0.3l1-0.9l4.2,3.5l5.4-3.7l-0.2-0.3l-1.6,0.9l-2.1-1.7V17.9c0.9,0.9,1.9,1.7,3.1,1.7
		C260.5,19.8,261.9,17.4,262.1,14.6L262.1,14.6z M283,31.4l-5.9,4l-8-12.2l5.8-8.9h0.3c0.7,0.7,1.7,1.4,3,1.4s2.1-0.7,2.6-1.4h0.3
		c-0.2,3.5-2.6,5.6-4.3,5.6s-2.6-0.9-3.7-1.4l-0.5,0.9l8.7,12.9l1.7-1L283,31.4L283,31.4z M263.8,30.5l-2.3,1.7l0.3,0.3l1-0.9
		l3.8,3.5l5.2-3.5l-0.3-0.3l-1.4,0.9l-1.7-1.7V3.6h-0.2l-6.3,4.2v0.3c0.7,0.3,1.7,0.5,1.7,2.6C263.8,10.8,263.8,30.5,263.8,30.5z
		 M311.9,7.3c0-3.5-3.3-4.3-5.9-4.3v0.5c1.6,0,2.8,0.5,2.8,1.7c0,0.7-0.5,1.7-2.1,1.7c-1.2,0-3.8-0.7-5.8-1.4
		c-2.3-0.7-4.3-1.4-6.1-1.4c-3.5,0-5.9,2.6-5.9,5.6c0,2.6,1.9,3.5,2.6,3.8l0.2-0.3c-0.5-0.3-1-0.7-1-1.7c0-0.7,0.7-1.9,2.4-1.9
		c1.6,0,3.7,0.7,6.4,1.6c2.4,0.7,5,1.2,6.4,1.4v5.4l-2.6,2.3v0.2l2.6,2.3v7.5c-1.4,0.9-3,1-4.3,1c-2.6,0-4.9-0.7-6.8-2.8l7.1-3.5
		V12.7l-8.7,3.8c0.9-2.3,2.8-3.8,4.5-5l-0.2-0.3c-5.2,1.4-9.9,6.1-9.9,12c0,7,5.8,12.2,12.2,12.2c7,0,11.5-5.6,11.5-11.3H311
		c-1,2.3-2.6,4.3-4.5,5.4v-7.1l2.8-2.3v-0.2l-2.6-2.3v-5.2C309.2,12.4,311.9,10.6,311.9,7.3z M296.7,26.5l-2.1,1
		c-1.2-1.6-1.9-3.7-1.9-6.6c0-1.2,0.2-2.6,0.5-3.7l3.7-1.6L296.7,26.5z M318,5.6h-0.2l-3.5,3v0.2l3,3.3h0.3l3.5-3V8.9L318,5.6
		L318,5.6z M323.2,31.4l-1.4,0.9l-1.7-1.7v-12l1.7-1.2l-0.3-0.3l-1.2,1l-3.1-3.7l-5,3.5l0.3,0.5l1.2-0.9l1.6,1.9v11.3l-2.3,1.7
		l0.2,0.3l1.2-0.9l3.8,3.5l5.2-3.5L323.2,31.4L323.2,31.4z M352.3,31.2L351,32l-1.9-1.7V18.5l1.7-1.4l-0.3-0.3l-1.4,1.2l-4-3.7
		l-5.2,3.7l-4-3.7l-4.9,3.7l-3.1-3.7l-5,3.5l0.2,0.5l1.2-0.9l1.7,1.9v11.3l-1.4,1.4l4,3.3l3.8-3.5l-1.6-1.6V18.5l1.6-1l2.6,2.4v10.5
		l-1.4,1.4l4,3.3l3.8-3.5l-1.6-1.6V18.5l1.4-0.9l2.8,2.4v10.5l-1.2,1.2l4,3.7l5.4-3.7L352.3,31.2L352.3,31.2z M367.4,28.6l-4.3,3.3
		l-4.3-3.5v-2.1l8.2-5.6v-0.2l-4.2-6.3l-9.1,4.9V31l6.1,4.4l7.8-6.3C367.6,29.1,367.4,28.6,367.4,28.6z M358.7,25.6v-8.5l0.3-0.2
		l3.8,6.1C362.9,23,358.7,25.6,358.7,25.6z M383.3,24l-3.3-2.6c2.3-1.9,3.1-4.5,3.1-6.3v-1h-0.3c-0.3,0.9-1,1.7-2.4,1.7
		c-1.4,0-2.3-0.7-3.1-1.7l-7.8,4.3v6.3l3,2.3c-3,2.6-3.5,4.3-3.5,5.8c0,1.7,0.9,3,2.3,3.5l0.2-0.3c-0.3-0.3-0.7-0.5-0.7-1.4
		c0-0.5,0.7-1.4,2.1-1.4c1.7,0,2.8,1.2,3.3,1.7l7.5-4.5V24C383.4,24,383.3,24,383.3,24z M381.4,18.8c-1.2,2.1-3.8,4.2-5.4,5.2
		l-1.9-1.6v-6.1c0.7,1.7,2.6,3.1,4.5,3.1C379.8,19.5,380.5,19.3,381.4,18.8z M378.4,32.7c-0.9-1.9-3-3.3-5-3.3c-0.5,0-1.9,0-3.3,0.9
		c0.9-1.4,3.1-3.8,6.1-5.6l2.1,1.7L378.4,32.7L378.4,32.7z"/>
	<path class="st0" d="M30.9,91.6c0.5-0.2,1-0.5,1.4-0.7c0.2-0.1,0.8-0.3,0.9-0.5c0.1-0.1,0-0.4,0-0.5v-1.1v-7.9v-7.7v-1
		c0-0.1,0.1-0.4,0-0.4c-0.1,0-0.4,0-0.5,0h-1c-0.4,0-0.3,0.1-0.6,0.3c-0.9,1.2-1.8,2.3-2.6,3.5c-0.4,0.6-0.8,1.1-1.2,1.6
		c-0.3,0.4-0.3,0.4-0.8,0.4l0.1-3c0.1-0.7,0.1-1.5,0.1-2.2c0-0.3,0.1-0.5,0.1-0.8c0-0.1-0.1-0.4,0-0.4c0.1-0.1,0.9,0,1.1,0h17.2
		c0.1,0,0.5-0.1,0.6,0c0.1,0,0.1,0.3,0.1,0.5C46,72,46,72.7,46,73.3c0.1,1.3,0.1,2.6,0.2,4v0.3c-0.2,0-0.4,0.1-0.6-0.1
		c-0.2-0.1-0.3-0.4-0.5-0.6c-0.6-0.7-1.1-1.5-1.7-2.3l-1.7-2.2c-0.1-0.1-0.2-0.5-0.4-0.5c-0.1-0.1-0.4-0.1-0.6-0.1H40
		c-0.1,0-0.5,0-0.6,0c-0.1,0.1,0,0.1-0.1,0.1c-0.1,0.4,0,0.8,0,1.2v16c0,0.3-0.1,0.8,0,1.1c0.1,0.3,0.8,0.6,1.1,0.7
		c0.3,0.2,0.9,0.3,1.1,0.6c0.1,0.1,0.2,0.5,0.1,0.7c-0.1,0.1-0.3,0-0.3,0H31.3c-0.1,0-0.4,0.1-0.5,0C30.9,92.1,30.9,91.7,30.9,91.6z
		 M48,90.7V84V73v-1.8c0-0.3,0.1-0.7,0-1c-0.1-0.3-0.6-0.4-1-0.5c-0.2-0.1-0.8-0.2-0.9-0.4V69h0.1c0.2-0.1,0.6-0.1,0.8-0.1
		c0.4-0.1,0.8-0.1,1.2-0.2c0.9-0.2,1.9-0.4,2.8-0.5c0.6-0.1,1.1-0.2,1.7-0.3c0.1,0,0.7-0.1,0.7,0c0.1,0.1,0,0.2,0,0.3v9.6
		c1.8-1.8,4.8-2.7,7.2-2.1c2.1,0.5,2.8,2.5,2.8,4.5c0.1,2.6,0,5.1,0,7.7v2.1c0,0.2-0.1,0.8,0,1c0.1,0.1,0.2,0.1,0.3,0.2
		c0.3,0.2,0.7,0.4,1,0.6c0.1,0,0.2,0.1,0.2,0.1c0.1,0,0.1,0.5,0,0.5c-0.1,0.1-0.1,0.1-0.2,0.1c-0.5,0.1-1.1,0-1.5,0h-6.6
		c-0.1,0-0.3,0-0.3,0c0-0.1-0.1-0.6,0-0.6c0.1-0.2,0.7-0.4,0.9-0.5c0.1-0.1,0.6-0.2,0.6-0.4c0.1-0.1,0-0.7,0-0.8v-1.9
		c0-2.7,0.1-5.4,0-8.1c0-0.8-0.1-1.7-0.9-2.1c-0.4-0.2-1-0.3-1.4-0.3c-0.4,0-0.7,0.1-1.1,0.2c-0.3,0.1-0.8,0.3-1,0.5
		c-0.1,0.2-0.1,0.5-0.1,0.7v10.9c0,0.2-0.1,0.7,0,0.9c0.1,0.1,0.2,0.2,0.4,0.2c0.3,0.2,0.7,0.4,1.1,0.5c0.1,0.1,0.1,0.1,0.1,0.1
		c0.1,0,0.1,0.5,0,0.5c-0.1,0.1-0.1,0.1-0.2,0.1c-0.5,0-1.1,0-1.6,0h-6.6c-0.1,0-0.3,0-0.3,0c-0.1-0.1,0-0.5,0.1-0.6
		c0.1-0.2,0.6-0.4,0.8-0.5C47.6,91,47.8,90.9,48,90.7z M69.9,84.4c0.1,2,0.7,4.3,2.6,5.4c1,0.5,2.2,0.7,3.3,0.7
		c1.3-0.1,2.4-0.8,3.6-1.4c0,0.2,0.1,0.5,0,0.7c-0.1,0.2-0.3,0.4-0.5,0.5c-0.2,0.2-0.4,0.4-0.6,0.6c-0.8,0.7-1.7,1.1-2.6,1.4
		c-1.8,0.6-3.8,0.6-5.6,0.1c-1.4-0.4-2.7-1.1-3.7-2.2s-1.5-2.5-1.8-4c-0.5-3.2,0.1-6.8,2.7-8.9c2.3-1.8,6-2.2,8.7-1.1
		c3.3,1.3,3.9,5.1,3.9,8.2h-8.8C70.8,84.4,70.3,84.4,69.9,84.4L69.9,84.4z M69.8,83.6c0.9-0.1,1.8-0.1,2.8-0.2
		c0.6-0.1,1.1-0.1,1.7-0.1c0.1,0,0.3,0,0.4,0c0.1-0.1,0.1-1,0.1-1.2c-0.1-1.7-0.1-3.7-1.1-5.1c-0.7-1-1.8-0.8-2.4,0.1
		C70,78.8,69.8,81.5,69.8,83.6z M0,100.4c0-2.6,0.5-5.3,1.9-7.4c1.4-2.1,3.6-3.5,6-4.2c2.9-0.8,6.1-0.7,9.1-0.2
		c0.6,0.1,1.3,0.3,1.9,0.5c0.1,0,0.5,0.1,0.6,0.2v0.1c0.1,0.6,0.1,1.2,0.1,1.8c0.1,1.4,0.1,2.9,0.1,4.3c-0.2,0-0.5,0.1-0.6,0
		c-0.1,0-0.2-0.3-0.2-0.4c-0.4-0.6-0.7-1.1-1.1-1.7c-0.8-1.2-1.6-2.5-2.4-3.7c-0.4-0.7-1.6-0.7-2.3-0.7c-0.8,0-1.7,0.1-2.4,0.5
		c-1.6,1-2.3,2.9-2.7,4.6c-0.6,2.7-0.6,5.6-0.5,8.3c0.1,2.1,0.3,4.4,1.1,6.3c0.5,1.2,1.4,2.3,2.7,2.5c0.4,0.1,0.8,0.1,1.3,0.1
		c0.3-0.1,1.2-0.1,1.4-0.4c0.1-0.1,0-0.3,0-0.4v-0.8V105v-1.9c0-0.3,0.1-0.5-0.2-0.7c-0.3-0.2-0.7-0.4-1-0.6
		c-0.2-0.1-0.7-0.3-0.8-0.5c-0.1-0.1-0.1-0.6-0.1-0.7c0.1-0.1,0.1-0.1,0.2-0.1c0.4-0.1,1,0,1.4,0h7.1c0.5,0,1,0,1.4,0h0.2
		c0.1,0.1,0.1,0.7,0,0.8c-0.1,0.1-0.6,0.3-0.7,0.4c-0.3,0.2-0.7,0.4-1,0.6c-0.4,0.2-0.3,0.2-0.3,0.6v7.5c0,0.1,0.1,0.3,0,0.4
		c-0.1,0.2-1.1,0.4-1.3,0.5c-0.8,0.2-1.6,0.4-2.4,0.6c-1.6,0.3-3.2,0.4-4.8,0.3c-2.6-0.1-5.3-0.7-7.4-2.2c-1.8-1.3-3-3.4-3.6-5.6
		C0.1,103.2,0,101.8,0,100.4z M21.3,96.2c0-0.1-0.1-0.5,0-0.5c0.1-0.1,0.1,0,0.1-0.1c0.3-0.1,0.6-0.1,1-0.2c1.1-0.2,2.1-0.4,3.2-0.5
		c0.8-0.1,1.7-0.3,2.4-0.4c0.2-0.1,0.5-0.1,0.7,0c0.2,0.1,0.1,0,0.2,0.2c0.1,0.6,0,1.2,0,1.8v9.6c0,1.2-0.3,3.3,0.8,4
		c0.6,0.4,1.3,0.4,2,0.2c0.5-0.1,1.5-0.5,1.7-1c0.1-0.1,0-0.3,0-0.5v-1v-6.4v-3v-1c0-0.1,0.1-0.4,0-0.5c-0.1-0.1-0.6-0.3-0.7-0.3
		c-0.3-0.1-0.5-0.2-0.8-0.3c-0.1,0-0.4-0.1-0.5-0.2c-0.1,0-0.1-0.5,0-0.5c0.1-0.1,0.1,0,0.1-0.1c0.2-0.1,0.6-0.1,0.9-0.1
		c1.9-0.3,3.8-0.7,5.8-1c0.2-0.1,0.5-0.1,0.7,0c0.2,0,0.1-0.1,0.2,0.2c0.1,0.5,0,1.1,0,1.6v13.3c0,0.1-0.1,0.4,0,0.6
		c0.1,0.1,0,0.1,0.2,0.2c0.5,0.2,1,0.4,1.4,0.6c0.1,0.1,0.2,0.1,0.2,0.1s0.1,0.4,0,0.4c-0.1,0.1-0.6,0.1-0.6,0.1
		c-1,0.1-2,0.2-3.1,0.4c-0.9,0.1-1.8,0.2-2.7,0.3c-0.2,0.1-0.4,0.1-0.6,0c-0.1,0-0.4,0-0.4-0.1c-0.1-0.1,0-0.5,0-0.6v-0.8
		c0-0.1,0.1-0.5,0-0.7s-0.3,0.1-0.4,0.1c-0.4,0.3-0.8,0.7-1.2,0.9c-1.5,0.9-3.4,1.3-5.2,1c-1.3-0.3-2.4-1-2.9-2.3
		c-0.4-0.9-0.5-1.8-0.5-2.8v-5.5v-3.1v-1.1c0-0.1,0.1-0.4,0-0.5c-0.1-0.1-0.6-0.3-0.8-0.4C22,96.6,21.6,96.4,21.3,96.2z M64.8,94.5
		c0.1,0,0.5,0,0.6,0.1c0.1,0,0,0.4,0,0.4v4.1c0,0.1-0.1,0.4,0,0.5v0.1c0.2,0.2,0.2-0.4,0.3-0.5c0.4-1.7,1.2-3.7,2.9-4.4
		c0.3-0.1,0.6-0.2,1-0.2c0.3,0,1.1-0.1,1.2,0.1c0.1,0.1,0,0.3,0,0.4v4.7c-1.1-0.2-2.4-0.2-3.4,0c-0.5,0.1-1,0.2-1.4,0.5
		c-0.2,0.1-0.3,0.1-0.3,0.2c-0.1,0.2,0,0.5,0,0.7v8.9c0,0.1-0.1,0.2,0,0.3c0.1,0.1,0.4,0.2,0.6,0.3c0.2,0.1,0.5,0.3,0.7,0.4
		c0.1,0.1,0.2,0.1,0.3,0.2c0.1,0.1,0.1,0.6,0,0.7s-0.3,0-0.4,0H59c-0.2,0-0.6,0.1-0.8,0h-0.1c-0.1-0.1,0-0.6,0-0.6
		c0.1-0.3,0.7-0.5,1-0.6c0.2-0.1,0.6-0.2,0.6-0.4c0.1-0.1,0-0.4,0-0.5v-1V97.1c0,0,0.1-0.3,0-0.3c-0.1,0-0.3-0.1-0.4-0.1
		c-0.3-0.1-0.6-0.2-0.8-0.2c-0.3-0.1-1-0.1-0.7-0.6c0.1-0.1,0.2-0.1,0.4-0.1c2-0.4,4-0.7,6-1.1C64.4,94.5,64.6,94.5,64.8,94.5
		L64.8,94.5z M82.1,94.9v-3.7v-1.1c0-0.1,0.1-0.4,0-0.6c-0.1-0.1-0.2-0.1-0.4-0.2c-0.4-0.1-0.7-0.3-1.1-0.4c-0.3-0.1-0.4,0-0.4-0.4
		c0-0.3-0.1-0.2,0.2-0.2c0.5-0.2,1.1-0.2,1.6-0.3c1.5-0.3,3-0.5,4.5-0.8c0.3,0,0.6-0.1,1-0.1c0.4,0,0.4-0.1,0.4,0.3
		c0.1,0.7,0,1.5,0,2.3v20.2c0,0.2-0.1,0.2,0.1,0.3c0.3,0.2,0.7,0.3,1,0.4c0.2,0.1,0.7,0.1,0.8,0.3c0.1,0.1,0.1,0.6,0,0.6
		c-0.1,0.1-0.3,0.1-0.4,0.1c-0.6,0.1-1.2,0.2-1.9,0.2c-1.4,0.2-2.9,0.4-4.3,0.6c-0.2,0.1-0.8,0.1-0.9-0.1c-0.1-0.2,0-0.8,0-1
		c0-0.1,0.1-0.7,0-0.8c-0.1-0.1-1.1,0.8-1.2,0.9c-0.6,0.4-1.1,0.7-1.8,0.8c-1,0.3-2.2,0.3-3.2,0.1c-4.4-1-5.4-6.3-5-10.1
		c0.2-2,0.8-4.1,2.2-5.5c1.3-1.3,3-2,4.8-2.2C79.6,94.3,80.9,94.4,82.1,94.9L82.1,94.9z M82.1,109.6V98.3v-2.1
		c0-0.3-0.1-0.3-0.4-0.5c-0.6-0.4-1.5-0.5-2.2-0.2c-1.1,0.4-1.6,1.7-1.8,2.7c-0.6,1.8-0.6,3.8-0.6,5.8c0.1,1.7,0.1,3.7,1,5.2
		C79.1,110.3,80.9,110.6,82.1,109.6z M97.4,94.5c0.2,0.1,0.5,0,0.6,0.2c0.1,0.1,0,0.5,0,0.6v14.4c0,0.2-0.1,0.5,0,0.7
		c0.1,0.2,0.2,0.2,0.4,0.3c0.3,0.1,0.5,0.3,0.8,0.4c0.1,0.1,0.4,0.1,0.4,0.3c0,0.1,0.1,0.6,0,0.7h-0.1c-0.3,0.1-0.6,0-1,0h-7
		c-0.2,0-0.7,0.1-0.8,0c-0.1-0.1-0.1-0.6-0.1-0.7c0.1-0.1,0.4-0.2,0.6-0.3c0.3-0.1,0.6-0.3,0.8-0.5c0.2-0.1,0.2-0.1,0.2-0.3
		c0.1-0.7,0-1.5,0-2.2v-3.6v-6.6c0-0.2,0.1-0.5,0-0.7s-0.3-0.2-0.5-0.3c-0.3-0.1-0.6-0.2-0.9-0.4c-0.1,0-0.5-0.1-0.6-0.2
		c-0.1-0.1-0.1-0.5,0-0.6c0.1,0,0.1,0,0.2,0c0.4-0.1,0.8-0.1,1.2-0.2c0.6-0.1,1.1-0.2,1.8-0.3c1.1-0.2,2.3-0.4,3.4-0.6
		C97,94.6,97.2,94.5,97.4,94.5L97.4,94.5z M98.1,90.2c-0.1,2.8-3.8,4-5.5,1.8c-0.8-1-0.8-2.4-0.1-3.5s2-1.5,3.3-1.2
		C97,87.6,98.1,88.8,98.1,90.2z M118.2,110.4V99.3v-2.1c0-0.1,0-0.3,0-0.3c0-0.1-0.3-0.1-0.4-0.1l-0.8-0.3c-0.1-0.1-0.5-0.1-0.6-0.2
		c-0.1-0.1,0-0.3,0-0.5c0-0.3,0.1-0.2,0.4-0.3l3-0.5l3-0.6c0.2,0,0.3-0.1,0.5-0.1c0.1,0,0.5,0,0.6,0c0,0.1,0,0.3,0,0.4v0.9
		c0,0.1-0.1,0.5,0,0.7c0.1,0.2,0.3,0,0.4-0.1c0.4-0.3,0.8-0.6,1.3-0.8c1.7-0.9,3.6-1.3,5.5-1.1c1.3,0.2,2.4,0.9,2.8,2.1
		c0.3,0.9,0.4,1.8,0.4,2.7v10.5c0,0.2,0,0.5,0,0.7s0.2,0.2,0.4,0.3c0.2,0.1,0.5,0.3,0.7,0.4c0.1,0.1,0.4,0.1,0.5,0.3
		c0,0.1,0,0.6,0,0.6c0,0.1,0,0-0.1,0.1c-0.2,0.1-0.6,0-0.8,0h-6.6c-0.3,0-1.3,0.1-1.5-0.1c0-0.1,0-0.6,0-0.7c0-0.1,0.3-0.2,0.4-0.2
		c0.3-0.1,0.5-0.3,0.8-0.4c0.1-0.1,0.4-0.1,0.4-0.2s0-0.3,0-0.4v-1v-3.2v-6.2c0-0.7,0-1.6-0.4-2.2c-0.4-0.6-1-0.7-1.7-0.7
		c-0.5,0-1,0.1-1.4,0.2c-0.2,0.1-0.9,0.3-1.1,0.6c0,0.1,0,0.3,0,0.4v11.9c0,0.1,0,0.5,0,0.6c0,0.2,0.3,0.2,0.5,0.3
		c0.2,0.1,0.5,0.3,0.7,0.4c0.1,0.1,0.3,0.1,0.3,0.2c0,0.1,0,0.6,0,0.7c0,0.1,0,0-0.1,0c-0.2,0.1-0.6,0-0.8,0h-7.8
		c-0.2,0-0.3,0.1-0.3-0.1c0-0.1,0-0.5,0-0.6s0.3-0.2,0.4-0.2C117.5,110.9,117.8,110.7,118.2,110.4z M108.5,102
		c0-1.2,0.1-2.4-0.1-3.7c-0.1-1.3-0.5-2.8-2-3.1c-0.5-0.1-1.3-0.2-1.6,0.1c-0.3,0.3-0.6,0.8-0.8,1.2l-2.4,3.2
		c-0.1,0.2-0.3,0.5-0.5,0.7c-0.1,0-0.5,0-0.5,0c-0.1-0.1,0-0.4,0-0.5v-3.7c0-0.1-0.1-0.4,0-0.5c0.1-0.2,1.1-0.4,1.3-0.5
		c1.3-0.3,2.6-0.6,4-0.7c1.9-0.1,4-0.1,5.8,0.7c1.4,0.7,2.3,1.8,2.5,3.3c0.1,0.7,0.1,1.6,0.1,2.3v9.2c0,0.1-0.1,0.5,0,0.6
		c0,0.1,0.3,0.1,0.3,0.1c0.4,0.1,0.7,0.2,1.1,0.3c0.2,0.1,0.3,0.1,0.3,0.3c0,0.2,0,0.2-0.2,0.3c-0.3,0.1-0.6,0.3-1,0.4
		c-1.7,0.5-4.4,0.7-5.6-0.9c-0.1-0.1-0.4-0.7-0.5-0.8c-0.2-0.1-0.7,0.7-0.9,0.8c-0.7,0.7-1.7,1-2.7,1.2c-1.8,0.2-3.7-0.1-4.8-1.7
		c-0.9-1.3-1.1-3.4-0.4-4.9c1.2-2.8,4.9-3.1,7.6-3.5C107.7,102.1,108.1,102,108.5,102L108.5,102z M108.5,109.6v-6.8
		c-1.4,0.1-2.8,0.2-3.3,1.7c-0.4,1-0.4,2.2-0.2,3.3c0.1,0.7,0.3,1.7,1,2.1C106.6,110.4,107.9,110.3,108.5,109.6L108.5,109.6z
		 M50.1,102c0-1.2,0.1-2.4-0.1-3.7c-0.1-1.3-0.5-2.8-2-3.1c-0.5-0.1-1.3-0.2-1.6,0.1c-0.3,0.3-0.6,0.8-0.8,1.2l-2.4,3.2
		c-0.1,0.2-0.3,0.5-0.5,0.7c-0.1,0-0.5,0-0.5,0c-0.1-0.1,0-0.4,0-0.5v-3.7c0-0.1-0.1-0.4,0-0.5c0.1-0.2,1.1-0.4,1.3-0.5
		c1.3-0.3,2.6-0.6,3.9-0.7c1.9-0.1,4-0.1,5.8,0.7c1.4,0.7,2.3,1.8,2.5,3.3c0.1,0.7,0.1,1.6,0.1,2.3v9.2c0,0.1-0.1,0.5,0,0.6
		c0.1,0.1,0.3,0.1,0.3,0.1c0.4,0.1,0.7,0.2,1.1,0.3c0.2,0.1,0.3,0.1,0.3,0.3c0,0.2,0.1,0.2-0.2,0.3c-0.3,0.1-0.6,0.3-1,0.4
		c-1.7,0.5-4.4,0.7-5.6-0.9c-0.1-0.1-0.4-0.7-0.5-0.8c-0.2-0.1-0.7,0.7-0.9,0.8c-0.7,0.7-1.7,1-2.7,1.2c-1.8,0.2-3.7-0.1-4.8-1.7
		c-0.9-1.3-1.1-3.4-0.4-4.9c1.2-2.8,4.9-3.1,7.6-3.5C49.3,102.1,49.7,102,50.1,102z M50.1,109.6v-6.8c-1.4,0.1-2.8,0.2-3.3,1.7
		c-0.4,1-0.4,2.2-0.2,3.3c0.1,0.7,0.3,1.7,1,2.1C48.2,110.4,49.5,110.3,50.1,109.6z"/>
	<g transform="translate(0.000000,420.000000) scale(0.100000,-0.100000)">
		<path d="M2807,3521.1c0.8-112.2,1.2-126.6,3.3-129.5c1.3-1.8,3.3-3.4,4.3-3.4c0.9,0,1.8-0.8,1.8-1.5c0-0.9,1.7-2.2,3.7-3
			s3.7-2.1,3.7-3c0-0.8,1-1.5,2.2-1.5s2.2-0.6,2.2-1.2c0-0.8,5.2-5.4,11.7-10.5c13.3-10.6,18.9-15.1,28.5-23.8
			c3.9-3.6,7.9-6.4,9-6.4c1.3,0,1.8,27.7,1.8,133.3c0,117.4-0.3,133.3-2.2,133.3c-1.2,0-2.2,0.8-2.2,1.5c0,0.9-0.6,1.5-1.5,1.5
			c-1.5,0-5.5,3-10.8,7.9c-1.5,1.4-2.7,2.1-2.7,1.5c0-0.4-1.5,0.4-3.4,2.2c-2,1.8-3.9,3-4.3,2.6s-2.8,1.2-5.4,3.6
			c-2.4,2.4-4.8,4-5.2,3.7c-0.3-0.3-1.5,0.3-2.5,1.6c-1,1.2-2.8,2.2-3.9,2.2c-1.2,0-2.1,0.8-2.1,1.5c0,0.9-1,1.5-2.1,1.5
			c-1.2,0-4,1.6-6.3,3.7c-2.1,1.9-4.5,3.4-5.1,3c-0.6-0.4-2.8,0.6-4.9,2.2c-2.1,1.6-4.8,3-6.1,3
			C2806.2,3647.2,2806.1,3635.6,2807,3521.1z"/>
		<path d="M2882.3,3458.5v-123l5.7,1.2c3,0.6,7.2,0.9,9.3,0.9l3.7-0.3l-0.3,93.1c-0.3,83.3-0.6,94.1-2.8,102.1
			c-1.5,4.9-2.8,9.4-3,10.2c-0.2,0.6-0.5,1.5-0.6,2.2c-0.2,0.6-0.5,1.8-0.6,2.6c-0.2,0.9-1.2,4.5-2.2,8.2c-1,3.7-2.2,7.8-2.4,9
			c-0.3,1.2-0.6,2.6-0.8,3s-0.5,1.5-0.6,2.2c-0.9,6-2.8,11.2-4,11.2C2882.9,3581.3,2882.3,3532.3,2882.3,3458.5z"/>
		<path d="M2937,3383.4c0.8-104.1,1.3-216.7,1.3-250.4c0.2-33.6,0.6-60.9,1-60.9c0.9,0,5.1-3.4,14.5-12c2.7-2.6,5.5-4.5,6.3-4.5
			s2.1-1.4,3-3s2.2-3,3.2-3c0.8,0,2.2-0.8,3.3-1.5c1-0.9,3.9-3.3,6.3-5.4c2.5-2.1,6.3-4.8,8.7-6.3c2.2-1.4,4-3,4-3.6s0.9-1.2,2-1.2
			s3.3-1.2,4.9-2.7c1.5-1.5,3.9-3.1,5.1-3.7c1.2-0.6,3.6-2.1,5.4-3.3l3.2-2.2l0.9,42.8c0.6,23.7,1,132.8,1,242.6v199.6l-12.1,12.7
			c-6.7,7-12.6,12.9-13.2,12.9c-0.9,0-20.4,18-36.8,34.1c-3.3,3.3-7.6,6.4-9.6,7l-3.6,1.1L2937,3383.4z"/>
		<path d="M2931.6,3533.1c-0.2-0.3-0.5-2.1-0.6-4.2c-0.6-4.6-1.7-11.2-3.7-22.2c-2.5-13.8-2-352.2,0.6-366c2-10.9,2.1-11.8,2.8-19.5
			c0.2-2.1,0.8-4.5,1.5-5.1c0.6-0.6,1,93,1,208c0,115.2-0.3,209.2-0.8,209.2S2931.6,3533.2,2931.6,3533.1z"/>
		<path d="M3033.1,3446.2c0.3-28.3,0.6-85.5,0.8-127.3c0.5-77.3,0.9-82.2,5.8-77.1c2,1.8,13.8,8.8,24.6,14.2
			c2.5,1.4,5.4,3.3,6.4,4.3c1,1.1,2.8,1.9,3.9,1.9c1.2,0,2.8,1.1,3.9,2.2c1,1.2,3.2,2.2,4.6,2.2c1.7,0,2.8,0.6,2.8,1.4
			s2.2,2.1,4.9,3.3c2.5,1.1,5.1,2.2,5.5,2.7c0.9,1.1,5.8,3.9,13.5,7.9c2.8,1.5,7.9,4.5,11.2,6.4s8.5,4.6,11.5,6
			c4.6,2.1,6,3.7,7.2,8.8c0.9,3.3,2.4,8.4,3.1,10.9c0.9,2.7,1.2,5.5,0.8,6.3c-0.6,0.8-0.3,1.8,0.5,2.2c0.6,0.4,1.3,2.4,1.3,4.2
			c0,1.9,1,7.6,2.4,12.9c1.3,5.1,2.1,10,1.7,10.8c-0.5,0.9-0.2,1.5,0.6,1.5c0.9,0,1.5,1.5,1.5,3.4c-0.2,1.8,0.9,7.6,2.1,12.9
			l2.4,9.6l-17.5,16.6c-9.6,9.1-37,35.9-60.7,59.8c-23.7,23.7-43.6,43-44.2,43C3033.3,3497.4,3033,3474.3,3033.1,3446.2z
			 M3082.8,3395c3.6-3.4,9.4-9,12.9-12.4c3.4-3.6,6.9-6.4,7.6-6.4s2.4-1.2,3.7-2.7c1.8-2.1,2.1-5.8,1.7-18.6
			c-0.6-15.7-0.6-16-4.8-17.7c-2.2-0.9-5.4-1.9-6.9-2.2c-1.7-0.3-2.8-0.6-2.8-0.8s-1.3-0.4-3-0.8c-1.7-0.1-6.3-1.5-10.3-2.9
			c-14.5-5.2-13.5-6.6-12.4,16.6c0.6,11.2,1,29.2,1,39.8v19.5l3.4-2.7C3074.7,3402.2,3079.2,3398.3,3082.8,3395z"/>
		<path d="M3073.3,3392.3c-0.9-0.9-1.3-6.9-1-13.5l0.6-11.8l6,0.9c3.4,0.6,9.4,1.4,13.5,1.5c4,0.1,7.6,0.8,8.1,1.2
			c0.9,0.9-6.7,10-8.4,10c-0.6,0-4.2,3-7.8,6.7C3077.1,3394.4,3075.8,3395,3073.3,3392.3z"/>
		<path d="M3089.9,3365.8c-0.5-0.6-2.7-0.9-4.9-0.6c-2.2,0.4-6,0-8.2-0.9c-4.2-1.5-4.2-1.6-4.2-15.6c0-7.8,0.3-14.4,0.9-14.8
			c0.5-0.4,5.4,0.3,11.2,1.8c10.6,2.9,11.1,2.9,13,3.1c0.6,0.1,1.8,0.3,2.5,0.6c0.9,0.1,2.4,0.4,3.3,0.4c1.2,0.1,2,2.2,1.8,5.2
			c-0.2,2.6,0.3,8.5,0.9,13.2l1.2,8.4l-8.5,0.1C3094.2,3366.8,3090.2,3366.4,3089.9,3365.8z"/>
		<path d="M3025.3,3489.3c-0.9-1.1-4-5.8-7-10.5l-5.7-8.4v-109.3c0-96.1,0.3-109.3,2.2-109.3c1.2,0,2.2-0.6,2.2-1.5
			c0-0.8,0.8-1.5,1.5-1.5c0.9,0,3.2-1.6,5.1-3.7c2-2.1,4.2-3.7,5.2-3.7c1.2,0,1.7,32.8,1.7,125.1
			C3030.6,3494,3030.4,3496.4,3025.3,3489.3z"/>
		<path d="M2709.2,3440.3c-0.5-0.9-1.3-20.4-1.8-43.1l-0.8-41.6l5.4-3.1c2.8-1.9,5.7-4.3,6.1-5.7c0.5-1.2,1.5-1.9,2.2-1.4
			c0.9,0.4,2.2-0.6,3.2-2.2s2.4-3,3.4-3c1,0,2.7-1.4,3.7-3c1-1.6,2.4-3,3-3c1.3,0,10.9-7.9,19.5-16c2.8-2.7,5.4-4.9,5.8-4.9
			c0.9,0,5.7-4.5,14.8-13.8c3.1-3.1,6.3-5.7,7-5.7s4.5-3.1,8.4-7c3.9-4,10.5-10.2,14.7-13.9c9-7.9,39.2-36.2,51.4-47.9
			c4.6-4.5,11.2-10.3,14.5-13l6-4.8l0.9,22.6c0.6,12.4,1,36.5,0.9,53.5v30.9l-10.6,9c-16.8,14.1-20.8,17.7-26.2,22.6
			c-2.7,2.7-6,5.1-7.2,5.7c-1.2,0.4-2.2,1.4-2.2,2.1s-7.6,7.3-16.8,14.7c-9.3,7.3-18.1,14.7-19.5,16.3c-1.5,1.6-2.5,2.4-2.7,1.6
			c0-0.6-1.3,0.3-3,2.2c-1.5,1.9-2.8,3.1-3,2.6c0-0.6-1.7,0.4-3.6,2.2c-7,6.6-12.4,10.6-23.4,18c-6.1,4.2-11.5,7.6-11.8,7.9
			c-0.2,0.1,0,1.2,0.6,1.9c0.6,1.2,1.8,0.9,3.3-0.8c1.3-1.2,4.2-3.4,6.3-4.8s4.5-3.3,5.1-4.3s1.8-1.9,2.5-1.9c0.9,0,3.1-1.5,5.4-3.3
			c2.1-1.9,4-3.3,4.3-3.1c0.8,0.4,7.2-4.9,12-9.6c1.8-1.9,4-3.4,4.9-3.4s1.8-0.4,2.1-1.1c0.6-1.5,14.1-12.4,15.3-12.4
			c0.5,0,3.7-3,7.5-6.6c3.7-3.6,7-6.3,7.3-5.8c0.3,0.3,1.8-1.2,3.2-3.3s3.1-3.4,3.7-3c0.8,0.3,2.4-0.9,3.7-3
			c1.3-2.1,3.4-3.7,4.6-3.7s2.2-0.6,2.2-1.2c0-0.8,5.2-5.7,11.7-11.1c6.3-5.4,14.1-12.3,17.2-15.3c4.8-4.5,6.7-5.4,11.7-5.1
			c3.1,0.1,5.8,0.8,5.8,1.4s1.2,0.8,2.8,0.3c4.8-1.2,4.9,2.2,0.5,7.2c-3.3,3.6-5.7,4.8-9.3,4.6c-3.9-0.1-7.2,1.6-15.1,8.2
			c-5.5,4.6-10.6,9.4-10.9,10.5c-0.5,1.2-1.5,1.8-2.2,1.4s-2.4,0.8-3.7,2.9s-3.4,3.7-4.6,3.7s-2.2,0.6-2.2,1.4s-5.5,5.7-12.1,10.9
			c-6.7,5.1-13.8,11.1-15.7,13.2c-2,2.1-3.6,3-3.6,2.2s-1,0.1-2.4,1.9c-1.2,1.8-3,3-3.7,2.6c-0.8-0.6-1.3,1.8-1.3,5.1
			c0,5.8-0.5,6.3-12.6,15c-11.5,8.1-24.1,15.1-27.6,15.1c-0.6,0-4,1.4-7.5,3c-3.4,1.6-6.7,2.9-7.3,2.7c-0.6-0.1-3.7,0.9-6.7,2.1
			c-7.3,3.3-16.2,4.6-16.2,2.6s-5.7-0.3-10.3,3.3C2712.2,3442.4,2710.7,3442.6,2709.2,3440.3z"/>
		<path d="M2709.6,3334.8c-0.6-0.6-1-48.7-1-106.9v-105.7l12.7-17.1c7-9.4,14.7-19.5,16.9-22.3s7-9.3,10.8-14.5
			c11.2-15.4,23.2-30.4,24.4-30.4c0.6-0.1,1,54.2,1,120.9l-0.2,120.9l-7.8,6.9c-4.3,3.9-10.3,9.1-13.3,11.8c-3.2,2.7-5.7,5.8-5.7,7
			c0,1.4,1.5,0.3,3.9-2.4c2.1-2.6,4.3-4.6,5.1-4.6c0.6,0,4-2.9,7.6-6.1c3.6-3.4,8.2-7.8,10.3-9.6c2.7-2.6,5.5-3.4,10.2-3.6
			c3.4,0,6.3,0.4,6.3,1.1c-0.2,0.6-4.3,4.8-9.4,9.3s-11.5,10.8-14.5,13.9c-2.8,3-6.1,5.5-7,5.5s-3.2,2.1-4.9,4.5
			c-1.8,2.6-4,4.5-5.2,4.5c-1,0-3,1.6-4.3,3.7s-3.4,3.7-4.6,3.7s-2.2,0.6-2.2,1.2c0,2.9-6.4,7.9-9.1,7.3c-1.7-0.4-2.8-0.1-2.8,0.6
			c0,1.6-7,1.8-8.1,0.1c-1.2-1.9,0.6-3.9,11.8-12.9c10.6-8.7,17.2-15.9,14.5-15.9c-0.9,0-3,2.1-4.8,4.5c-1.8,2.6-3.7,4.2-4.5,3.7
			c-0.6-0.4-2.2,0.9-3.6,3s-3.2,3.7-3.9,3.7c-0.8,0-4.2,2.7-7.5,6c-3.3,3.3-6.7,6-7.5,6c-0.6,0-1.5,0.8-1.8,1.6
			C2711,3335.1,2710.2,3335.4,2709.6,3334.8z"/>
		<path d="M2895.5,3316.9c-0.3-0.4-2.7-0.9-5.1-1.2c-10-1.2-9.6,0.8-9.6-37.7c0-38,1.2-62.1,3.1-62.1c0.8,0,1.3,1.4,1.3,3
			s0.6,3,1.3,3s2.8,3.1,4.8,7.2c1.8,3.9,3.9,7.3,4.3,7.8c3.1,2.4,3.7,9.3,3.3,43.3C2898.8,3313.8,2898.2,3319.6,2895.5,3316.9z"/>
		<path d="M2783.5,3275.8c0-0.9-0.9-1.4-1.8-1.1c-1.5,0.1-2.1-24-2.4-116.1c-0.2-74.6,0.2-116.5,1.2-116.5c0.8,0,2.2,1.5,3.1,3.4
			c1,1.8,2.2,3.6,2.7,4c0.6,0.4,2.7,3.1,4.6,6c1.8,2.9,4.2,6,5.1,6.7c0.9,0.9,2.4,2.7,3.1,3.9c6.6,10.6,13.3,20.2,14.4,20.5
			c0.8,0.3,1.3,1.5,1.3,2.7s0.8,2.1,1.7,2.1c0.8,0,1,0.8,0.6,1.5c-0.5,0.9-0.3,1.5,0.3,1.5c0.8,0,3.3,3.3,5.7,7.5
			c2.5,4,4.9,7.5,5.7,7.5c0.6,0,1,30.1,1,67.1v66.9l-17.4,16.6c-15.7,15-17.8,16.6-23.2,16.8
			C2786.2,3277.1,2783.5,3276.5,2783.5,3275.8z"/>
	</g>
	<g transform="translate(0.000000,693.000000) scale(0.100000,-0.100000)">
		<path d="M3446.3,6222c-5.3-1.4-10.3-4.2-13.7-7.9c-4.2-4.4-6.1-7.8-7.5-13.5c-1.1-4.4-1.2-6.2-1-27.1l0.2-22.4l2.2-4.5
			c4.1-8.4,13.5-15.5,28-21.2c9.8-3.9,13.9-6.1,16.3-8.8c2.4-2.6,4.3-7.5,5.1-12.9c0.4-2.4,0.6-50.8,0.6-126.2
			c0-83.4,0.2-123.6,0.6-126.7c2.2-15.9,11.3-27,25.6-31.3c5.5-1.6,16.9-1.5,22.7,0.3c9.5,2.9,16.4,8.7,20.6,17.2
			c4.9,10,4.4-3.5,4.8,139.4c0.3,119.1,0.4,127.6,1.4,131.2c2.5,9,5.7,11.9,19.4,17c15.8,6,25.9,13.3,29.9,21.8l1.6,3.4l0.2,23.1
			c0.1,19.2,0,23.8-0.8,27.1c-2.5,10.9-10.7,19.2-21.6,21.8C3575.1,6223.3,3451.2,6223.3,3446.3,6222z M3577.9,6207.2
			c4.4-1.3,8.3-5.2,9.6-9.6c1.4-4.8,1.4-41.6,0-44.6c-2.2-4.6-9.3-9.2-21.4-13.9c-10.3-4-15.1-6.7-19.4-10.7
			c-5.7-5.3-8.8-12.5-10.2-23.6c-0.4-3.1-0.6-48.1-0.6-126.3c0-79.8-0.2-122.8-0.6-125.2c-0.9-5.7-2.7-9.8-5.7-13.1
			c-3.3-3.7-7-5.7-12.2-6.5c-9.7-1.5-18.6,2.5-22.6,10.3c-3.3,6.4-3.1-0.5-3.1,128c0,75.7-0.2,122-0.6,127.1
			c-0.8,9.8-2.2,16.4-5,21.8c-3.9,7.7-9.8,12.1-23.9,17.7c-12.9,5.1-19.9,9.8-22.4,15c-1.2,2.6-1.2,3.2-1.1,22.6
			c0.2,19.5,0.2,20,1.6,23.1c2,4.5,5.2,7.1,10.4,8.4c1,0.2,29.3,0.5,62.9,0.5C3568.1,6208.2,3575,6208,3577.9,6207.2z"/>
		<path d="M4119.3,6212.2c-8.7-1.2-20-6.2-28.6-12.5c-36.1-26.8-55.1-90.3-55.1-184.7c-0.1-65.6,9.7-117.9,28-150.8
			c5.5-10,10.6-16.8,18.3-24.4c11.7-11.7,22.5-17.8,36.8-20.6c6.7-1.4,19-0.9,25.7,0.8c21.5,5.7,40.6,23.2,53.9,49.3
			c6.2,12.3,10.3,23.5,14.6,40.6l2.5,10l0.3-20c0.4-24.4,1.5-33.1,6-46.5c5-14.9,12.6-25,22.7-30.3c6.1-3.2,10.6-4.2,19.2-4.2
			c14.5,0,24.1,3.5,34.7,12.6l3.5,3l0.9-1.4c2.1-3.4,8.5-8.9,12.7-10.9c8.3-4,20.1-5,28.7-2.4c12,3.5,20.9,13.1,24.2,26.1
			c1.1,4.4,1.2,6.9,1.1,103.5v99l1.9-1.6c1.1-0.8,3.3-2.4,5-3.4l3.1-1.8l0.2-73.8c0.2-80.1,0.1-76.3,3.5-91
			c7.1-30.4,24.4-50.2,49.4-56.5c6.8-1.7,22.4-1.8,28.6-0.2c14.9,3.8,25.2,14,27.4,27c1.5,8.6-0.3,21.8-3.8,28.8
			c-3.2,6.3-9.8,11.5-15.9,12.6c-6.9,1.2-11.6,6.6-14.3,16.2c-1,3.6-1.1,8.2-1.1,68.7v64.8l3.2,0.8c16.8,4.2,27.4,19.7,26.3,38.3
			c-0.7,11.7-5.3,20.6-13.7,26.7c-4,2.8-10.3,5.7-13.9,6.4l-2.2,0.4v29.2c0,33.4-0.1,34.8-4.5,43.6c-3.5,7.3-8.4,12.2-15.2,15.5
			c-6,2.9-10.3,3.8-17.8,3.7c-17.9-0.1-30.7-10.1-35.1-27.5c-1.1-4.4-1.2-6.4-1.2-28c0-12.8-0.2-27.1-0.3-31.6l-0.4-8.4l-1.8-0.9
			c-3-1.4-7.8-5.5-9.9-8.4c-1.1-1.4-2.1-2.6-2.3-2.6c-0.2,0-1.2,1.3-2.2,2.9c-4,6.2-11.9,11.5-20,13.4c-5.1,1.2-15.2,1.2-19.9-0.1
			c-12.3-3.2-20.7-11.4-25.1-24.8l-1.4-4.1l-0.3-82.9c-0.2-45.6-0.6-83.5-0.8-84.4c-1.2-3.5-2.4-3.8-3.8-0.7c-0.9,2-1,8.7-1.3,84.5
			l-0.3,82.3l-1.4,4.4c-2.2,7.5-4.7,11.7-9.5,16.6c-7.2,7.3-14.2,10-26,10c-7.7,0-11.9-0.9-17.7-3.7c-4.9-2.4-12-9.3-14.5-14.3
			l-1.7-3.5l-1.6,9.5c-7.1,41.6-21.4,73.6-41.4,92.5C4159.6,6208.6,4140,6215.1,4119.3,6212.2z M4140.7,6196.7
			c5.7-1.5,14.9-6.3,20.5-10.8c21.9-17.7,36.7-52.3,43.2-101c5.8-43.3,5.7-99.6-0.3-141.3c-6.2-43.1-18.6-73.9-37.3-92.6
			c-8.9-8.9-15.8-13.2-25.7-16.3c-6.2-2-16.6-2-23.2-0.1c-34.4,9.9-57.4,53.8-64.6,123.1c-4,38-3.5,87.6,1.2,124.8
			c5,39.3,15.5,70.3,30.6,90.2c4.7,6.1,13.3,14.1,18.9,17.6c5.5,3.4,13,6.2,18.3,7.1C4127.1,6198.2,4136,6197.8,4140.7,6196.7z
			 M4426.1,6186.2c3.7-1.8,7.4-5.5,9.3-9.3c2.7-5.4,3-8.2,3-42.5c0-31.1,0.1-32.2,1.2-34.1c1.4-2.3,2.6-2.8,8.1-3.7
			c6.8-0.9,10.6-2.6,14.4-6.4c4.4-4.4,6-8.4,6-15.4c0-5.6-1.3-10-4.2-14c-3.2-4.4-10.1-7.8-15.7-7.8c-3.4,0-6.1-2-8-5.6l-1.5-3
			v-69.3v-69.3l1.3-5c2.7-9.9,8.1-18.1,15-22.5c1.7-1.1,5.5-2.8,8.4-3.8c4.7-1.5,5.5-2.1,7-4.1c2.2-3.2,3.6-9,3.6-15.6
			c0.1-6.8-1.3-10.5-5.2-14.1c-5.3-4.9-11.4-6.8-22.1-6.8c-5.8,0-8.4,0.3-12.1,1.4c-19.6,5.5-32.5,23.5-38.5,53.4l-1.7,8.3
			l-0.3,75.2c-0.3,72-0.3,75.3-1.4,77.3c-1.7,3.2-2.7,4-6.7,6c-6.7,3.2-10.2,7.8-11.4,15.2c-1.3,7.7,1.2,16,6,20.2
			c1.2,1,4.2,2.8,6.8,4.1c2.6,1.2,5.1,2.8,5.6,3.6c0.8,1.1,0.9,6.7,1.2,36.8c0.3,34.6,0.3,35.5,1.6,38.8c2.5,6.7,6.5,10.7,12.7,12.9
			C4413.3,6188.7,4421.7,6188.3,4426.1,6186.2z M4259.7,6096.9c5.6-1.6,9.3-4.7,11.9-9.9c3.2-6.3,3.1-1.6,3.4-91.2
			c0.2-61.6,0.5-83.4,1-84.8c1.9-5.3,6.4-10.5,10.7-12.4c1.2-0.5,3.8-0.9,6-0.9c6.9-0.1,12.1,3.5,15.6,10.8l1.8,3.8l0.3,83.8
			l0.3,83.8l1.3,3.5c1.8,4.5,3.2,6.9,6.1,9.5c4.1,3.7,7,4.7,14.4,4.7c5.8,0.1,6.8-0.1,9.8-1.5c6.1-2.8,10.1-8.3,11.7-15.8
			c0.5-2.2,0.7-35,0.7-115c0-122.5,0.2-115.2-3.4-121.8c-4.3-7.9-13.7-11.7-23.8-9.6c-7.4,1.6-12.5,6-15.1,13.3
			c-0.5,1.5-1.2,3.3-1.5,4.1c-0.8,2-4,3.7-6.9,3.7c-2.5,0-2.8-0.2-9.8-6.9c-11.7-11.3-17.7-14-30.4-14c-6.8,0-7.7,0.1-10.8,1.6
			c-11,5.2-18.2,19.2-21.4,41.5c-0.8,5.5-0.9,19.9-0.9,104c0,104.2-0.1,100.3,2.8,106c2.5,5,6.5,8.3,12.1,10
			C4249.1,6098.1,4255.9,6098,4259.7,6096.9z"/>
		<path d="M4123.8,6133.6c-6.5-2.4-9.4-6.2-12.7-16.5c-7.7-23.5-11.2-61.7-10.5-113c0.6-44.1,4.1-72.1,11.4-91.2
			c2.5-6.4,5.4-10.1,9.9-12.4c4.1-2.2,11.1-2.3,15.2-0.3c5.8,2.9,8.4,6.6,12,17.6c7.1,22.2,10.2,55.9,9.6,105.5
			c-0.5,41.6-3,66.4-8.7,88.2c-3.4,13-6.2,17.9-11.8,20.9C4134.3,6134.4,4127.5,6135,4123.8,6133.6z M4131.7,6117
			c2.8-4.8,7-24.1,8.8-40.4c2.1-18.8,2.4-26.1,2.8-53.4c0.6-47.8-2.2-79.6-9-100.7c-3.2-10.1-5.1-11.1-7.8-4.2
			c-3.2,7.9-6.3,22.7-8,38.3c-1.8,15.4-2.2,23.5-2.5,47.8c-0.6,41,1.7,74,6.7,96.2c1.6,7.1,4.5,16.4,5.6,17.8
			C4129.2,6119.5,4130.5,6119,4131.7,6117z"/>
		<path d="M3940.4,6114.9c-8.9-1.2-19.5-5.8-28-12.5c-5.4-4.1-13.7-13.4-18.5-20.6c-7.7-11.6-13.5-23.8-18.6-39.6l-2.5-7.7l-0.4,8.5
			c-0.8,15.7-3.3,26.2-9.3,37.8c-11.5,22.4-30.4,34.3-49.7,31.2c-11.4-1.9-21.2-7-32.5-17l-4.8-4.2l-2.8,4.1
			c-8.1,11.9-21.6,18.2-34.8,16.5c-8.5-1.2-17.6-5-27.4-11.5c-2.7-1.8-5.1-3.3-5.2-3.3c-0.2,0.1-1.3,1.4-2.4,3
			c-4,5.8-11.3,10.8-18,12.4c-1.6,0.4-5.3,0.6-8.3,0.6c-16.6-0.1-28.6-8.7-34.3-24.6l-1.6-4.7v-117.7v-117.7l1.6-4.7
			c4.5-13.1,14-21.8,26.6-24.2c17.9-3.4,34,3.9,41,18.6c4.5,9.4,4.2,5.2,4.2,83c0,66.9,0.3,79.9,1.8,89.2c0.9,5.5,1.5,6.1,2.2,2.3
			c2-9.9,2.1-11.6,2.4-86.9c0.4-74.6,0.4-75.6,1.6-79.9c2.5-8.9,6.1-14.9,11.8-19.6c7.5-6.3,19.2-8.9,29.9-6.6
			c11.2,2.4,19.5,9.3,24.1,20.3c3.5,8.4,3.5,7.5,3.5,85.8c0,41.8,0.2,73.7,0.6,77c0.8,7.6,1.8,13.6,2.4,13.3
			c0.4-0.3,1.1-3.7,2.4-12.2c0.5-3,0.8-28.1,1-79.5l0.4-75.2l1.4-4.1c4.7-14.3,13.7-22.7,27.2-25.4c5.8-1.2,14.3-0.9,19.5,0.7
			c11.2,3.3,19.5,11.4,23.3,22.8c2.2,6.8,2.6,11.1,2.6,32.6l0.1,19.5l2.2-6.5c8.3-24.1,23.1-46.4,38.7-58c5.2-4,14.6-8.5,20.6-10.2
			c4-1.1,6.2-1.2,14.2-1.2c8.1,0,10.2,0.2,15.1,1.5c11.9,3.1,21.1,8.4,29.8,17.2c10.8,10.9,18.2,25.1,19.8,38.4
			c1.6,13.2-4,25.7-14.4,32.4c-10.6,6.7-23.3,5.5-33.1-3c-9.7-8.5-13.7-9.4-17.9-3.8c-2.3,3.1-3.5,7-4.3,13.8
			c-1.1,9.4,1.2,21.7,4.4,23.8c1.6,1.1,15.2,2.1,28.1,2.1c10.7,0,15.6,0.9,21.5,3.8c16.5,8.1,24.8,29.1,22.7,57.5
			c-3.5,48.4-18.2,85.8-40,102.2c-8.6,6.4-17.3,9.7-28.4,10.6c-3.8,0.3-7,0.5-7.1,0.5C3944.5,6115.4,3942.6,6115.2,3940.4,6114.9z
			 M3956.7,6099c19.8-5.1,34.4-25.5,42.8-59.8c5.7-23.4,7.5-49.6,4.2-62c-2.6-10.1-7.9-17.2-14.6-19.8c-3.1-1.2-4.8-1.4-19.9-1.8
			c-23.5-0.6-27.7-1.5-32.4-6.2c-2.8-2.9-5.9-9.3-7.2-15c-1.5-7-1.4-22.9,0.3-29.7c3.2-12.7,10-20,20.5-21.8c7-1.2,14,1.3,21.5,7.5
			c7.8,6.5,11.7,7.9,16.8,6c3.5-1.4,7.7-6,8.9-10c4.5-15.2-9.7-39.3-28.3-48.2c-7.1-3.4-12.9-4.7-20.9-4.8c-7.4-0.1-11.9,1-18.3,4.2
			c-14.7,7.4-29.6,27-39.2,51.3c-4.2,10.7-8.5,30.6-10.6,48.4c-1.3,11.1-1.8,34.9-0.9,45.7c1.9,23.7,6.6,45.2,14.3,64.8
			c11.2,28.5,27.1,46.5,45.3,51.4C3943.5,6100.5,3951.3,6100.4,3956.7,6099z M3684.3,6096.4c3.7-1.7,7.3-5.7,9.9-10.8
			c1.1-2.2,2.7-4.6,3.5-5.4c3.4-3.2,8.7-2.1,16.8,3.6c17.8,12.5,27.3,15.3,37,10.7c5.5-2.6,9.1-6.7,13.3-15.3c4-8.2,5.5-9.7,9.6-9.7
			c3.1,0,5.1,1.2,7.6,4.5c3.4,4.5,12.7,13.1,17.4,16.3c5.5,3.7,9.7,5.5,15.4,6.6c7.2,1.5,12.8,0.2,19.6-4.4
			c9.1-6.2,17-18.8,21.1-33.6l1.5-5.7l0.2-99.7c0.1-69.9-0.1-100.6-0.5-102.8c-1.5-7-6-13.1-11.6-15.6c-10.8-4.8-23.9-0.8-28.7,8.9
			c-3.4,6.6-3.3,5.8-3.3,80.5c0,41-0.2,71.4-0.6,75.7c-1.2,14.8-4.1,25.3-8.1,30.6c-3.1,4-5.4,5.2-9.9,5
			c-6.6-0.4-10.6-4.5-13.5-13.6c-3.5-11.2-3.4-8.5-3.8-92.7c-0.3-55.7-0.6-77.9-1.1-79.7c-1.9-6.7-5.7-12.1-10.1-14.4
			c-5-2.5-12.3-2.7-17.9-0.4c-2.8,1.2-6.7,4.8-8.2,7.6c-3.3,6.5-3.1,0.9-3.5,80.9c-0.3,63.5-0.5,74.7-1.3,81.1
			c-2.2,16.9-6.2,26.7-12.3,29.9c-2,1.1-7,1.1-9.5,0c-4.3-1.8-8.1-7.7-10.1-15.4c-2.9-11.6-2.8-10.3-3.2-91.7
			c-0.4-84.9-0.1-79.1-4.3-85.4c-4-5.8-9.9-8.7-17.8-8.7c-10.1,0-16.9,4.7-20.5,14.3l-1.3,3.4l-0.2,112.8
			c-0.2,122-0.3,116.7,2.9,123c1.5,3,5.4,7.2,7.9,8.5C3672,6098.2,3679.5,6098.7,3684.3,6096.4z"/>
		<path d="M3942.6,6048.4c-10-2.5-14.8-11.6-14.3-27.5c0.2-6.8,0.4-8,1.8-11.2c1.9-4.1,4.4-7,7.8-8.7c1.8-1,3.4-1.3,7.1-1.3
			c4.1,0,5.1,0.2,7.8,1.7c6.3,3.5,9.2,10.3,9.2,21.3c0,7.1-0.8,11.3-3,16c-1.9,4.1-6.4,8.1-10.4,9.3
			C3945.4,6049,3945.2,6049,3942.6,6048.4z M3946.4,6031.1c0.7-2,0.9-13.9,0.3-15.5c-0.2-0.5-1-0.9-1.8-0.9c-1.1,0-1.4,0.4-1.8,2.1
			c-0.6,3.4,0,14.2,0.9,15.3C3945.2,6033.4,3945.7,6033.2,3946.4,6031.1z"/>
		<path d="M3591.1,6112.5c-5.6-0.5-8.7-1.4-13.6-4c-8.5-4.4-14.7-12.7-17.4-23.4c-1.2-4.7-1.2-6.2-1.2-119.4
			c0-127.7-0.3-118.7,4.1-127.9c1.8-3.8,3.4-6,6.7-9.2c6.6-6.6,13.3-9.5,23.4-10.1c18.5-1.1,32.9,8.9,38.2,26.7
			c1,3.4,1.1,9.9,1.2,118.6c0.2,129.4,0.5,119.9-4.3,129.9C3621.6,6107.4,3608.3,6114.1,3591.1,6112.5z M3605.6,6095.8
			c5.9-2.8,9.9-8.3,11.5-15.6c1.2-6,1.2-223.1-0.1-229.1c-2.5-11.6-10.1-17.8-21.8-17.6c-10.9,0.1-18.1,6-20.6,16.9
			c-0.8,3.4-0.9,17.1-0.8,117l0.2,113.1l1.3,3.4c2.5,6.7,6.5,10.7,12.7,13C3592.6,6098.4,3601.1,6098,3605.6,6095.8z"/>
	</g>
	<path id="FT-Pink" d="M222.5,107.2h-50.8V56.3h50.8V107.2L222.5,107.2z"/>
	<path id="FT" class="st1" d="M184.6,82.9c0,2.4,0.6,2.7,3.4,2.8v0.9h-10.9v-0.9c2.3-0.1,2.9-0.4,2.9-2.8V67.2
		c0-2.4-0.6-2.7-2.8-2.8v-0.9h19.2l0.1,5.1h-0.9c-0.8-2.6-1.7-3.4-6.2-3.4h-3.5c-1,0-1.3,0.2-1.3,1.2v7.3h1.7c3.6,0,4.4-0.7,4.8-3
		h0.9v8.1h-0.9c-0.5-2.7-1.8-3.4-4.8-3.4h-1.7L184.6,82.9L184.6,82.9z M218.1,63.5H198l-0.5,5.1h1.2c0.7-2.5,1.8-3.4,4.2-3.4h2.8
		v17.6c0,2.4-0.6,2.7-3.2,2.8v0.9h11.1v-0.9c-2.6-0.1-3.2-0.4-3.2-2.8V65.2h2.8c2.4,0,3.5,0.9,4.2,3.4h1.1L218.1,63.5z"/>
	<path id="FinancialTimes" d="M173.4,115.7c0,0.6,0.2,0.7,0.9,0.7v0.2h-2.8v-0.2c0.6,0,0.7-0.1,0.7-0.7v-4c0-0.6-0.2-0.7-0.7-0.7
		v-0.2h4.9l0,1.3h-0.2c-0.2-0.7-0.4-0.9-1.6-0.9h-0.9c-0.3,0-0.3,0.1-0.3,0.3v1.9h1c0.9,0,1.1-0.2,1.2-0.8h0.2v2.1h-0.2
		c-0.1-0.7-0.5-0.9-1.2-0.9h-1V115.7L173.4,115.7z M179.2,115.7c0,0.6,0.2,0.7,0.9,0.7v0.2h-2.9v-0.2c0.7,0,0.9-0.1,0.9-0.7v-4
		c0-0.6-0.2-0.7-0.9-0.7v-0.2h2.9v0.2c-0.7,0-0.9,0.1-0.9,0.7V115.7z M186.2,111.8c0-0.6-0.2-0.8-0.8-0.9v-0.2h2.1v0.2
		c-0.6,0.1-0.8,0.3-0.8,0.9v4.9h-0.3l-4-4.6v3.4c0,0.6,0.2,0.8,0.8,0.9v0.2h-2.1v-0.2c0.6-0.1,0.8-0.3,0.8-0.9v-4
		c-0.2-0.3-0.4-0.5-0.8-0.6v-0.2h1.6l3.5,4.1C186.2,114.8,186.2,111.8,186.2,111.8z M189.3,114.5l0.9-2.3l0.9,2.3
		C191.1,114.5,189.3,114.5,189.3,114.5z M193.5,116.6v-0.2c-0.4,0-0.6-0.2-0.8-0.7l-2.1-5.1h-0.3l-2.2,5.2c-0.1,0.4-0.3,0.5-0.7,0.6
		v0.2h1.9v-0.2c-0.4,0-0.6-0.1-0.6-0.4c0-0.2,0.3-0.9,0.3-1.1h2.1c0.1,0.2,0.3,0.8,0.3,1.1c0,0.3-0.2,0.4-0.6,0.4v0.2L193.5,116.6
		L193.5,116.6z M199.2,111.8c0-0.6-0.2-0.8-0.8-0.9v-0.2h2.1v0.2c-0.6,0.1-0.8,0.3-0.8,0.9v4.9h-0.3l-4-4.6v3.4
		c0,0.6,0.2,0.8,0.8,0.9v0.2h-2.1v-0.2c0.6-0.1,0.8-0.3,0.8-0.9v-4c-0.2-0.3-0.4-0.5-0.8-0.6v-0.2h1.6l3.5,4.1L199.2,111.8
		L199.2,111.8z M206.6,115.2c-0.6,1.1-1.4,1.5-2.6,1.5c-1.9,0-3-1.3-3-3.1c0-1.3,1.1-3,3.1-3c0.6,0,1.5,0.3,1.6,0.3
		c0.2,0,0.2-0.1,0.4-0.3h0.3l0.1,2h-0.3c-0.3-0.9-1-1.6-2-1.6c-1.4,0-2,1.5-2,2.6c0,1.6,0.7,2.7,2.2,2.7c1.1,0,1.8-0.8,2-1.2
		L206.6,115.2z M209.5,115.7c0,0.6,0.2,0.7,0.9,0.7v0.2h-2.9v-0.2c0.7,0,0.9-0.1,0.9-0.7v-4c0-0.6-0.2-0.7-0.9-0.7v-0.2h2.9v0.2
		c-0.7,0-0.9,0.1-0.9,0.7V115.7z M212.8,114.5l0.9-2.3l0.9,2.3H212.8z M217,116.6v-0.2c-0.4,0-0.6-0.2-0.8-0.7l-2.1-5.1h-0.3
		l-2.2,5.2c-0.1,0.4-0.3,0.5-0.7,0.6v0.2h1.9v-0.2c-0.4,0-0.6-0.1-0.6-0.4c0-0.2,0.3-0.9,0.3-1.1h2.1c0.1,0.2,0.3,0.8,0.3,1.1
		c0,0.3-0.2,0.4-0.6,0.4v0.2L217,116.6L217,116.6z M217.5,116.6v-0.2c0.6,0,0.7-0.1,0.7-0.7v-4c0-0.6-0.2-0.7-0.7-0.7v-0.2h2.7v0.2
		c-0.6,0-0.8,0.1-0.8,0.7v4.1c0,0.4,0.1,0.5,0.8,0.5c1.1,0,1.7-0.2,2.2-1.2h0.2l-0.4,1.6H217.5z M172.8,125.9c0.7,0,0.8-0.1,0.8-0.7
		v-4.5h-0.7c-0.7,0-1,0.3-1.1,1.1h-0.3l0.1-1.5h5.2l0.1,1.5h-0.3c-0.2-0.8-0.5-1.1-1.1-1.1h-0.7v4.5c0,0.6,0.2,0.7,0.8,0.7v0.2h-2.8
		C172.8,126.1,172.8,125.9,172.8,125.9z M179.6,125.2c0,0.6,0.2,0.7,0.9,0.7v0.2h-2.9v-0.2c0.7,0,0.9-0.1,0.9-0.7v-4
		c0-0.6-0.2-0.7-0.9-0.7v-0.2h2.9v0.2c-0.7,0-0.9,0.1-0.9,0.7C179.6,121.2,179.6,125.2,179.6,125.2z M186.6,120.2h2v0.2
		c-0.6,0-0.7,0.1-0.7,0.7v4c0,0.6,0.2,0.7,0.7,0.7v0.2H186v-0.2c0.6,0,0.7-0.1,0.7-0.7v-4.1h0l-2,5.1h-0.3l-1.9-5.1h0v4
		c0,0.6,0.2,0.8,0.8,0.9v0.2h-2.1v-0.2c0.6-0.1,0.8-0.3,0.8-0.9v-4c0-0.4-0.2-0.6-0.8-0.6v-0.2h2.1l1.6,4.1
		C185,124.3,186.6,120.2,186.6,120.2z M189.5,126.1v-0.2c0.6,0,0.7-0.1,0.7-0.7v-4c0-0.6-0.2-0.7-0.7-0.7v-0.2h4.9l0,1.3h-0.2
		c-0.2-0.7-0.4-0.9-1.6-0.9h-0.9c-0.3,0-0.3,0.1-0.3,0.3v1.9h1c0.9,0,1.1-0.2,1.2-0.8h0.2v2.1h-0.2c-0.1-0.7-0.5-0.9-1.2-0.9h-1v2
		c0,0.3,0.1,0.5,1.1,0.5c1.1,0,1.7-0.2,2.2-1.2h0.2l-0.4,1.6L189.5,126.1L189.5,126.1z M195.7,124.3h0.2c0.2,0.8,1,1.6,1.9,1.6
		c0.7,0,1-0.5,1-1c0-1.3-3-1.6-3-3.3c0-0.8,0.8-1.5,1.7-1.5c0.9,0,1.2,0.3,1.6,0.3c0.2,0,0.3-0.1,0.3-0.3h0.2v1.9h-0.2
		c-0.2-0.8-0.9-1.5-1.6-1.5c-0.7,0-0.9,0.4-0.9,0.8c0,1.2,3.1,1.2,3.1,3.3c0,0.9-0.8,1.6-1.8,1.6c-1,0-1.3-0.4-1.7-0.4
		c-0.1,0-0.3,0.1-0.3,0.3h-0.3L195.7,124.3L195.7,124.3z"/>
</g>
</svg>
