<?xml version="1.0" encoding="utf-8"?>
<!-- Generator: Adobe Illustrator 24.2.0, SVG Export Plug-In . SVG Version: 6.00 Build 0)  -->
<svg version="1.1" xmlns="http://www.w3.org/2000/svg" xmlns:xlink="http://www.w3.org/1999/xlink" x="0px" y="0px"
	 viewBox="0 0 994.03 100.24" style="enable-background:new 0 0 994.03 100.24;" xml:space="preserve">
<style type="text/css">
	.st0{fill:#121212;}
	.st1{fill:#FFFFFF;}
</style>
<g id="Layer_1">
</g>
<g id="Layer_2">
	<path d="M363.6,40.19c0-3.48-3.31-4.35-5.92-4.35v0.52c1.57,0,2.79,0.52,2.79,1.74c0,0.7-0.52,1.74-2.09,1.74
		c-1.22,0-3.83-0.7-5.75-1.39c-2.26-0.87-4.35-1.57-6.1-1.57c-3.48,0-5.92,2.61-5.92,5.57c0,2.61,1.92,3.48,2.61,3.83l0.17-0.35
		c-0.35-0.35-0.87-0.7-0.87-1.74c0-0.7,0.7-1.92,2.44-1.92c1.57,0,3.66,0.7,6.44,1.57c2.44,0.7,5.05,1.22,6.44,1.39v5.4l-2.61,2.26
		v0.17l2.61,2.26v7.49c-1.39,0.87-2.96,1.04-4.35,1.04c-2.61,0-4.88-0.7-6.79-2.79l7.14-3.48V45.59l-8.71,3.83
		c0.7-2.26,2.61-3.83,4.53-4.88l-0.17-0.52c-5.22,1.39-9.93,6.27-9.93,12.19c0,6.97,5.75,12.19,12.19,12.19
		c6.97,0,11.49-5.57,11.49-11.32h-0.35c-1.04,2.26-2.61,4.35-4.53,5.4v-7.14l2.79-2.26v-0.17l-2.79-2.26v-5.4
		C360.99,45.24,363.6,43.5,363.6,40.19z M348.45,59.35l-2.09,1.04c-1.22-1.57-1.92-3.66-1.92-6.62c0-1.22,0-2.61,0.35-3.66
		l3.66-1.57V59.35z M366.91,63.36l-2.26,1.74l0.35,0.35l1.04-0.87l3.83,3.48l5.22-3.48l-0.17-0.35l-1.39,0.87l-1.74-1.74V51.51
		l1.39-1.04l2.96,2.44v10.62c0,6.62-1.39,7.66-4.35,8.71v0.52c4.88,0.17,9.4-1.39,9.4-9.93V51.34l1.57-1.22l-0.35-0.35l-1.39,1.04
		l-4.35-3.66l-4.88,3.66V36.53h-0.35l-6.1,4.18v0.35c0.7,0.35,1.74,0.7,1.74,2.61C367.08,43.68,366.91,63.36,366.91,63.36z
		 M398.78,61.44l-4.35,3.31l-4.35-3.48v-2.09l8.19-5.57v-0.17l-4.18-6.27l-9.06,4.88v11.49l-1.74,1.39l0.35,0.35l1.57-1.22
		l5.92,4.35l7.84-6.27C398.96,62.14,398.78,61.44,398.78,61.44z M390.07,58.48v-8.53l0.35-0.17l3.83,6.1
		C394.25,55.87,390.07,58.48,390.07,58.48z M432.05,38.62c0-0.52-0.17-1.04-0.35-1.57h-0.35c-0.52,1.39-1.22,2.09-2.96,2.09
		c-1.57,0-2.61-0.87-3.31-1.57l-5.05,5.75l0.35,0.35l1.74-1.57c1.04,0.87,1.92,1.57,4.35,1.74V58.3L416.2,40.71
		c-0.87-1.39-2.09-3.31-4.53-3.31c-2.79,0-5.22,2.44-4.88,6.27h0.52c0.17-1.04,0.7-2.26,1.92-2.26c0.87,0,1.74,0.87,2.26,1.74v5.75
		c-3.13,0-5.22,1.39-5.22,4.01c0,1.39,0.7,3.48,2.79,4.01v-0.35c-0.35-0.35-0.52-0.7-0.52-1.22c0-0.87,0.7-1.57,1.92-1.57h0.87v7.31
		c-3.66,0-6.62,2.09-6.62,5.57c0,3.31,2.79,4.88,5.92,4.7v-0.35c-1.92-0.17-2.79-1.04-2.79-2.26c0-1.57,1.04-2.26,2.44-2.26
		s2.61,0.87,3.48,1.92l5.05-5.57l-0.35-0.35l-1.22,1.39c-1.92-1.74-2.96-2.26-5.22-2.61V43.85l13.93,24.38H427V43.85
		C429.61,43.68,432.05,41.59,432.05,38.62z M444.76,61.44l-4.35,3.31l-4.35-3.48v-2.09l8.19-5.57v-0.17l-4.18-6.27L431,52.04v11.49
		l-1.74,1.39l0.35,0.35l1.57-1.22l5.92,4.35l7.84-6.27C444.93,62.14,444.76,61.44,444.76,61.44z M436.05,58.48v-8.53l0.35-0.17
		l3.83,6.1C440.23,55.87,436.05,58.48,436.05,58.48z M473.15,49.07l-1.22,0.87l-3.31-2.79l-3.83,3.48l1.57,1.57v13.06l-4.18-2.61
		v-10.8l1.39-0.87l-4.01-3.83l-3.83,3.48l1.57,1.57v12.54l-0.52,0.35l-3.66-2.61V52.04c0-2.44-1.22-3.13-2.61-4.01
		c-1.22-0.87-1.92-1.39-1.92-2.61c0-1.04,1.04-1.57,1.57-1.92v-0.35c-1.39,0-5.05,1.39-5.05,4.7c0,1.74,0.87,2.44,1.74,3.31
		c0.87,0.87,1.74,1.57,1.74,3.13v10.1l-1.92,1.39l0.35,0.35l1.74-1.39l4.01,3.48l4.35-2.96l4.88,2.96l9.23-5.4V51.16l2.26-1.74
		L473.15,49.07L473.15,49.07z M505.54,39.5l-1.74,1.57l-3.83-3.48l-5.75,4.18v-3.83h-0.52l0.17,28.21c-0.52,0-2.09-0.35-3.31-0.7
		l-0.35-23.51c0-1.74-1.22-4.18-4.35-4.18s-5.22,2.44-5.22,4.88h0.52c0.17-1.04,0.7-1.92,1.74-1.92s1.92,0.7,1.92,2.96v6.79
		c-3.13,0.17-5.05,1.92-5.05,4.18c0,1.39,0.7,3.48,2.79,3.48v-0.35c-0.7-0.35-0.87-0.87-0.87-1.22c0-1.04,0.87-1.39,2.26-1.39h0.7
		v10.8c-2.61,0.87-3.66,2.79-3.66,4.88c0,2.96,2.26,5.05,5.75,5.05c2.44,0,4.53-0.35,6.62-0.87c1.74-0.35,4.01-0.87,5.05-0.87
		c1.39,0,1.92,0.7,1.92,1.57c0,1.22-0.52,1.74-1.22,1.92v0.35c2.79-0.52,4.53-2.26,4.53-4.88c0-2.61-2.61-4.18-5.4-4.18
		c-1.39,0-4.35,0.52-6.44,0.87c-2.44,0.52-4.88,0.87-5.57,0.87c-1.22,0-2.61-0.52-2.61-2.26c0-1.39,1.22-2.61,4.18-2.61
		c1.57,0,3.48,0.17,5.4,0.7c2.09,0.52,4.01,1.04,5.75,1.04c2.61,0,4.88-0.87,4.88-4.53V41.59l2.09-1.74L505.54,39.5L505.54,39.5z
		 M498.4,50.12c-0.52,0.52-1.22,1.04-2.09,1.04c-0.87,0-1.74-0.52-2.09-1.04v-7.66l1.74-1.22l2.44,2.26
		C498.4,43.5,498.4,50.12,498.4,50.12z M498.4,55.34c-0.35-0.35-1.22-0.87-2.09-0.87c-0.87,0-1.74,0.52-2.09,0.87v-4.53
		c0.35,0.35,1.22,0.87,2.09,0.87c0.87,0,1.74-0.52,2.09-0.87V55.34z M498.4,63.53c0,1.39-0.87,2.79-2.79,2.79h-1.39V56.04
		c0.35-0.35,1.22-0.87,2.09-0.87c0.87,0,1.57,0.52,2.09,0.87C498.4,56.04,498.4,63.53,498.4,63.53z M522.26,51.16l-5.57-4.01
		l-8.53,4.88v11.32l-1.74,1.39l0.17,0.35l1.39-1.04l5.57,4.18l8.71-5.22C522.26,63.01,522.26,51.16,522.26,51.16z M512.86,62.14
		V49.6l4.35,3.13V65.1C517.21,65.1,512.86,62.14,512.86,62.14z M538.81,47.51h-0.35c-0.52,0.35-1.04,0.7-1.57,0.7
		c-0.7,0-1.57-0.35-1.92-0.87h-0.35l-2.96,3.31l-2.96-3.31l-5.22,3.48l0.17,0.35l1.39-0.87l1.74,1.92v10.97l-2.26,1.74l0.35,0.35
		l1.04-0.87l4.18,3.48l5.4-3.66l-0.17-0.35l-1.57,0.87l-2.09-1.74V50.82c0.87,0.87,1.92,1.74,3.13,1.74
		C537.24,52.73,538.63,50.29,538.81,47.51L538.81,47.51z M559.71,64.23l-5.92,4.01l-8.01-12.19l5.75-8.88h0.35
		c0.7,0.7,1.74,1.39,2.96,1.39s2.09-0.7,2.61-1.39h0.35c-0.17,3.48-2.61,5.57-4.35,5.57c-1.74,0-2.61-0.87-3.66-1.39l-0.52,0.87
		l8.71,12.89l1.74-1.04V64.23z M540.55,63.36l-2.26,1.74l0.35,0.35l1.04-0.87l3.83,3.48l5.22-3.48l-0.35-0.35l-1.39,0.87l-1.74-1.74
		V36.53h-0.17l-6.27,4.18v0.35c0.7,0.35,1.74,0.52,1.74,2.61C540.55,43.68,540.55,63.36,540.55,63.36z M588.62,40.19
		c0-3.48-3.31-4.35-5.92-4.35v0.52c1.57,0,2.79,0.52,2.79,1.74c0,0.7-0.52,1.74-2.09,1.74c-1.22,0-3.83-0.7-5.75-1.39
		c-2.26-0.7-4.35-1.39-6.1-1.39c-3.48,0-5.92,2.61-5.92,5.57c0,2.61,1.92,3.48,2.61,3.83l0.17-0.35c-0.52-0.35-1.04-0.7-1.04-1.74
		c0-0.7,0.7-1.92,2.44-1.92c1.57,0,3.66,0.7,6.44,1.57c2.44,0.7,5.05,1.22,6.44,1.39v5.4l-2.61,2.26v0.17l2.61,2.26v7.49
		c-1.39,0.87-2.96,1.04-4.35,1.04c-2.61,0-4.88-0.7-6.79-2.79l7.14-3.48V45.59l-8.71,3.83c0.87-2.26,2.79-3.83,4.53-5.05l-0.17-0.35
		c-5.22,1.39-9.93,6.1-9.93,12.02c0,6.97,5.75,12.19,12.19,12.19c6.97,0,11.49-5.57,11.49-11.32h-0.35
		c-1.04,2.26-2.61,4.35-4.53,5.4v-7.14l2.79-2.26v-0.17l-2.61-2.26v-5.22C586,45.24,588.62,43.5,588.62,40.19z M573.46,59.35
		l-2.09,1.04c-1.22-1.57-1.92-3.66-1.92-6.62c0-1.22,0.17-2.61,0.52-3.66l3.66-1.57L573.46,59.35z M594.71,38.45h-0.17l-3.48,2.96
		v0.17l2.96,3.31h0.35l3.48-2.96v-0.17L594.71,38.45L594.71,38.45z M599.94,64.23l-1.39,0.87l-1.74-1.74V51.34l1.74-1.22l-0.35-0.35
		l-1.22,1.04l-3.13-3.66l-5.05,3.48l0.35,0.52l1.22-0.87l1.57,1.92v11.32l-2.26,1.74l0.17,0.35l1.22-0.87l3.83,3.48l5.22-3.48
		L599.94,64.23L599.94,64.23z M629.02,64.05l-1.22,0.87l-1.92-1.74V51.34l1.74-1.39l-0.35-0.35l-1.39,1.22l-4.01-3.66l-5.22,3.66
		l-4.01-3.66l-4.88,3.66l-3.13-3.66l-5.05,3.48l0.17,0.52l1.22-0.87l1.74,1.92v11.32l-1.39,1.39l4.01,3.31l3.83-3.48l-1.57-1.57
		V51.34l1.57-1.04l2.61,2.44v10.45l-1.39,1.39l4.01,3.31l3.83-3.48l-1.57-1.57V51.34l1.39-0.87l2.79,2.44v10.45l-1.22,1.22
		l4.01,3.66l5.4-3.66V64.05L629.02,64.05z M644.17,61.44l-4.35,3.31l-4.35-3.48v-2.09l8.19-5.57v-0.17l-4.18-6.27l-9.06,4.88v11.84
		l6.1,4.35l7.84-6.27C644.35,61.96,644.17,61.44,644.17,61.44z M635.47,58.48v-8.53l0.35-0.17l3.83,6.1
		C639.65,55.87,635.47,58.48,635.47,58.48z M660.02,56.91l-3.31-2.61c2.26-1.92,3.13-4.53,3.13-6.27v-1.04h-0.35
		c-0.35,0.87-1.04,1.74-2.44,1.74c-1.39,0-2.26-0.7-3.13-1.74l-7.84,4.35v6.27l2.96,2.26c-2.96,2.61-3.48,4.35-3.48,5.75
		c0,1.74,0.87,2.96,2.26,3.48l0.17-0.35c-0.35-0.35-0.7-0.52-0.7-1.39c0-0.52,0.7-1.39,2.09-1.39c1.74,0,2.79,1.22,3.31,1.74
		l7.49-4.53v-6.27C660.2,56.91,660.02,56.91,660.02,56.91z M658.11,51.69c-1.22,2.09-3.83,4.18-5.4,5.22l-1.92-1.57v-6.1
		c0.7,1.74,2.61,3.13,4.53,3.13C656.54,52.38,657.24,52.21,658.11,51.69z M655.15,65.62c-0.87-1.92-2.96-3.31-5.05-3.31
		c-0.52,0-1.92,0-3.31,0.87c0.87-1.39,3.13-3.83,6.1-5.57l2.09,1.74L655.15,65.62L655.15,65.62z"/>
	<path class="st0" d="M175.26,49.92c0.46-0.23,0.97-0.51,1.43-0.74c0.18-0.09,0.83-0.32,0.92-0.51c0.05-0.09,0-0.37,0-0.51v-1.11
		v-7.89v-7.7v-1.01c0-0.05,0.05-0.37,0-0.42c-0.05-0.05-0.42,0-0.46,0h-1.01c-0.37,0-0.32,0.05-0.55,0.32
		c-0.88,1.15-1.75,2.31-2.63,3.5c-0.42,0.55-0.83,1.06-1.2,1.61c-0.28,0.37-0.28,0.42-0.78,0.42l0.14-3.04
		c0.05-0.74,0.05-1.48,0.09-2.21c0-0.28,0.05-0.55,0.05-0.83c0-0.09-0.05-0.37,0-0.42c0.09-0.14,0.92-0.05,1.15-0.05h17.25
		c0.09,0,0.51-0.05,0.6,0c0.09,0.05,0.05,0.32,0.05,0.46c0.05,0.6,0.05,1.25,0.09,1.84c0.05,1.34,0.09,2.63,0.18,3.97v0.28
		c-0.23,0-0.42,0.05-0.6-0.09c-0.18-0.14-0.32-0.42-0.46-0.6c-0.55-0.74-1.11-1.52-1.71-2.26l-1.66-2.21
		c-0.09-0.14-0.23-0.46-0.42-0.55c-0.14-0.09-0.42-0.05-0.6-0.05h-0.74c-0.09,0-0.46-0.05-0.55,0c-0.05,0.05,0,0.05-0.05,0.14
		c-0.09,0.37,0,0.83,0,1.2v16.05c0,0.32-0.09,0.78,0,1.11c0.09,0.32,0.83,0.55,1.15,0.69c0.32,0.18,0.88,0.32,1.15,0.6
		c0.09,0.09,0.18,0.55,0.09,0.69c-0.05,0.05-0.28,0-0.32,0h-10.15c-0.09,0-0.42,0.05-0.46,0C175.22,50.43,175.26,50.06,175.26,49.92
		z M192.37,49.09v-6.73V31.34v-1.8c0-0.28,0.09-0.69,0-0.97c-0.09-0.32-0.65-0.37-0.97-0.51c-0.18-0.05-0.78-0.18-0.88-0.37v-0.37
		h0.14c0.18-0.09,0.55-0.09,0.78-0.14c0.42-0.09,0.83-0.14,1.2-0.23c0.92-0.18,1.89-0.37,2.81-0.51c0.55-0.09,1.11-0.23,1.66-0.32
		c0.14,0,0.69-0.09,0.74,0c0.05,0.05,0,0.23,0,0.28v9.55c1.75-1.75,4.8-2.72,7.24-2.12c2.12,0.51,2.81,2.49,2.81,4.52
		c0.05,2.58,0,5.12,0,7.7v2.08c0,0.23-0.09,0.78,0,1.01c0.05,0.09,0.23,0.14,0.32,0.23c0.32,0.18,0.69,0.37,1.01,0.55
		c0.05,0.05,0.18,0.09,0.18,0.14c0.05,0.05,0.05,0.46,0,0.51c-0.05,0.09-0.05,0.05-0.18,0.05c-0.51,0.09-1.06,0-1.52,0h-6.64
		c-0.05,0-0.28,0.05-0.32,0s-0.05-0.55,0-0.6c0.14-0.18,0.69-0.37,0.88-0.51c0.14-0.09,0.55-0.23,0.65-0.37c0.09-0.14,0-0.65,0-0.78
		v-1.89c0-2.67,0.05-5.4,0-8.07c0-0.78-0.14-1.71-0.92-2.12c-0.42-0.23-0.97-0.28-1.43-0.28c-0.37,0-0.74,0.09-1.06,0.18
		c-0.28,0.09-0.78,0.28-0.97,0.51c-0.14,0.18-0.05,0.46-0.05,0.69v10.88c0,0.23-0.09,0.69,0,0.88c0.05,0.09,0.23,0.18,0.37,0.23
		c0.32,0.18,0.74,0.37,1.06,0.55c0.05,0.05,0.14,0.05,0.14,0.09c0.05,0.05,0.05,0.46,0,0.51c-0.05,0.05-0.09,0.05-0.18,0.05
		c-0.51,0.05-1.06,0-1.57,0h-6.64c-0.05,0-0.28,0.05-0.32,0c-0.05-0.05,0-0.51,0.05-0.6c0.14-0.18,0.65-0.37,0.83-0.46
		C191.91,49.37,192.14,49.23,192.37,49.09z M214.28,42.73c0.09,2.03,0.74,4.29,2.58,5.4c0.97,0.55,2.17,0.74,3.27,0.65
		c1.34-0.14,2.44-0.78,3.6-1.38c0,0.18,0.05,0.51,0,0.69c-0.09,0.18-0.32,0.42-0.46,0.55c-0.18,0.18-0.42,0.42-0.65,0.6
		c-0.78,0.65-1.66,1.11-2.58,1.43c-1.75,0.6-3.78,0.55-5.58,0.09c-1.43-0.37-2.72-1.06-3.69-2.17c-0.97-1.11-1.52-2.54-1.75-4.01
		c-0.51-3.18,0.09-6.83,2.72-8.95c2.31-1.84,6-2.21,8.72-1.11c3.32,1.34,3.87,5.12,3.87,8.25h-8.81
		C215.11,42.73,214.69,42.73,214.28,42.73L214.28,42.73z M214.19,41.94c0.92-0.05,1.84-0.09,2.81-0.18
		c0.55-0.05,1.15-0.05,1.71-0.09c0.09,0,0.32,0,0.42-0.05c0.14-0.09,0.05-1.01,0.05-1.2c-0.05-1.66-0.09-3.69-1.06-5.12
		c-0.69-1.01-1.75-0.83-2.4,0.09C214.37,37.19,214.19,39.87,214.19,41.94z M144.36,58.78c0-2.58,0.51-5.26,1.94-7.42
		c1.38-2.12,3.6-3.5,6-4.2c2.91-0.83,6.13-0.74,9.13-0.18c0.65,0.14,1.29,0.28,1.89,0.46c0.09,0.05,0.51,0.14,0.55,0.23v0.14
		c0.14,0.55,0.05,1.25,0.05,1.8c0.05,1.43,0.05,2.91,0.09,4.34c-0.18,0-0.51,0.05-0.65,0c-0.09-0.05-0.18-0.28-0.23-0.37
		c-0.37-0.55-0.74-1.11-1.06-1.71c-0.78-1.25-1.61-2.49-2.4-3.74c-0.42-0.69-1.57-0.69-2.31-0.69c-0.83,0-1.66,0.14-2.35,0.55
		c-1.57,0.97-2.31,2.86-2.72,4.57c-0.65,2.72-0.6,5.58-0.46,8.35c0.14,2.12,0.32,4.38,1.15,6.32c0.51,1.2,1.38,2.26,2.72,2.54
		c0.42,0.09,0.83,0.09,1.29,0.05c0.28-0.05,1.25-0.09,1.38-0.37c0.05-0.09,0-0.32,0-0.42v-0.78v-4.89v-1.89
		c0-0.32,0.09-0.46-0.18-0.65c-0.32-0.18-0.69-0.37-1.01-0.6c-0.23-0.14-0.69-0.28-0.83-0.46c-0.09-0.09-0.14-0.6-0.05-0.69
		c0.05-0.09,0.05-0.05,0.18-0.05c0.42-0.09,0.97,0,1.38,0h7.15c0.46,0,0.97-0.05,1.43,0h0.18c0.05,0.05,0.05,0.69,0,0.78
		c-0.09,0.14-0.55,0.32-0.74,0.42c-0.32,0.18-0.69,0.37-1.01,0.6c-0.37,0.18-0.32,0.18-0.32,0.6v7.52c0,0.09,0.05,0.32,0,0.42
		c-0.09,0.23-1.06,0.37-1.34,0.46c-0.78,0.23-1.61,0.42-2.44,0.55c-1.61,0.28-3.23,0.37-4.84,0.32c-2.58-0.09-5.3-0.65-7.42-2.21
		c-1.84-1.34-3.04-3.37-3.6-5.58C144.5,61.59,144.36,60.16,144.36,58.78z M165.62,54.58c0-0.09-0.05-0.46,0-0.51
		c0.05-0.05,0.09,0,0.14-0.05c0.28-0.14,0.65-0.14,0.97-0.18c1.06-0.18,2.12-0.37,3.23-0.55c0.83-0.14,1.66-0.32,2.44-0.42
		c0.23-0.05,0.51-0.05,0.74,0.05c0.23,0.05,0.14,0,0.18,0.18c0.09,0.55,0,1.2,0,1.75v9.64c0,1.15-0.32,3.27,0.78,3.97
		c0.55,0.37,1.34,0.37,1.98,0.23c0.51-0.09,1.48-0.46,1.66-1.01c0.05-0.14,0-0.32,0-0.46v-0.97v-6.41v-2.95v-0.97
		c0-0.09,0.05-0.37,0-0.46c-0.14-0.14-0.6-0.28-0.74-0.32c-0.28-0.09-0.51-0.23-0.78-0.32c-0.09-0.05-0.42-0.09-0.46-0.18
		c-0.05-0.05-0.05-0.46,0-0.51s0.05,0,0.09-0.05c0.23-0.14,0.65-0.09,0.88-0.14c1.89-0.32,3.83-0.74,5.76-1.01
		c0.23-0.05,0.46-0.05,0.69,0s0.14-0.05,0.18,0.18c0.09,0.46,0,1.11,0,1.61V68c0,0.14-0.05,0.37,0,0.55c0.05,0.14,0,0.09,0.23,0.18
		c0.46,0.18,0.97,0.42,1.43,0.6c0.14,0.05,0.18,0.05,0.23,0.14c0.05,0.09,0.05,0.42,0,0.42c-0.09,0.09-0.55,0.05-0.65,0.09
		c-1.01,0.14-2.03,0.23-3.09,0.37c-0.92,0.09-1.84,0.23-2.72,0.32c-0.18,0.05-0.37,0.05-0.55,0c-0.09,0-0.37,0-0.42-0.05
		c-0.05-0.09,0-0.46,0-0.55v-0.78c0-0.14,0.09-0.51,0-0.65c-0.09-0.14-0.28,0.05-0.42,0.14c-0.37,0.32-0.78,0.65-1.2,0.88
		c-1.52,0.92-3.41,1.34-5.17,0.97c-1.29-0.28-2.4-1.01-2.95-2.26c-0.42-0.88-0.51-1.84-0.51-2.77v-5.49v-3.14v-1.06
		c0-0.09,0.05-0.37,0-0.46c-0.09-0.14-0.65-0.28-0.78-0.37C166.36,54.9,165.99,54.76,165.62,54.58z M209.11,52.83
		c0.09,0,0.51,0,0.55,0.09c0.05,0.05,0,0.37,0,0.42v4.06c0,0.14-0.05,0.37,0,0.51v0.09c0.18,0.18,0.23-0.42,0.28-0.46
		c0.42-1.71,1.2-3.69,2.95-4.38c0.32-0.14,0.65-0.18,0.97-0.23c0.28,0,1.06-0.09,1.2,0.14c0.05,0.09,0,0.32,0,0.42v4.7
		c-1.11-0.23-2.35-0.18-3.41,0.05c-0.51,0.09-0.97,0.23-1.43,0.46c-0.23,0.09-0.28,0.05-0.32,0.23c-0.05,0.18,0,0.51,0,0.69v8.9
		c0,0.09-0.05,0.23,0,0.32c0.09,0.14,0.42,0.23,0.55,0.28c0.23,0.14,0.51,0.28,0.74,0.42c0.09,0.05,0.23,0.09,0.28,0.18
		c0.05,0.05,0.05,0.6,0,0.65c-0.05,0.05-0.32,0-0.42,0h-7.66c-0.23,0-0.65,0.09-0.83,0h-0.14c-0.05-0.05,0-0.55,0-0.6
		c0.09-0.28,0.69-0.46,0.97-0.6c0.18-0.09,0.55-0.23,0.65-0.42c0.05-0.09,0-0.37,0-0.46v-0.97V55.46c0-0.05,0.05-0.28,0-0.32
		c-0.05-0.05-0.28-0.09-0.37-0.09c-0.28-0.09-0.55-0.18-0.83-0.23c-0.28-0.09-0.97-0.14-0.74-0.6c0.05-0.14,0.23-0.09,0.42-0.14
		c2.03-0.37,4.01-0.74,6.04-1.11C208.74,52.87,208.93,52.87,209.11,52.83L209.11,52.83z M226.5,53.24v-3.69v-1.06
		c0-0.14,0.05-0.42,0-0.55c-0.05-0.09-0.23-0.14-0.37-0.18c-0.37-0.14-0.74-0.28-1.15-0.42c-0.28-0.09-0.42-0.05-0.42-0.37
		c0-0.28-0.05-0.18,0.18-0.23c0.51-0.18,1.11-0.18,1.61-0.28c1.52-0.28,3-0.55,4.52-0.83c0.32-0.05,0.65-0.14,0.97-0.09
		c0.37,0.05,0.42-0.05,0.42,0.28c0.05,0.74,0,1.52,0,2.26v20.2c0,0.18-0.05,0.18,0.09,0.28c0.28,0.18,0.74,0.28,1.01,0.37
		c0.18,0.05,0.69,0.14,0.78,0.28c0.05,0.05,0.05,0.55,0,0.6c-0.05,0.05-0.32,0.05-0.37,0.05c-0.65,0.09-1.25,0.18-1.89,0.23
		c-1.43,0.18-2.86,0.37-4.34,0.55c-0.23,0.05-0.78,0.14-0.88-0.05c-0.09-0.18,0-0.78,0-0.97c0-0.14,0.09-0.74,0-0.83
		c-0.09-0.09-1.11,0.83-1.25,0.92c-0.55,0.37-1.15,0.65-1.8,0.83c-1.01,0.28-2.17,0.28-3.18,0.05c-4.43-1.01-5.35-6.27-4.98-10.1
		c0.18-2.03,0.83-4.06,2.21-5.53c1.29-1.34,3.04-2.03,4.84-2.17C223.92,52.64,225.25,52.74,226.5,53.24L226.5,53.24z M226.5,67.95
		V56.61v-2.12c0-0.28-0.05-0.32-0.37-0.51c-0.65-0.37-1.48-0.51-2.17-0.23c-1.06,0.42-1.57,1.66-1.84,2.67
		c-0.55,1.84-0.6,3.83-0.55,5.76c0.05,1.66,0.09,3.69,1.01,5.17C223.41,68.65,225.3,68.97,226.5,67.95z M241.76,52.83
		c0.23,0.05,0.51-0.05,0.6,0.18c0.05,0.14,0,0.46,0,0.6v14.43c0,0.18-0.05,0.46,0,0.65c0.05,0.18,0.23,0.23,0.42,0.32
		c0.28,0.14,0.51,0.28,0.78,0.42c0.09,0.05,0.37,0.14,0.42,0.28c0,0.05,0.05,0.6,0,0.65h-0.14c-0.28,0.05-0.65,0-0.97,0h-7.01
		c-0.18,0-0.69,0.09-0.83,0c-0.09-0.05-0.14-0.6-0.05-0.69c0.09-0.14,0.42-0.23,0.55-0.28c0.28-0.14,0.55-0.32,0.83-0.46
		c0.23-0.14,0.18-0.09,0.18-0.28c0.09-0.69,0-1.48,0-2.17v-3.64v-6.64c0-0.18,0.05-0.51,0-0.69c-0.05-0.18-0.28-0.18-0.46-0.28
		c-0.32-0.14-0.6-0.23-0.92-0.37c-0.09-0.05-0.46-0.09-0.55-0.23c-0.05-0.05-0.05-0.51,0-0.55c0.05-0.05,0.14,0,0.18-0.05
		c0.37-0.14,0.78-0.14,1.2-0.23c0.6-0.09,1.15-0.23,1.75-0.32c1.15-0.18,2.26-0.42,3.41-0.6C241.4,52.92,241.58,52.87,241.76,52.83
		L241.76,52.83z M242.41,48.54c-0.09,2.77-3.83,3.97-5.53,1.8c-0.78-1.01-0.83-2.4-0.14-3.46s2.03-1.52,3.27-1.25
		C241.4,45.91,242.41,47.11,242.41,48.54z M262.61,68.78V57.67v-2.12c0-0.05,0.05-0.28,0-0.32c-0.05-0.09-0.32-0.14-0.42-0.14
		l-0.83-0.28c-0.14-0.05-0.51-0.09-0.6-0.23c-0.09-0.09-0.05-0.32-0.05-0.46c0-0.28,0.09-0.23,0.37-0.28l3.04-0.55l3.04-0.55
		c0.18-0.05,0.32-0.09,0.51-0.09c0.09,0,0.55,0,0.65,0.05c0.05,0.05,0,0.32,0,0.42v0.88c0,0.14-0.09,0.55,0,0.69
		c0.09,0.18,0.28,0,0.42-0.14c0.42-0.32,0.83-0.6,1.29-0.83c1.66-0.92,3.64-1.34,5.53-1.06c1.29,0.18,2.35,0.88,2.81,2.12
		c0.32,0.88,0.37,1.8,0.37,2.72V68c0,0.18-0.05,0.51,0,0.69s0.18,0.23,0.42,0.32c0.23,0.14,0.51,0.28,0.74,0.42
		c0.09,0.05,0.42,0.14,0.46,0.28c0.05,0.09,0.05,0.55,0,0.6c-0.05,0.09,0.05,0-0.09,0.05c-0.18,0.09-0.6,0-0.83,0h-6.59
		c-0.28,0-1.34,0.14-1.48-0.05c-0.05-0.05-0.05-0.55,0-0.65c0.05-0.09,0.32-0.18,0.42-0.23c0.28-0.14,0.51-0.28,0.78-0.42
		c0.09-0.05,0.37-0.14,0.42-0.23s0-0.28,0-0.37V67.4v-3.23v-6.23c0-0.74,0.05-1.57-0.42-2.21c-0.37-0.55-1.01-0.69-1.66-0.74
		c-0.51,0-0.97,0.05-1.43,0.18c-0.23,0.09-0.92,0.28-1.06,0.55c-0.05,0.09,0,0.28,0,0.37v11.94c0,0.14-0.05,0.46,0,0.6
		c0.05,0.18,0.32,0.23,0.46,0.32c0.23,0.14,0.51,0.28,0.74,0.42c0.09,0.05,0.28,0.14,0.32,0.18c0.05,0.05,0.05,0.6,0,0.65
		c0,0.05-0.05,0-0.09,0c-0.18,0.09-0.65,0-0.83,0h-7.75c-0.23,0-0.28,0.05-0.32-0.09c-0.05-0.09-0.05-0.51,0-0.6
		c0.05-0.09,0.32-0.18,0.42-0.23C261.83,69.25,262.19,69.02,262.61,68.78z M252.83,60.3c0-1.2,0.05-2.44-0.05-3.69
		c-0.14-1.34-0.51-2.81-2.03-3.09c-0.46-0.09-1.29-0.23-1.61,0.14c-0.32,0.32-0.55,0.78-0.83,1.15l-2.35,3.18
		c-0.14,0.18-0.28,0.55-0.46,0.65c-0.05,0.05-0.51,0.05-0.51,0c-0.05-0.05,0-0.37,0-0.46v-3.74c0-0.14-0.05-0.37,0-0.51
		c0.09-0.23,1.11-0.37,1.34-0.46c1.29-0.32,2.63-0.55,3.97-0.65c1.89-0.14,4.01-0.09,5.76,0.74c1.38,0.65,2.26,1.8,2.49,3.27
		c0.14,0.74,0.09,1.57,0.09,2.31v9.22c0,0.14-0.09,0.51,0,0.6c0.05,0.05,0.28,0.09,0.32,0.09c0.37,0.09,0.69,0.18,1.06,0.28
		c0.23,0.05,0.28,0.05,0.28,0.28c0,0.23,0.05,0.23-0.23,0.32c-0.32,0.14-0.65,0.28-0.97,0.37c-1.71,0.51-4.38,0.65-5.63-0.92
		c-0.09-0.14-0.37-0.74-0.51-0.78c-0.18-0.05-0.74,0.69-0.92,0.83c-0.74,0.65-1.71,1.01-2.67,1.15c-1.8,0.23-3.74-0.14-4.84-1.71
		c-0.92-1.34-1.11-3.41-0.42-4.89c1.25-2.81,4.93-3.09,7.61-3.55C252.05,60.44,252.42,60.35,252.83,60.3L252.83,60.3z M252.83,67.95
		v-6.83c-1.38,0.09-2.81,0.18-3.32,1.71c-0.37,1.01-0.37,2.21-0.23,3.27c0.09,0.74,0.28,1.66,0.97,2.12
		C250.99,68.74,252.23,68.65,252.83,67.95L252.83,67.95z M194.45,60.3c0-1.2,0.05-2.44-0.05-3.69c-0.14-1.34-0.51-2.81-2.03-3.09
		c-0.46-0.09-1.29-0.23-1.61,0.14c-0.32,0.32-0.55,0.78-0.83,1.15l-2.35,3.18c-0.14,0.18-0.28,0.55-0.46,0.65
		c-0.05,0.05-0.51,0.05-0.51,0c-0.05-0.05,0-0.37,0-0.46v-3.69c0-0.14-0.05-0.37,0-0.51c0.09-0.23,1.06-0.37,1.34-0.46
		c1.29-0.32,2.63-0.55,3.92-0.65c1.89-0.14,4.01-0.09,5.76,0.74c1.38,0.65,2.26,1.8,2.49,3.27c0.14,0.74,0.09,1.57,0.09,2.31v9.22
		c0,0.14-0.09,0.51,0,0.6c0.05,0.05,0.28,0.09,0.32,0.09c0.37,0.09,0.69,0.18,1.06,0.28c0.23,0.05,0.28,0.05,0.28,0.28
		c0,0.23,0.05,0.23-0.23,0.32c-0.32,0.14-0.65,0.28-0.97,0.37c-1.71,0.51-4.38,0.65-5.63-0.92c-0.09-0.14-0.37-0.74-0.51-0.78
		c-0.18-0.05-0.74,0.69-0.88,0.83c-0.74,0.65-1.71,1.01-2.67,1.15c-1.8,0.23-3.74-0.14-4.84-1.71c-0.92-1.34-1.11-3.41-0.42-4.89
		c1.25-2.81,4.93-3.09,7.56-3.55C193.66,60.44,194.03,60.35,194.45,60.3z M194.45,67.95v-6.83c-1.38,0.09-2.81,0.18-3.32,1.71
		c-0.37,1.01-0.37,2.21-0.23,3.27c0.09,0.74,0.28,1.66,0.97,2.12C192.6,68.74,193.85,68.65,194.45,67.95z"/>
	<g transform="translate(0.000000,420.000000) scale(0.100000,-0.100000)">
		<path d="M9291.18,3902.42c0.75-112.17,1.2-126.55,3.29-129.54c1.35-1.8,3.29-3.44,4.34-3.44c0.9,0,1.8-0.75,1.8-1.5
			c0-0.9,1.65-2.25,3.74-3s3.74-2.1,3.74-3c0-0.75,1.05-1.5,2.25-1.5c1.2,0,2.25-0.6,2.25-1.2c0-0.75,5.24-5.39,11.68-10.48
			c13.33-10.63,18.87-15.13,28.46-23.81c3.89-3.59,7.94-6.44,8.99-6.44c1.35,0,1.8,27.71,1.8,133.29
			c0,117.41-0.3,133.29-2.25,133.29c-1.2,0-2.25,0.75-2.25,1.5c0,0.9-0.6,1.5-1.5,1.5c-1.5,0-5.54,3-10.78,7.94
			c-1.5,1.35-2.7,2.1-2.7,1.5c0-0.45-1.5,0.45-3.44,2.25c-1.95,1.8-3.89,3-4.34,2.55c-0.45-0.45-2.84,1.2-5.39,3.59
			c-2.4,2.4-4.79,4.04-5.24,3.74c-0.3-0.3-1.5,0.3-2.55,1.65c-1.05,1.2-2.85,2.25-3.89,2.25c-1.2,0-2.1,0.75-2.1,1.5
			c0,0.9-1.05,1.5-2.1,1.5c-1.2,0-4.04,1.65-6.29,3.74c-2.1,1.95-4.49,3.44-5.09,3c-0.6-0.45-2.84,0.6-4.94,2.25
			c-2.1,1.65-4.79,3-6.14,3C9290.43,4028.52,9290.28,4016.98,9291.18,3902.42z"/>
		<path d="M9366.51,3839.81v-122.96l5.69,1.2c3,0.6,7.19,0.9,9.29,0.9l3.74-0.3l-0.3,93.15c-0.3,83.27-0.6,94.05-2.84,102.14
			c-1.5,4.94-2.85,9.44-3,10.18c-0.15,0.6-0.45,1.5-0.6,2.25c-0.15,0.6-0.45,1.8-0.6,2.55c-0.15,0.9-1.2,4.49-2.25,8.24
			c-1.05,3.74-2.25,7.79-2.4,8.99c-0.3,1.2-0.6,2.55-0.75,3c-0.15,0.45-0.45,1.5-0.6,2.25c-0.9,5.99-2.84,11.23-4.04,11.23
			C9367.11,3962.62,9366.51,3913.65,9366.51,3839.81z"/>
		<path d="M9421.17,3764.78c0.75-104.08,1.35-216.71,1.35-250.4c0.15-33.55,0.6-60.95,1.05-60.95c0.9,0,5.09-3.44,14.53-11.98
			c2.7-2.55,5.54-4.49,6.29-4.49s2.1-1.35,3-3c0.9-1.65,2.25-3,3.15-3c0.75,0,2.25-0.75,3.29-1.5c1.05-0.9,3.89-3.29,6.29-5.39
			c2.55-2.1,6.29-4.79,8.69-6.29c2.25-1.35,4.04-3,4.04-3.59s0.9-1.2,1.95-1.2c1.05,0,3.29-1.2,4.94-2.7
			c1.5-1.5,3.89-3.15,5.09-3.74c1.2-0.6,3.59-2.1,5.39-3.29l3.15-2.25l0.9,42.83c0.6,23.66,1.05,132.84,1.05,242.62v199.63
			l-12.13,12.73c-6.74,7.04-12.58,12.88-13.18,12.88c-0.9,0-20.37,17.97-36.84,34.15c-3.29,3.29-7.64,6.44-9.58,7.04l-3.59,1.05
			L9421.17,3764.78z"/>
		<path d="M9415.78,3914.4c-0.15-0.3-0.45-2.1-0.6-4.19c-0.6-4.64-1.65-11.23-3.74-22.16c-2.55-13.78-1.95-352.24,0.6-366.02
			c1.95-10.93,2.1-11.83,2.85-19.47c0.15-2.1,0.75-4.49,1.5-5.09c0.6-0.6,1.05,93,1.05,208.02c0,115.17-0.3,209.22-0.75,209.22
			S9415.78,3914.55,9415.78,3914.4z"/>
		<path d="M9517.32,3827.53c0.3-28.31,0.6-85.51,0.75-127.3c0.45-77.28,0.9-82.22,5.84-77.13c1.95,1.8,13.78,8.84,24.56,14.23
			c2.55,1.35,5.39,3.29,6.44,4.34c1.05,1.05,2.84,1.95,3.89,1.95c1.2,0,2.85,1.05,3.89,2.25c1.05,1.2,3.15,2.25,4.64,2.25
			c1.65,0,2.85,0.6,2.85,1.35s2.25,2.1,4.94,3.29c2.55,1.05,5.09,2.25,5.54,2.7c0.9,1.05,5.84,3.89,13.48,7.94
			c2.85,1.5,7.94,4.49,11.23,6.44s8.54,4.64,11.53,5.99c4.64,2.1,5.99,3.74,7.19,8.84c0.9,3.29,2.4,8.39,3.14,10.93
			c0.9,2.7,1.2,5.54,0.75,6.29c-0.6,0.75-0.3,1.8,0.45,2.25c0.6,0.45,1.35,2.4,1.35,4.19c0,1.95,1.05,7.64,2.4,12.88
			c1.35,5.09,2.1,10.03,1.65,10.78c-0.45,0.9-0.15,1.5,0.6,1.5c0.9,0,1.5,1.5,1.5,3.44c-0.15,1.8,0.9,7.64,2.1,12.88l2.4,9.58
			l-17.52,16.62c-9.58,9.14-36.99,35.94-60.65,59.76c-23.66,23.66-43.58,42.98-44.18,42.98
			C9517.47,3878.75,9517.17,3855.69,9517.32,3827.53z M9567.04,3776.32c3.59-3.44,9.43-8.99,12.88-12.43
			c3.44-3.59,6.89-6.44,7.64-6.44c0.75,0,2.4-1.2,3.74-2.7c1.8-2.1,2.1-5.84,1.65-18.57c-0.6-15.73-0.6-16.02-4.79-17.67
			c-2.25-0.9-5.39-1.95-6.89-2.25c-1.65-0.3-2.84-0.6-2.84-0.75c0-0.15-1.35-0.45-3-0.75c-1.65-0.15-6.29-1.5-10.33-2.85
			c-14.53-5.24-13.48-6.59-12.43,16.62c0.6,11.23,1.05,29.2,1.05,39.84v19.47l3.44-2.7
			C9558.95,3783.5,9563.45,3779.61,9567.04,3776.32z"/>
		<path d="M9557.46,3773.62c-0.9-0.9-1.35-6.89-1.05-13.48l0.6-11.83l5.99,0.9c3.44,0.6,9.43,1.35,13.48,1.5
			c4.04,0.15,7.64,0.75,8.09,1.2c0.9,0.9-6.74,10.03-8.39,10.03c-0.6,0-4.19,3-7.79,6.74
			C9561.35,3775.72,9560,3776.32,9557.46,3773.62z"/>
		<path d="M9574.08,3747.11c-0.45-0.6-2.7-0.9-4.94-0.6c-2.25,0.45-5.99,0-8.24-0.9c-4.19-1.5-4.19-1.65-4.19-15.58
			c0-7.79,0.3-14.38,0.9-14.83c0.45-0.45,5.39,0.3,11.23,1.8c10.63,2.85,11.08,2.85,13.03,3.15c0.6,0.15,1.8,0.3,2.55,0.6
			c0.9,0.15,2.4,0.45,3.29,0.45c1.2,0.15,1.95,2.25,1.8,5.24c-0.15,2.55,0.3,8.54,0.9,13.18l1.2,8.39l-8.54,0.15
			C9578.42,3748.16,9574.38,3747.71,9574.08,3747.11z"/>
		<path d="M9509.53,3870.67c-0.9-1.05-4.04-5.84-7.04-10.48l-5.69-8.39v-109.33c0-96.15,0.3-109.33,2.25-109.33
			c1.2,0,2.25-0.6,2.25-1.5c0-0.75,0.75-1.5,1.5-1.5c0.9,0,3.15-1.65,5.09-3.74c1.95-2.1,4.19-3.74,5.24-3.74
			c1.2,0,1.65,32.8,1.65,125.05C9514.77,3875.31,9514.62,3877.7,9509.53,3870.67z"/>
		<path d="M9193.38,3821.69c-0.45-0.9-1.35-20.37-1.8-43.13l-0.75-41.63l5.39-3.15c2.84-1.95,5.69-4.34,6.14-5.69
			c0.45-1.2,1.5-1.95,2.25-1.35c0.9,0.45,2.25-0.6,3.15-2.25s2.4-3,3.44-3c1.05,0,2.7-1.35,3.74-3c1.05-1.65,2.4-3,3-3
			c1.35,0,10.93-7.94,19.47-16.02c2.84-2.7,5.39-4.94,5.84-4.94c0.9,0,5.69-4.49,14.83-13.78c3.14-3.15,6.29-5.69,7.04-5.69
			s4.49-3.15,8.39-7.04c3.89-4.04,10.48-10.18,14.68-13.93c8.99-7.94,39.24-36.24,51.37-47.92c4.64-4.49,11.23-10.33,14.53-13.03
			l5.99-4.79l0.9,22.61c0.6,12.43,1.05,36.54,0.9,53.47v30.85l-10.63,8.99c-16.77,14.08-20.82,17.67-26.21,22.61
			c-2.7,2.7-5.99,5.09-7.19,5.69c-1.2,0.45-2.25,1.35-2.25,2.1s-7.64,7.34-16.77,14.68c-9.29,7.34-18.12,14.68-19.47,16.32
			c-1.5,1.65-2.55,2.4-2.7,1.65c0-0.6-1.35,0.3-3,2.25c-1.5,1.95-2.85,3.15-3,2.55c0-0.6-1.65,0.45-3.59,2.25
			c-7.04,6.59-12.43,10.63-23.36,17.97c-6.14,4.19-11.53,7.64-11.83,7.94c-0.15,0.15,0,1.2,0.6,1.95c0.6,1.2,1.8,0.9,3.29-0.75
			c1.35-1.2,4.19-3.44,6.29-4.79c2.1-1.35,4.49-3.29,5.09-4.34c0.6-1.05,1.8-1.95,2.55-1.95c0.9,0,3.14-1.5,5.39-3.29
			c2.1-1.95,4.04-3.29,4.34-3.15c0.75,0.45,7.19-4.94,11.98-9.58c1.8-1.95,4.04-3.44,4.94-3.44c0.9,0,1.8-0.45,2.1-1.05
			c0.6-1.5,14.08-12.43,15.28-12.43c0.45,0,3.74-3,7.49-6.59c3.74-3.59,7.04-6.29,7.34-5.84c0.3,0.3,1.8-1.2,3.15-3.29
			s3.14-3.44,3.74-3c0.75,0.3,2.4-0.9,3.74-3c1.35-2.1,3.44-3.74,4.64-3.74s2.25-0.6,2.25-1.2c0-0.75,5.24-5.69,11.68-11.08
			c6.29-5.39,14.08-12.28,17.22-15.28c4.79-4.49,6.74-5.39,11.68-5.09c3.14,0.15,5.84,0.75,5.84,1.35s1.2,0.75,2.85,0.3
			c4.79-1.2,4.94,2.25,0.45,7.19c-3.29,3.59-5.69,4.79-9.29,4.64c-3.89-0.15-7.19,1.65-15.13,8.24
			c-5.54,4.64-10.63,9.44-10.93,10.48c-0.45,1.2-1.5,1.8-2.25,1.35s-2.4,0.75-3.74,2.85s-3.44,3.74-4.64,3.74s-2.25,0.6-2.25,1.35
			s-5.54,5.69-12.13,10.93c-6.74,5.09-13.78,11.08-15.73,13.18c-1.95,2.1-3.59,3-3.59,2.25s-1.05,0.15-2.4,1.95
			c-1.2,1.8-3,3-3.74,2.55c-0.75-0.6-1.35,1.8-1.35,5.09c0,5.84-0.45,6.29-12.58,14.98c-11.53,8.09-24.11,15.13-27.56,15.13
			c-0.6,0-4.04,1.35-7.49,3c-3.44,1.65-6.74,2.85-7.34,2.7c-0.6-0.15-3.74,0.9-6.74,2.1c-7.34,3.29-16.17,4.64-16.17,2.55
			s-5.69-0.3-10.33,3.29C9196.38,3823.79,9194.88,3823.94,9193.38,3821.69z"/>
		<path d="M9193.83,3716.11c-0.6-0.6-1.05-48.67-1.05-106.93v-105.73l12.73-17.07c7.04-9.43,14.68-19.47,16.92-22.31
			s7.04-9.29,10.78-14.53c11.23-15.43,23.21-30.4,24.41-30.4c0.6-0.15,1.05,54.21,1.05,120.86l-0.15,120.86l-7.79,6.89
			c-4.34,3.89-10.33,9.14-13.33,11.83c-3.15,2.7-5.69,5.84-5.69,7.04c0,1.35,1.5,0.3,3.89-2.4c2.1-2.55,4.34-4.64,5.09-4.64
			c0.6,0,4.04-2.85,7.64-6.14c3.59-3.44,8.24-7.79,10.33-9.58c2.7-2.55,5.54-3.44,10.18-3.59c3.44,0,6.29,0.45,6.29,1.05
			c-0.15,0.6-4.34,4.79-9.44,9.29s-11.53,10.78-14.53,13.93c-2.85,3-6.14,5.54-7.04,5.54s-3.15,2.1-4.94,4.49
			c-1.8,2.55-4.04,4.49-5.24,4.49c-1.05,0-3,1.65-4.34,3.74s-3.44,3.74-4.64,3.74s-2.25,0.6-2.25,1.2c0,2.85-6.44,7.94-9.14,7.34
			c-1.65-0.45-2.85-0.15-2.85,0.6c0,1.65-7.04,1.8-8.09,0.15c-1.2-1.95,0.6-3.89,11.83-12.88c10.63-8.69,17.22-15.88,14.53-15.88
			c-0.9,0-3,2.1-4.79,4.49c-1.8,2.55-3.74,4.19-4.49,3.74c-0.6-0.45-2.25,0.9-3.59,3s-3.15,3.74-3.89,3.74
			c-0.75,0-4.19,2.7-7.49,5.99c-3.29,3.29-6.74,5.99-7.49,5.99c-0.6,0-1.5,0.75-1.8,1.65
			C9195.18,3716.41,9194.43,3716.71,9193.83,3716.11z"/>
		<path d="M9379.69,3698.29c-0.3-0.45-2.7-0.9-5.09-1.2c-10.03-1.2-9.58,0.75-9.58-37.74c0-38.04,1.2-62.15,3.14-62.15
			c0.75,0,1.35,1.35,1.35,3s0.6,3,1.35,3s2.85,3.15,4.79,7.19c1.8,3.89,3.89,7.34,4.34,7.79c3.14,2.4,3.74,9.29,3.29,43.28
			C9382.98,3695.14,9382.38,3700.98,9379.69,3698.29z"/>
		<path d="M9267.67,3657.1c0-0.9-0.9-1.35-1.8-1.05c-1.5,0.15-2.1-23.96-2.4-116.07c-0.15-74.58,0.15-116.52,1.2-116.52
			c0.75,0,2.25,1.5,3.14,3.44c1.05,1.8,2.25,3.59,2.7,4.04c0.6,0.45,2.7,3.15,4.64,5.99c1.8,2.85,4.19,5.99,5.09,6.74
			c0.9,0.9,2.4,2.7,3.14,3.89c6.59,10.63,13.33,20.22,14.38,20.52c0.75,0.3,1.35,1.5,1.35,2.7s0.75,2.1,1.65,2.1
			c0.75,0,1.05,0.75,0.6,1.5c-0.45,0.9-0.3,1.5,0.3,1.5c0.75,0,3.29,3.29,5.69,7.49c2.55,4.04,4.94,7.49,5.69,7.49
			c0.6,0,1.05,30.1,1.05,67.09v66.94l-17.37,16.62c-15.72,14.98-17.82,16.62-23.21,16.77
			C9270.36,3658.45,9267.67,3657.85,9267.67,3657.1z"/>
	</g>
	<g transform="translate(0.000000,693.000000) scale(0.100000,-0.100000)">
		<path d="M7397.21,6626.32c-5.31-1.36-10.32-4.25-13.74-7.85c-4.19-4.42-6.08-7.79-7.55-13.51c-1.12-4.42-1.18-6.19-1-27.07
			l0.18-22.36l2.24-4.48c4.13-8.44,13.45-15.45,27.96-21.18c9.79-3.89,13.92-6.08,16.34-8.79c2.36-2.65,4.31-7.49,5.07-12.86
			c0.35-2.42,0.59-50.79,0.59-126.17c0-83.35,0.18-123.63,0.65-126.7c2.18-15.93,11.27-27.02,25.6-31.32
			c5.49-1.65,16.93-1.53,22.71,0.29c9.5,2.89,16.4,8.73,20.59,17.22c4.9,10.03,4.42-3.54,4.78,139.44
			c0.29,119.09,0.41,127.64,1.36,131.24c2.48,9.02,5.72,11.86,19.41,16.99c15.81,5.96,25.89,13.27,29.85,21.77l1.59,3.42l0.18,23.12
			c0.12,19.23,0,23.77-0.77,27.07c-2.54,10.91-10.74,19.17-21.59,21.77C7526.09,6627.68,7402.16,6627.62,7397.21,6626.32z
			 M7528.8,6611.58c4.36-1.3,8.32-5.25,9.61-9.61c1.42-4.78,1.42-41.64,0-44.65c-2.18-4.6-9.26-9.2-21.35-13.92
			c-10.26-4.01-15.1-6.67-19.41-10.74c-5.72-5.31-8.79-12.45-10.2-23.59c-0.35-3.07-0.59-48.07-0.59-126.29
			c0-79.75-0.24-122.81-0.59-125.22c-0.94-5.66-2.71-9.79-5.72-13.09c-3.3-3.66-7.02-5.66-12.21-6.49
			c-9.67-1.53-18.64,2.54-22.59,10.32c-3.3,6.37-3.13-0.53-3.13,128c0,75.68-0.24,122.04-0.59,127.11
			c-0.77,9.79-2.24,16.4-5.01,21.82c-3.89,7.73-9.79,12.09-23.89,17.7c-12.86,5.13-19.88,9.79-22.41,14.98
			c-1.24,2.6-1.24,3.19-1.06,22.59c0.18,19.52,0.18,20,1.59,23.06c2.01,4.48,5.25,7.08,10.38,8.38c1,0.24,29.26,0.47,62.88,0.53
			C7519.07,6612.52,7525.91,6612.4,7528.8,6611.58z"/>
		<path d="M8070.22,6616.53c-8.73-1.24-20.05-6.19-28.61-12.5c-36.1-26.78-55.09-90.31-55.15-184.68
			c-0.06-65.59,9.67-117.91,28.02-150.76c5.54-10.03,10.62-16.75,18.29-24.42c11.74-11.74,22.47-17.75,36.81-20.64
			c6.67-1.36,18.99-0.94,25.66,0.83c21.53,5.72,40.58,23.18,53.85,49.31c6.25,12.33,10.32,23.53,14.63,40.58l2.54,9.97l0.29-20
			c0.35-24.42,1.47-33.09,6.02-46.54c4.95-14.86,12.56-25.01,22.71-30.26c6.13-3.19,10.56-4.19,19.17-4.19
			c14.51,0,24.07,3.48,34.74,12.62l3.48,2.95l0.88-1.42c2.12-3.36,8.49-8.85,12.68-10.85c8.26-3.95,20.11-4.96,28.73-2.36
			c12.03,3.54,20.88,13.15,24.24,26.13c1.12,4.36,1.18,6.9,1.12,103.52v99.03l1.89-1.59c1.06-0.83,3.3-2.36,5.01-3.36l3.07-1.83
			l0.24-73.79c0.18-80.1,0.06-76.33,3.48-90.95c7.08-30.44,24.36-50.2,49.43-56.51c6.84-1.71,22.36-1.83,28.61-0.18
			c14.86,3.83,25.25,14.04,27.43,27.02c1.47,8.61-0.29,21.82-3.83,28.84c-3.24,6.31-9.79,11.5-15.93,12.62
			c-6.9,1.24-11.62,6.61-14.27,16.22c-1,3.6-1.06,8.2-1.06,68.66v64.82l3.24,0.77c16.75,4.19,27.43,19.7,26.31,38.28
			c-0.71,11.68-5.31,20.64-13.74,26.66c-4.01,2.83-10.26,5.72-13.86,6.37l-2.24,0.41v29.2c0,33.44-0.12,34.8-4.48,43.65
			c-3.54,7.31-8.38,12.21-15.16,15.45c-6.02,2.89-10.26,3.77-17.81,3.72c-17.87-0.06-30.67-10.15-35.1-27.55
			c-1.12-4.36-1.24-6.43-1.18-28.02c0-12.8-0.18-27.07-0.35-31.62l-0.41-8.38l-1.83-0.88c-2.95-1.36-7.84-5.49-9.91-8.38
			c-1.06-1.42-2.12-2.6-2.3-2.65c-0.18,0-1.18,1.3-2.24,2.89c-4.01,6.25-11.92,11.5-20,13.39c-5.07,1.18-15.22,1.18-19.88-0.06
			c-12.33-3.19-20.7-11.38-25.13-24.77l-1.42-4.13l-0.29-82.87c-0.18-45.6-0.59-83.52-0.83-84.35c-1.24-3.54-2.42-3.77-3.78-0.71
			c-0.94,2.01-1,8.73-1.3,84.47l-0.35,82.28l-1.36,4.42c-2.24,7.49-4.66,11.68-9.5,16.57c-7.2,7.31-14.22,10.03-25.95,10.03
			c-7.67,0-11.86-0.88-17.69-3.72c-4.9-2.36-11.97-9.32-14.45-14.27l-1.71-3.48l-1.65,9.5c-7.08,41.58-21.41,73.61-41.35,92.55
			C8110.51,6612.93,8090.92,6619.48,8070.22,6616.53z M8091.63,6601.02c5.72-1.47,14.92-6.31,20.53-10.79
			c21.88-17.7,36.69-52.32,43.24-100.98c5.84-43.29,5.72-99.62-0.29-141.27c-6.19-43.12-18.58-73.91-37.34-92.61
			c-8.85-8.85-15.75-13.21-25.72-16.28c-6.25-1.95-16.57-1.95-23.18-0.06c-34.39,9.91-57.45,53.79-64.65,123.1
			c-3.95,37.99-3.54,87.65,1.18,124.75c4.95,39.34,15.45,70.31,30.61,90.25c4.72,6.13,13.27,14.1,18.93,17.64
			c5.49,3.36,12.98,6.25,18.34,7.08C8078.07,6602.61,8086.91,6602.2,8091.63,6601.02z M8377.06,6590.52
			c3.66-1.83,7.43-5.49,9.32-9.26c2.71-5.37,2.95-8.2,2.95-42.47c0-31.08,0.06-32.21,1.18-34.09c1.42-2.3,2.59-2.83,8.08-3.66
			c6.78-0.94,10.56-2.65,14.39-6.43c4.42-4.36,5.96-8.38,5.96-15.4c0-5.6-1.3-10.03-4.19-13.98c-3.18-4.36-10.09-7.84-15.69-7.84
			c-3.36,0-6.13-1.95-7.96-5.6l-1.47-2.95v-69.31v-69.31l1.3-4.95c2.65-9.91,8.14-18.11,15.04-22.53c1.71-1.12,5.49-2.77,8.38-3.77
			c4.66-1.53,5.49-2.06,6.96-4.13c2.24-3.24,3.6-8.97,3.6-15.63c0.06-6.78-1.3-10.5-5.19-14.1c-5.31-4.9-11.44-6.78-22.12-6.78
			c-5.84,0-8.38,0.29-12.09,1.36c-19.58,5.49-32.5,23.48-38.46,53.44l-1.65,8.26l-0.29,75.21c-0.29,72.02-0.35,75.26-1.42,77.27
			c-1.71,3.19-2.65,4.01-6.72,5.96c-6.72,3.24-10.15,7.79-11.44,15.22c-1.3,7.67,1.18,16.04,5.96,20.23c1.18,1,4.25,2.83,6.84,4.07
			c2.59,1.18,5.13,2.83,5.6,3.6c0.77,1.12,0.94,6.67,1.18,36.75c0.29,34.56,0.35,35.45,1.59,38.81c2.54,6.67,6.55,10.68,12.74,12.92
			C8364.2,6593.11,8372.63,6592.64,8377.06,6590.52z M8210.6,6501.28c5.6-1.65,9.26-4.66,11.92-9.91c3.24-6.31,3.07-1.65,3.42-91.19
			c0.24-61.58,0.47-83.4,1-84.82c1.89-5.31,6.43-10.5,10.74-12.39c1.18-0.47,3.83-0.88,5.96-0.88c6.9-0.06,12.09,3.54,15.57,10.79
			l1.83,3.83l0.29,83.76l0.29,83.76l1.3,3.48c1.77,4.54,3.24,6.9,6.13,9.5c4.13,3.72,6.96,4.66,14.39,4.66
			c5.84,0.06,6.84-0.12,9.79-1.47c6.08-2.83,10.09-8.32,11.68-15.75c0.47-2.24,0.65-35.04,0.65-115.02
			c0-122.45,0.18-115.2-3.36-121.8c-4.31-7.85-13.74-11.68-23.77-9.61c-7.43,1.59-12.5,6.02-15.1,13.27
			c-0.53,1.47-1.18,3.3-1.47,4.07c-0.77,1.95-3.95,3.66-6.9,3.66c-2.48,0-2.83-0.24-9.79-6.9c-11.68-11.27-17.7-14.04-30.44-14.04
			c-6.78,0-7.67,0.12-10.79,1.59c-10.97,5.19-18.23,19.23-21.35,41.47c-0.77,5.49-0.88,19.88-0.88,104.05
			c0,104.17-0.12,100.27,2.83,106c2.54,5.01,6.49,8.26,12.09,9.97C8200.05,6502.46,8206.83,6502.4,8210.6,6501.28z"/>
		<path d="M8074.76,6537.96c-6.49-2.42-9.38-6.19-12.74-16.52c-7.67-23.48-11.21-61.7-10.5-113.01
			c0.59-44.12,4.13-72.08,11.44-91.25c2.48-6.43,5.37-10.09,9.85-12.39c4.13-2.18,11.09-2.3,15.16-0.29
			c5.84,2.89,8.38,6.61,11.97,17.64c7.14,22.24,10.2,55.92,9.61,105.46c-0.53,41.58-2.95,66.42-8.73,88.18
			c-3.42,12.98-6.19,17.87-11.8,20.94C8085.26,6538.73,8078.48,6539.38,8074.76,6537.96z M8082.67,6521.39
			c2.77-4.78,6.96-24.07,8.79-40.4c2.06-18.82,2.42-26.13,2.77-53.38c0.59-47.84-2.24-79.57-9.02-100.69
			c-3.24-10.09-5.07-11.09-7.79-4.25c-3.19,7.9-6.31,22.71-8.02,38.28c-1.77,15.4-2.18,23.54-2.54,47.78
			c-0.59,40.99,1.71,74.03,6.67,96.2c1.59,7.14,4.54,16.4,5.6,17.75C8080.19,6523.87,8081.49,6523.39,8082.67,6521.39z"/>
		<path d="M7891.32,6519.27c-8.85-1.18-19.46-5.84-27.96-12.45c-5.43-4.13-13.68-13.39-18.46-20.64
			c-7.67-11.62-13.45-23.83-18.58-39.64l-2.48-7.67l-0.41,8.55c-0.77,15.69-3.3,26.19-9.32,37.81
			c-11.5,22.41-30.44,34.27-49.72,31.2c-11.44-1.89-21.18-6.96-32.5-16.99l-4.78-4.25l-2.83,4.13
			c-8.08,11.86-21.65,18.23-34.8,16.52c-8.55-1.18-17.64-5.01-27.43-11.5c-2.71-1.83-5.07-3.3-5.25-3.3
			c-0.18,0.06-1.3,1.42-2.42,3.01c-4.01,5.84-11.33,10.79-18.05,12.39c-1.59,0.35-5.31,0.65-8.26,0.65
			c-16.57-0.06-28.61-8.67-34.27-24.6l-1.65-4.72v-117.67v-117.67l1.59-4.72c4.48-13.15,14.04-21.82,26.6-24.18
			c17.87-3.42,33.98,3.89,40.99,18.58c4.48,9.38,4.25,5.19,4.25,82.99c0,66.89,0.29,79.86,1.83,89.24c0.94,5.54,1.47,6.08,2.24,2.3
			c2.01-9.85,2.06-11.62,2.42-86.94c0.35-74.56,0.35-75.56,1.59-79.92c2.48-8.85,6.13-14.92,11.8-19.64
			c7.55-6.31,19.23-8.85,29.85-6.61c11.21,2.36,19.46,9.32,24.07,20.29c3.54,8.38,3.48,7.49,3.48,85.82
			c0,41.76,0.24,73.73,0.59,77.03c0.77,7.61,1.83,13.57,2.42,13.27c0.41-0.29,1.06-3.66,2.42-12.21c0.47-2.95,0.77-28.08,1-79.51
			l0.35-75.21l1.42-4.13c4.72-14.27,13.74-22.71,27.19-25.42c5.84-1.18,14.27-0.88,19.46,0.71c11.21,3.3,19.46,11.38,23.3,22.83
			c2.24,6.78,2.6,11.15,2.65,32.56l0.06,19.46l2.24-6.49c8.26-24.07,23.12-46.36,38.69-58.04c5.25-3.95,14.57-8.55,20.65-10.2
			c3.95-1.06,6.25-1.24,14.16-1.24c8.14,0,10.2,0.24,15.1,1.53c11.91,3.13,21.06,8.44,29.79,17.16
			c10.79,10.85,18.17,25.13,19.82,38.4c1.59,13.21-3.95,25.66-14.39,32.38c-10.56,6.72-23.3,5.54-33.09-3.01
			c-9.67-8.49-13.74-9.38-17.93-3.83c-2.3,3.07-3.54,6.96-4.31,13.8c-1.06,9.44,1.18,21.71,4.36,23.77
			c1.59,1.06,15.16,2.06,28.08,2.06c10.73,0,15.63,0.88,21.53,3.78c16.52,8.14,24.83,29.14,22.71,57.45
			c-3.54,48.37-18.17,85.76-39.99,102.16c-8.61,6.43-17.34,9.73-28.37,10.62c-3.77,0.29-6.96,0.53-7.14,0.53
			C7895.45,6519.8,7893.5,6519.56,7891.32,6519.27z M7907.66,6503.4c19.76-5.07,34.39-25.48,42.76-59.75
			c5.72-23.36,7.49-49.61,4.25-62.05c-2.65-10.15-7.85-17.16-14.63-19.82c-3.13-1.18-4.84-1.36-19.94-1.77
			c-23.54-0.65-27.72-1.47-32.44-6.19c-2.83-2.89-5.9-9.32-7.2-14.98c-1.53-6.96-1.42-22.89,0.29-29.73
			c3.19-12.68,9.97-20,20.47-21.77c6.96-1.18,14.04,1.3,21.53,7.55c7.79,6.49,11.68,7.9,16.81,5.96c3.54-1.36,7.67-6.02,8.85-9.97
			c4.48-15.16-9.73-39.34-28.31-48.25c-7.14-3.42-12.92-4.72-20.94-4.78c-7.37-0.06-11.86,1-18.29,4.25
			c-14.69,7.43-29.61,27.01-39.23,51.32c-4.19,10.74-8.55,30.61-10.62,48.37c-1.3,11.15-1.77,34.86-0.94,45.71
			c1.89,23.71,6.61,45.18,14.33,64.76c11.21,28.55,27.07,46.48,45.3,51.38C7894.45,6504.87,7902.23,6504.81,7907.66,6503.4z
			 M7635.21,6500.8c3.72-1.71,7.31-5.66,9.91-10.79c1.12-2.18,2.71-4.6,3.54-5.37c3.42-3.19,8.73-2.06,16.75,3.6
			c17.75,12.5,27.31,15.28,36.98,10.74c5.54-2.65,9.14-6.72,13.33-15.34c4.01-8.2,5.54-9.73,9.61-9.73c3.07,0,5.07,1.18,7.61,4.54
			c3.36,4.48,12.68,13.15,17.4,16.28c5.54,3.66,9.67,5.49,15.39,6.61c7.2,1.47,12.8,0.18,19.64-4.42
			c9.08-6.19,16.99-18.76,21.12-33.56l1.53-5.66l0.18-99.68c0.12-69.9-0.06-100.63-0.47-102.75c-1.47-7.02-6.02-13.15-11.62-15.63
			c-10.79-4.78-23.89-0.77-28.73,8.85c-3.36,6.61-3.3,5.84-3.3,80.46c0,40.99-0.24,71.43-0.59,75.68
			c-1.24,14.75-4.07,25.3-8.14,30.61c-3.07,4.01-5.43,5.19-9.91,4.95c-6.61-0.41-10.62-4.48-13.51-13.63
			c-3.54-11.21-3.42-8.49-3.83-92.72c-0.29-55.68-0.59-77.92-1.06-79.69c-1.89-6.67-5.72-12.15-10.15-14.39
			c-5.01-2.54-12.33-2.71-17.87-0.35c-2.83,1.18-6.72,4.84-8.2,7.61c-3.3,6.55-3.07,0.88-3.48,80.93
			c-0.29,63.47-0.47,74.73-1.3,81.1c-2.18,16.87-6.25,26.66-12.33,29.85c-2.01,1.06-7.02,1.06-9.5,0
			c-4.31-1.77-8.14-7.67-10.15-15.4c-2.89-11.56-2.83-10.32-3.24-91.72c-0.35-84.94-0.06-79.1-4.31-85.35
			c-4.01-5.78-9.91-8.67-17.81-8.67c-10.15,0-16.87,4.72-20.53,14.27l-1.3,3.36l-0.18,112.84c-0.18,121.98-0.29,116.67,2.89,122.98
			c1.47,2.95,5.43,7.2,7.9,8.49C7622.94,6502.57,7630.43,6503.04,7635.21,6500.8z"/>
		<path d="M7893.56,6452.73c-10.03-2.48-14.81-11.62-14.33-27.49c0.18-6.84,0.41-8.02,1.83-11.21c1.89-4.07,4.42-6.96,7.79-8.73
			c1.83-1,3.42-1.3,7.08-1.3c4.13,0,5.13,0.24,7.84,1.71c6.31,3.48,9.2,10.26,9.2,21.29c0,7.08-0.77,11.32-3.01,16.04
			c-1.89,4.07-6.43,8.14-10.38,9.32C7896.33,6453.32,7896.16,6453.32,7893.56,6452.73z M7897.34,6435.51
			c0.71-2.01,0.88-13.92,0.29-15.51c-0.18-0.53-1-0.94-1.77-0.94c-1.12,0-1.42,0.41-1.77,2.06c-0.65,3.42,0,14.16,0.88,15.28
			C7896.1,6437.75,7896.63,6437.57,7897.34,6435.51z"/>
		<path d="M7542.01,6516.91c-5.6-0.53-8.67-1.42-13.57-3.95c-8.49-4.37-14.69-12.74-17.4-23.42c-1.18-4.66-1.18-6.25-1.18-119.44
			c0-127.7-0.29-118.74,4.13-127.94c1.83-3.78,3.36-5.96,6.67-9.2c6.61-6.61,13.27-9.5,23.42-10.15
			c18.52-1.12,32.85,8.85,38.16,26.66c1,3.36,1.06,9.91,1.24,118.56c0.18,129.41,0.47,119.92-4.31,129.88
			C7572.51,6511.72,7559.24,6518.5,7542.01,6516.91z M7556.52,6500.21c5.9-2.77,9.91-8.26,11.5-15.63
			c1.24-5.96,1.24-223.14-0.06-229.15c-2.48-11.56-10.15-17.81-21.82-17.64c-10.91,0.12-18.11,6.02-20.64,16.87
			c-0.77,3.42-0.88,17.11-0.77,117.03l0.18,113.13l1.3,3.36c2.48,6.67,6.55,10.73,12.74,12.98
			C7543.55,6502.81,7552.04,6502.4,7556.52,6500.21z"/>
	</g>
	<path id="FT-Pink" d="M84.29,66.28H33.44V15.43h50.85V66.28L84.29,66.28z"/>
	<path id="FT" class="st1" d="M46.44,41.97c0,2.4,0.64,2.67,3.38,2.77v0.88H38.94v-0.88c2.26-0.1,2.9-0.37,2.9-2.77V26.3
		c0-2.4-0.64-2.67-2.84-2.77v-0.88H58.2l0.14,5.06h-0.95c-0.81-2.57-1.69-3.38-6.18-3.38h-3.48c-1.04,0-1.28,0.24-1.28,1.18v7.26
		h1.71c3.58,0,4.36-0.65,4.8-3.04h0.88v8.11h-0.88c-0.47-2.7-1.82-3.38-4.8-3.38h-1.71L46.44,41.97L46.44,41.97z M79.92,22.65H59.79
		l-0.47,5.07h1.15c0.74-2.48,1.82-3.38,4.24-3.38h2.84v17.63c0,2.4-0.64,2.67-3.24,2.77v0.88h11.08v-0.88
		c-2.6-0.1-3.24-0.37-3.24-2.77V24.34h2.84c2.42,0,3.51,0.9,4.24,3.38h1.15L79.92,22.65z"/>
	<path id="FinancialTimes" d="M35.27,74.81c0,0.61,0.17,0.68,0.86,0.71v0.22h-2.78v-0.22c0.58-0.03,0.74-0.1,0.74-0.71V70.8
		c0-0.62-0.17-0.68-0.73-0.71v-0.22h4.92l0.03,1.3h-0.24c-0.21-0.66-0.43-0.86-1.58-0.86H35.6c-0.27,0-0.33,0.06-0.33,0.3v1.86h1
		c0.92,0,1.12-0.16,1.23-0.78h0.23v2.08H37.5c-0.12-0.69-0.47-0.87-1.23-0.87h-1L35.27,74.81L35.27,74.81z M41.06,74.81
		c0,0.61,0.16,0.68,0.86,0.71v0.22h-2.91v-0.22c0.7-0.03,0.86-0.1,0.86-0.71V70.8c0-0.62-0.16-0.68-0.86-0.71v-0.22h2.91v0.22
		c-0.7,0.03-0.86,0.09-0.86,0.71C41.06,70.8,41.06,74.81,41.06,74.81z M47.99,70.96c0-0.57-0.16-0.8-0.8-0.88v-0.22h2.08v0.22
		c-0.64,0.07-0.79,0.3-0.79,0.88v4.92h-0.29l-4.01-4.64v3.4c0,0.57,0.15,0.8,0.79,0.88v0.22h-2.08v-0.22c0.64-0.07,0.8-0.3,0.8-0.88
		v-3.96c-0.2-0.35-0.43-0.51-0.8-0.6v-0.22h1.6l3.5,4.05V70.96z M51.13,73.63l0.88-2.33l0.87,2.33
		C52.89,73.63,51.13,73.63,51.13,73.63z M55.34,75.74v-0.22c-0.44,0.01-0.55-0.18-0.78-0.74l-2.07-5.06h-0.28l-2.15,5.24
		c-0.15,0.36-0.35,0.47-0.72,0.55v0.22h1.87v-0.22c-0.41,0-0.6-0.09-0.6-0.37c0-0.24,0.27-0.89,0.34-1.08h2.13
		c0.07,0.19,0.35,0.84,0.35,1.08c0,0.28-0.22,0.37-0.62,0.37v0.22L55.34,75.74L55.34,75.74z M61.05,70.96c0-0.57-0.16-0.8-0.79-0.88
		v-0.22h2.08v0.22c-0.64,0.07-0.8,0.3-0.8,0.88v4.92h-0.29l-4.01-4.64l0,3.4c0,0.57,0.16,0.8,0.8,0.88v0.22h-2.08v-0.22
		c0.64-0.07,0.8-0.3,0.8-0.88v-3.96c-0.2-0.35-0.43-0.51-0.8-0.6v-0.22h1.6l3.5,4.05L61.05,70.96L61.05,70.96z M68.47,74.36
		c-0.61,1.05-1.42,1.53-2.64,1.53c-1.91,0-3.04-1.26-3.04-3.13c0-1.34,1.06-3.03,3.11-3.03c0.61,0,1.49,0.35,1.62,0.35
		c0.17,0,0.22-0.09,0.36-0.35h0.29l0.12,1.96h-0.26c-0.35-0.91-0.96-1.57-1.99-1.57c-1.38,0-1.99,1.5-1.99,2.63
		c0,1.59,0.68,2.65,2.15,2.65c1.14,0,1.77-0.85,2.04-1.22L68.47,74.36z M71.32,74.81c0,0.61,0.17,0.68,0.87,0.71v0.22h-2.91v-0.22
		c0.7-0.03,0.87-0.1,0.87-0.71V70.8c0-0.62-0.16-0.68-0.87-0.71v-0.22h2.91v0.22c-0.7,0.03-0.87,0.09-0.87,0.71V74.81z M74.6,73.63
		l0.88-2.33l0.87,2.33C76.35,73.63,74.6,73.63,74.6,73.63z M78.81,75.74v-0.22c-0.44,0.01-0.55-0.18-0.78-0.74l-2.07-5.06h-0.29
		l-2.15,5.24c-0.15,0.36-0.35,0.47-0.72,0.55v0.22h1.87v-0.22c-0.41,0-0.6-0.09-0.6-0.37c0-0.24,0.27-0.89,0.34-1.08h2.13
		c0.07,0.19,0.35,0.84,0.35,1.08c0,0.28-0.22,0.37-0.62,0.37v0.22L78.81,75.74L78.81,75.74z M79.32,75.74v-0.22
		c0.56-0.03,0.73-0.1,0.73-0.71V70.8c0-0.62-0.16-0.68-0.73-0.71v-0.22h2.72v0.22c-0.65,0.03-0.81,0.09-0.81,0.71v4.13
		c0,0.36,0.1,0.47,0.76,0.47c1.06,0,1.68-0.19,2.18-1.23h0.23L84,75.74C84,75.74,79.32,75.74,79.32,75.74z M34.64,85.01
		c0.67-0.03,0.83-0.1,0.83-0.71v-4.52h-0.73c-0.68,0-0.95,0.28-1.14,1.07h-0.26l0.14-1.5h5.16l0.14,1.5h-0.26
		c-0.19-0.8-0.46-1.07-1.14-1.07h-0.73v4.52c0,0.61,0.16,0.68,0.83,0.71v0.22h-2.84V85.01z M41.42,84.3c0,0.61,0.17,0.68,0.87,0.71
		v0.22h-2.91V85c0.7-0.03,0.87-0.09,0.87-0.71v-4.02c0-0.61-0.16-0.68-0.87-0.71v-0.23h2.91v0.23c-0.7,0.03-0.87,0.09-0.87,0.71
		C41.42,80.28,41.42,84.3,41.42,84.3z M48.46,79.35h2.02v0.22c-0.56,0.03-0.73,0.09-0.73,0.71v4.02c0,0.61,0.16,0.68,0.73,0.71v0.22
		h-2.65v-0.22c0.58-0.03,0.74-0.1,0.74-0.71v-4.13h-0.02L46.6,85.3h-0.27l-1.92-5.14H44.4v3.97c0,0.57,0.16,0.8,0.8,0.88v0.22h-2.08
		v-0.22c0.64-0.07,0.79-0.3,0.79-0.88v-4c0-0.41-0.17-0.56-0.79-0.56v-0.22h2.14l1.57,4.08C46.82,83.43,48.46,79.35,48.46,79.35z
		 M51.32,85.23v-0.22c0.56-0.03,0.73-0.1,0.73-0.71v-4.02c0-0.61-0.16-0.68-0.73-0.71v-0.22h4.91l0.03,1.3h-0.24
		c-0.21-0.66-0.43-0.86-1.58-0.86h-0.89c-0.27,0-0.33,0.06-0.33,0.3v1.86h1c0.92,0,1.12-0.16,1.23-0.78h0.23v2.07h-0.23
		c-0.12-0.69-0.47-0.86-1.23-0.86h-1v2.03c0,0.35,0.1,0.47,1.14,0.47c1.05,0,1.68-0.19,2.18-1.23h0.22l-0.4,1.57H51.32L51.32,85.23z
		 M57.53,83.38h0.23c0.25,0.78,0.99,1.59,1.86,1.59c0.74,0,1.01-0.52,1.01-0.98c0-1.35-3.04-1.6-3.04-3.28
		c0-0.81,0.79-1.51,1.69-1.51c0.88,0,1.19,0.31,1.58,0.31c0.16,0,0.27-0.13,0.31-0.31h0.23v1.87h-0.23
		c-0.24-0.85-0.85-1.47-1.64-1.47c-0.66,0-0.9,0.42-0.9,0.82c0,1.2,3.05,1.24,3.05,3.3c0,0.92-0.76,1.63-1.82,1.63
		c-1.04,0-1.31-0.36-1.71-0.36c-0.15,0-0.26,0.1-0.29,0.29h-0.31L57.53,83.38L57.53,83.38z"/>
</g>
</svg>
