<?xml version="1.0" standalone="no"?>
<!DOCTYPE svg PUBLIC "-//W3C//DTD SVG 20010904//EN"
 "http://www.w3.org/TR/2001/REC-SVG-20010904/DTD/svg10.dtd">
<svg version="1.0" xmlns="http://www.w3.org/2000/svg"
 width="300.000000pt" height="420.000000pt" viewBox="0 0 300.000000 420.000000"
 preserveAspectRatio="xMidYMid meet">
<metadata>
Created by potrace 1.16, written by Peter Selinger 2001-2019
</metadata>
<g transform="translate(0.000000,420.000000) scale(0.100000,-0.100000)"
fill="#000000" stroke="none">
<path d="M667 3358 c5 -749 8 -845 22 -865 9 -12 22 -23 29 -23 6 0 12 -5 12
-10 0 -6 11 -15 25 -20 14 -5 25 -14 25 -20 0 -5 7 -10 15 -10 8 0 15 -4 15
-8 0 -5 35 -36 78 -70 89 -71 126 -101 190 -159 26 -24 53 -43 60 -43 9 0 12
185 12 890 0 784 -2 890 -15 890 -8 0 -15 5 -15 10 0 6 -4 10 -10 10 -10 0
-37 20 -72 53 -10 9 -18 14 -18 10 0 -3 -10 3 -23 15 -13 12 -26 20 -29 17 -3
-3 -19 8 -36 24 -16 16 -32 27 -35 25 -2 -2 -10 2 -17 11 -7 8 -19 15 -26 15
-8 0 -14 5 -14 10 0 6 -7 10 -14 10 -8 0 -27 11 -42 25 -14 13 -30 23 -34 20
-4 -3 -19 4 -33 15 -14 11 -32 20 -41 20 -14 0 -15 -77 -9 -842z"/>
<path d="M1170 2940 l0 -821 38 8 c20 4 48 6 62 6 l25 -2 -2 622 c-2 556 -4
628 -19 682 -10 33 -19 63 -20 68 -1 4 -3 10 -4 15 -1 4 -3 12 -4 17 -1 6 -8
30 -15 55 -7 25 -15 52 -16 60 -2 8 -4 17 -5 20 -1 3 -3 10 -4 15 -6 40 -19
75 -27 75 -5 0 -9 -327 -9 -820z"/>
<path d="M1535 2439 c5 -695 9 -1447 9 -1672 1 -224 4 -407 7 -407 6 0 34 -23
97 -80 18 -17 37 -30 42 -30 5 0 14 -9 20 -20 6 -11 15 -20 21 -20 5 0 15 -5
22 -10 7 -6 26 -22 42 -36 17 -14 42 -32 58 -42 15 -9 27 -20 27 -24 0 -4 6
-8 13 -8 7 0 22 -8 33 -18 10 -10 26 -21 34 -25 8 -4 24 -14 36 -22 l21 -15 6
286 c4 158 7 887 7 1620 l0 1333 -81 85 c-45 47 -84 86 -88 86 -6 0 -136 120
-246 228 -22 22 -51 43 -64 47 l-24 7 8 -1263z"/>
<path d="M1499 3438 c-1 -2 -3 -14 -4 -28 -4 -31 -11 -75 -25 -148 -17 -92
-13 -2352 4 -2444 13 -73 14 -79 19 -130 1 -14 5 -30 10 -34 4 -4 7 621 7
1389 0 769 -2 1397 -5 1397 -3 0 -6 -1 -6 -2z"/>
<path d="M2177 2858 c2 -189 4 -571 5 -850 3 -516 6 -549 39 -515 13 12 92 59
164 95 17 9 36 22 43 29 7 7 19 13 26 13 8 0 19 7 26 15 7 8 21 15 31 15 11 0
19 4 19 9 0 5 15 14 33 22 17 7 34 15 37 18 6 7 39 26 90 53 19 10 53 30 75
43 22 13 57 31 77 40 31 14 40 25 48 59 6 22 16 56 21 73 6 18 8 37 5 42 -4 5
-2 12 3 15 4 3 9 16 9 28 0 13 7 51 16 86 9 34 14 67 11 72 -3 6 -1 10 4 10 6
0 10 10 10 23 -1 12 6 51 14 86 l16 64 -117 111 c-64 61 -247 240 -405 399
-158 158 -291 287 -295 287 -4 0 -6 -154 -5 -342z m332 -342 c24 -23 63 -60
86 -83 23 -24 46 -43 51 -43 5 0 16 -8 25 -18 12 -14 14 -39 11 -124 -4 -105
-4 -107 -32 -118 -15 -6 -36 -13 -46 -15 -11 -2 -19 -4 -19 -5 0 -1 -9 -3 -20
-5 -11 -1 -42 -10 -69 -19 -97 -35 -90 -44 -83 111 4 75 7 195 7 266 l0 130
23 -18 c12 -11 42 -37 66 -59z"/>
<path d="M2445 2498 c-6 -6 -9 -46 -7 -90 l4 -79 40 6 c23 4 63 9 90 10 27 1
51 5 54 8 6 6 -45 67 -56 67 -4 0 -28 20 -52 45 -47 47 -56 51 -73 33z"/>
<path d="M2556 2321 c-3 -4 -18 -6 -33 -4 -15 3 -40 0 -55 -6 -28 -10 -28 -11
-28 -104 0 -52 2 -96 6 -99 3 -3 36 2 75 12 71 19 74 19 87 21 4 1 12 2 17 4
6 1 16 3 22 3 8 1 13 15 12 35 -1 17 2 57 6 88 l8 56 -57 1 c-31 0 -58 -3 -60
-7z"/>
<path d="M2125 3146 c-6 -7 -27 -39 -47 -70 l-38 -56 0 -730 c0 -642 2 -730
15 -730 8 0 15 -4 15 -10 0 -5 5 -10 10 -10 6 0 21 -11 34 -25 13 -14 28 -25
35 -25 8 0 11 219 11 835 0 852 -1 868 -35 821z"/>
<path d="M14 2819 c-3 -6 -9 -136 -12 -288 l-5 -278 36 -21 c19 -13 38 -29 41
-38 3 -8 10 -13 15 -9 6 3 15 -4 21 -15 6 -11 16 -20 23 -20 7 0 18 -9 25 -20
7 -11 16 -20 20 -20 9 0 73 -53 130 -107 19 -18 36 -33 39 -33 6 0 38 -30 99
-92 21 -21 42 -38 47 -38 5 0 30 -21 56 -47 26 -27 70 -68 98 -93 60 -53 262
-242 343 -320 31 -30 75 -69 97 -87 l40 -32 6 151 c4 83 7 244 6 357 l0 206
-71 60 c-112 94 -139 118 -175 151 -18 18 -40 34 -48 38 -8 3 -15 9 -15 14 0
5 -51 49 -112 98 -62 49 -121 98 -130 109 -10 11 -17 16 -18 11 0 -4 -9 2 -20
15 -10 13 -19 21 -20 17 0 -4 -11 3 -24 15 -47 44 -83 71 -156 120 -41 28 -77
51 -79 53 -1 1 0 8 4 13 4 8 12 6 22 -5 9 -8 28 -23 42 -32 14 -9 30 -22 34
-29 4 -7 12 -13 17 -13 6 0 21 -10 36 -22 14 -13 27 -22 29 -21 5 3 48 -33 80
-64 12 -13 27 -23 33 -23 6 0 12 -3 14 -7 4 -10 94 -83 102 -83 3 0 25 -20 50
-44 25 -24 47 -42 49 -39 2 2 12 -8 21 -22 9 -14 21 -23 25 -20 5 2 16 -6 25
-20 9 -14 23 -25 31 -25 8 0 15 -4 15 -8 0 -5 35 -38 78 -74 42 -36 94 -82
115 -102 32 -30 45 -36 78 -34 21 1 39 5 39 9 0 4 8 5 19 2 32 -8 33 15 3 48
-22 24 -38 32 -62 31 -26 -1 -48 11 -101 55 -37 31 -71 63 -73 70 -3 8 -10 12
-15 9 -5 -3 -16 5 -25 19 -9 14 -23 25 -31 25 -8 0 -15 4 -15 9 0 5 -37 38
-81 73 -45 34 -92 74 -105 88 -13 14 -24 20 -24 15 0 -5 -7 1 -16 13 -8 12
-20 20 -25 17 -5 -4 -9 12 -9 34 0 39 -3 42 -84 100 -77 54 -161 101 -184 101
-4 0 -27 9 -50 20 -23 11 -45 19 -49 18 -4 -1 -25 6 -45 14 -49 22 -108 31
-108 17 0 -14 -38 -2 -69 22 -27 22 -37 23 -47 8z"/>
<path d="M17 2114 c-4 -4 -7 -325 -7 -714 l0 -706 85 -114 c47 -63 98 -130
113 -149 15 -19 47 -62 72 -97 75 -103 155 -203 163 -203 4 -1 7 362 7 807
l-1 807 -52 46 c-29 26 -69 61 -89 79 -21 18 -38 39 -38 47 0 9 10 2 26 -16
14 -17 29 -31 34 -31 4 0 27 -19 51 -41 24 -23 55 -52 69 -64 18 -17 37 -23
68 -24 23 0 42 3 42 7 -1 4 -29 32 -63 62 -34 30 -77 72 -97 93 -19 20 -41 37
-47 37 -6 0 -21 14 -33 30 -12 17 -27 30 -35 30 -7 0 -20 11 -29 25 -9 14 -23
25 -31 25 -8 0 -15 4 -15 8 0 19 -43 53 -61 49 -11 -3 -19 -1 -19 4 0 11 -47
12 -54 1 -8 -13 4 -26 79 -86 71 -58 115 -106 97 -106 -6 0 -20 14 -32 30 -12
17 -25 28 -30 25 -4 -3 -15 6 -24 20 -9 14 -21 25 -26 25 -5 0 -28 18 -50 40
-22 22 -45 40 -50 40 -4 0 -10 5 -12 11 -2 5 -7 7 -11 3z"/>
<path d="M1258 1995 c-2 -3 -18 -6 -34 -8 -67 -8 -64 5 -64 -252 0 -254 8
-415 21 -415 5 0 9 9 9 20 0 11 4 20 9 20 5 0 19 21 32 48 12 26 26 49 29 52
21 16 25 62 22 289 -2 225 -6 264 -24 246z"/>
<path d="M510 1720 c0 -6 -6 -9 -12 -7 -10 1 -14 -160 -16 -775 -1 -498 1
-778 8 -778 5 0 15 10 21 23 7 12 15 24 18 27 4 3 18 21 31 40 12 19 28 40 34
45 6 6 16 18 21 26 44 71 89 135 96 137 5 2 9 10 9 18 0 8 5 14 11 14 5 0 7 5
4 10 -3 6 -2 10 2 10 5 0 22 22 38 50 17 27 33 50 38 50 4 0 7 201 7 448 l0
447 -116 111 c-105 100 -119 111 -155 112 -21 1 -39 -3 -39 -8z"/>
</g>
</svg>
