<?xml version="1.0" encoding="utf-8"?>
<!-- Generator: Adobe Illustrator 26.0.1, SVG Export Plug-In . SVG Version: 6.00 Build 0)  -->
<svg version="1.1" id="Layer_1" xmlns="http://www.w3.org/2000/svg" xmlns:xlink="http://www.w3.org/1999/xlink" x="0px" y="0px"
	 viewBox="0 0 839 138" style="enable-background:new 0 0 839 138;" xml:space="preserve">
<style type="text/css">
	.st0{fill:#C9E9EB;}
	.st1{fill:#94D6DA;}
	.st2{fill:#F99D1C;}
	.st3{fill:#D90C59;}
	.st4{fill:#005FAE;}
	.st5{fill:#02205F;}
	.st6{fill:#FFFFFF;}
	.st7{fill:#010202;}
	.st8{fill:#783B8F;}
	.st9{fill:#E61F47;}
	.st10{fill:#FAB721;}
	.st11{fill:#EB5C1C;}
</style>
<g>
	<g>
		<path class="st0" d="M587.1,28.3c-7.9-3.8-17.6-2.8-26.6-4.6c-9-1.8-11.6-6.1-27.5-9.6c-10.9-2.3-22.7,1.4-35.6,6.9
			c-13.9,6-23.7,5.7-32.7,13.8c-8,7.2-5,16.5-1.1,25.4c-1.3,4.6-1,8.5-0.3,11.8c1,5,4.6,11,10.6,14.3c1.2,2.2,2.9,4.6,5.4,7.6
			c8.8,10.6,29.2,16.7,39.8,20.9c9.1,3.6,13.6,10.3,31.8,8.9c17.8-1.4,26.6-16.1,31.1-34.2c0.8-3.3,1.8-6.7,2.8-9.9
			c3.6-10.9,9.1-15.9,12.7-20.5C609.4,44.1,595,32.1,587.1,28.3"/>
		<path class="st1" d="M583.1,51.5c-4.1-6.7-9.5-8.6-20.6-18.5c-0.5-0.4-1-0.8-1.4-1.2c-10.9-9.2-23.3-12.9-35-13
			c-10.1-0.1-25.5,4-39.9,14.4c-3,2.2-5.9,4.6-8.8,7.3c-5.1,4.8-8.5,9.1-10.8,12.9c-1.5,2.5-2.5,4.8-3.1,7c1.3,3,2.8,6,3.9,8.8
			c3.2,7.9,3.4,11.8,6.4,17.3c2.9,1.6,6.3,2.6,10.3,2.5c2.6,0,4.9-0.1,7.1,0c23.7,0.3,23.5,4.4,37.6,6.2c1.6,0.2,3.5,0.4,5.5,0.5
			c2.1,0.1,4.4,0.2,7,0.3c0.8,0,1.6,0,2.5,0c1.3,0,2.6,0,4.1,0c10.2-0.1,18.9,1.7,27.1-5.6c2.3-2,4.5-4.7,6.7-8.3
			c2.3-3.7,3.6-9.3,3.9-14.8C586.1,61.1,585.3,55.1,583.1,51.5"/>
		<path class="st2" d="M586.8,42.3c-5.7-7.7-16.2-11-25.7-10.6c-1.1,0-2.2,0.1-3.2,0.3c-13.6,1.8-22-9.2-35.4-8.2
			c-13.5,1-25.7,8-36.2,9.3c-1,0.1-2.1,0.2-3.1,0.2c-7.6,0-19.5,5.5-16.5,20c1.4,6.8,6.1,15.5,16.1,26.6c3,3.3,5.8,6.3,8.6,9
			c26,25.6,41.2,24.8,51.5,24.4c17.4-0.7,26.7-12,32.3-22.9c3-5.8,4.9-11.5,6.4-15.4c1.1-2.8,2.7-5.3,4.2-7.8
			C590.4,60,595,53.4,586.8,42.3"/>
		<path class="st3" d="M583.1,51.5c-4.1-6.7-9.5-8.6-20.6-18.5c-0.5-0.4-1-0.8-1.4-1.2c-1.1,0-2.2,0.1-3.2,0.3
			c-13.6,1.8-22-9.2-35.4-8.2c-13.5,1-25.7,8-36.2,9.3c-3,2.2-5.9,4.6-8.8,7.3c-5.1,4.8-8.5,9.1-10.8,12.9
			c1.4,6.8,6.1,15.5,16.1,26.6c3,3.3,5.8,6.3,8.6,9c23.7,0.3,23.5,4.4,37.6,6.2c1.6,0.2,3.5,0.4,5.5,0.5c2.1,0.1,4.4,0.2,7,0.3
			c0.8,0,1.6,0,2.5,0c1.3,0,2.6,0,4.1,0c10.2-0.1,18.9,1.7,27.1-5.6c3-5.8,4.9-11.5,6.4-15.4c1.1-2.8,2.7-5.3,4.2-7.8
			C586.1,61.1,585.3,55.1,583.1,51.5"/>
		<path class="st4" d="M544.8,84.8c-9.4-1.1-19.7-2.1-33.4-1.2c-18.3,1.2-21.5-7.5-26.7-16.6c-2.7-4.9-6.1-9.1-5.9-11.9
			c0.6-7.9,3.5-15.8,26.9-16.2c3.6-0.1,6.6-1.8,10.1-3.5c5.8-3,11.2-5.6,19.6-1.8c8.5,3.9,25.5,5.2,34.9,12.1
			c10.8,7.9,11.1,16.2,10.3,23.7c-1.3,13.2-7.1,20.7-16.4,21C554.9,90.7,554.8,86,544.8,84.8"/>
		<path class="st5" d="M543.5,85c-10.3-1.3-23.6-1.4-32.6-0.8c-18.5,1.2-22.2-8.3-27.1-17.5c-2.6-4.9-5.3-8.9-5.1-11.7
			c0.5-7.9,3.3-15.7,26.3-16.2c8.6-0.2,14.6-2.9,21.7-2.6c11.4,0.4,27.2,5.1,32,7.8c11.6,6.4,22.1,21,19.7,34.6
			C576.1,91.5,552.8,86.2,543.5,85"/>
		<path class="st4" d="M539.3,87.1c-6-2-8.7,0-9.7,4.5c0,0-0.3,1.4-0.6,3.4c1.6,0.2,3.5,0.4,5.5,0.5c2.1,0.1,4.4,0.2,7,0.3
			c0.8,0,1.6,0,2.5,0C544.5,92.2,544.4,88.8,539.3,87.1"/>
		<path class="st1" d="M541.5,95.9c-2.6,0-5-0.1-7-0.3c-2.1-0.1-3.9-0.3-5.5-0.5c-0.4,2.3-0.8,5.5-0.7,8.1c0.2,4.3,2.3,4.2,4.4,4.7
			c2.2,0.5,4.4,0.2,6.1-2.3c2.7-4.1,4-1.6,5.1-8.9c0-0.3,0.1-0.5,0.1-0.8C543.1,95.9,542.3,95.9,541.5,95.9"/>
		<path class="st2" d="M539.4,97.3c1-0.3,1.7-0.8,2.1-1.5c-2.6,0-5-0.1-7-0.3C535.3,97.8,537.1,98.1,539.4,97.3"/>
		<path class="st5" d="M540.4,91.8c-1.5-2.1-2.8-3.2-4.4-2.6c0,0-2.6,0.3-2,4.6c0.1,0.7,0.2,1.3,0.4,1.7c2.1,0.1,4.4,0.2,7,0.3
			C542,94.9,541.7,93.7,540.4,91.8"/>
		<path class="st6" d="M482.4,63.3c-3.6,0-5.4,1.9-5.4,5.7v5.8c0,3.8,1.8,5.7,5.4,5.7c3.6,0,5.4-1.9,5.4-5.7V69
			C487.8,65.2,486,63.3,482.4,63.3 M480.6,68.6c0-1.9,0.9-2,1.8-2c0.8,0,1.8,0.2,1.8,2v6.6c0,1.9-0.9,2-1.8,2s-1.8-0.2-1.8-2V68.6z"
			/>
		<path class="st6" d="M498.3,63.6C498.3,63.5,498.2,63.5,498.3,63.6l-8.5,0c-0.1,0-0.1,0.1-0.1,0.1v16.5c0,0.1,0.1,0.1,0.1,0.1h3.4
			c0.1,0,0.1-0.1,0.1-0.1v-6.9h3.8c0.1,0,0.1,0,0.1-0.1l0-3c0,0,0,0,0,0c0,0,0-0.1,0-0.1c0,0-0.1,0-0.1,0h-3.8v-3.2h4.9
			c0.1,0,0.1,0,0.1-0.1L498.3,63.6C498.3,63.6,498.3,63.6,498.3,63.6C498.3,63.6,498.3,63.6,498.3,63.6"/>
		<path class="st6" d="M513.4,77.1c0-0.1-0.1-0.1-0.1-0.1h-4.9V63.6c0-0.1-0.1-0.1-0.1-0.1h-3.4c-0.1,0-0.1,0.1-0.1,0.1v16.5
			c0,0.1,0.1,0.1,0.1,0.1h8.4c0,0,0.1,0,0.1,0c0,0,0-0.1,0-0.1L513.4,77.1z"/>
		<path class="st6" d="M519.5,63.3c-3.6,0-5.4,1.9-5.4,5.7v5.8c0,3.8,1.8,5.7,5.4,5.7c3.6,0,5.4-1.9,5.4-5.7V69
			C524.9,65.2,523.1,63.3,519.5,63.3 M517.8,68.6c0-1.9,0.9-2,1.8-2c0.8,0,1.8,0.2,1.8,2v6.6c0,1.9-0.9,2-1.8,2
			c-0.8,0-1.8-0.2-1.8-2V68.6z"/>
		<path class="st6" d="M537.8,63.5h-3.1c-0.1,0-0.1,0.1-0.1,0.1v8.6c-0.4-0.9-3.9-8.6-3.9-8.6c0,0-0.1-0.1-0.1-0.1H527
			c-0.1,0-0.1,0.1-0.1,0.1v16.5c0,0.1,0.1,0.1,0.1,0.1h3.1c0.1,0,0.1-0.1,0.1-0.1v-9.5c0.4,0.9,4.3,9.5,4.3,9.5c0,0,0.1,0.1,0.1,0.1
			h3.2c0.1,0,0.1-0.1,0.1-0.1V63.6C538,63.6,537.9,63.5,537.8,63.5"/>
		<path class="st6" d="M544.5,63.5H540c-0.1,0-0.1,0.1-0.1,0.1v16.5c0,0.1,0.1,0.1,0.1,0.1h4.5c3.9,0,5.8-1.9,5.9-5.9v-5
			C550.3,65.4,548.4,63.5,544.5,63.5 M543.5,66.8h0.8c1.8,0,2.4,0.8,2.4,3V74c0,2.1-0.7,3-2.4,3h-0.8V66.8z"/>
		<path class="st6" d="M557.7,63.3c-3.6,0-5.4,1.9-5.4,5.7v5.8c0,3.8,1.8,5.7,5.4,5.7s5.4-1.9,5.4-5.7V69
			C563.1,65.2,561.3,63.3,557.7,63.3 M556,68.6c0-1.9,0.9-2,1.8-2c0.8,0,1.8,0.2,1.8,2v6.6c0,1.9-0.9,2-1.8,2c-0.8,0-1.8-0.2-1.8-2
			V68.6z"/>
		<path class="st6" d="M576.1,63.5h-3.1c-0.1,0-0.1,0.1-0.1,0.1v8.6c-0.4-0.9-3.9-8.6-3.9-8.6c0,0-0.1-0.1-0.1-0.1h-3.6
			c-0.1,0-0.1,0.1-0.1,0.1v16.5c0,0.1,0.1,0.1,0.1,0.1h3.1c0.1,0,0.1-0.1,0.1-0.1v-9.5c0.4,0.9,4.3,9.5,4.3,9.5c0,0,0.1,0.1,0.1,0.1
			h3.2c0.1,0,0.1-0.1,0.1-0.1V63.7C576.2,63.6,576.1,63.5,576.1,63.5"/>
		<path class="st6" d="M505.3,43.9h-3.4c-0.1,0-0.1,0.1-0.1,0.1v11.5c0,1.4-0.6,2.1-1.9,2.1c-1.3,0-1.9-0.6-1.9-2.1V44
			c0-0.1-0.1-0.1-0.1-0.1h-3.4c-0.1,0-0.1,0.1-0.1,0.1v11.5c0,3.5,1.9,5.3,5.5,5.3c3.6,0,5.6-1.8,5.6-5.3V44
			C505.4,44,505.4,43.9,505.3,43.9"/>
		<path class="st6" d="M528.5,57.5c0-0.1-0.1-0.1-0.1-0.1h-5.5v-3.7h4.6c0.1,0,0.1-0.1,0.1-0.1v-3c0-0.1-0.1-0.1-0.1-0.1h-4.6v-3.2
			h5.3c0.1,0,0.1,0,0.1-0.1l0-3c0,0,0,0,0,0c0,0,0-0.1,0-0.1c0,0-0.1,0-0.1,0h-8.8c-0.1,0-0.1,0.1-0.1,0.1v16.5
			c0,0.1,0.1,0.1,0.1,0.1h9c0,0,0.1,0,0.1,0c0,0,0-0.1,0-0.1L528.5,57.5z"/>
		<path class="st6" d="M541.2,43.9h-3.4c-0.1,0-0.1,0.1-0.1,0.1v11.5c0,1.4-0.6,2.1-1.9,2.1c-1.3,0-1.9-0.6-1.9-2.1V44
			c0-0.1-0.1-0.1-0.1-0.1h-3.4c-0.1,0-0.1,0.1-0.1,0.1v11.5c0,3.5,1.9,5.3,5.5,5.3c3.6,0,5.6-1.8,5.6-5.3V44
			C541.3,44,541.3,43.9,541.2,43.9"/>
		<path class="st6" d="M491.8,43.9h-3.7c0,0-0.1,0-0.1,0.1c0,0-3.4,6.6-3.6,7c-0.2-0.4-3.6-7-3.6-7c0,0-0.1-0.1-0.1-0.1h-3.7
			c-0.1,0-0.1,0.1-0.1,0.1v16.5c0,0.1,0.1,0.1,0.1,0.1h3.3c0.1,0,0.1-0.1,0.1-0.1v-9.9c0.4,0.7,3.8,6.7,3.8,6.7c0,0,0.1,0.1,0.1,0.1
			h0.1c0,0,0.1,0,0.1-0.1c0,0,3.4-6,3.8-6.7v9.9c0,0.1,0.1,0.1,0.1,0.1h3.3c0.1,0,0.1-0.1,0.1-0.1V44
			C491.9,43.9,491.8,43.9,491.8,43.9"/>
		<path class="st6" d="M558,43.9h-3.7c0,0-0.1,0-0.1,0.1c0,0-3.4,6.6-3.6,7c-0.2-0.4-3.6-7-3.6-7c0,0-0.1-0.1-0.1-0.1h-3.7
			c-0.1,0-0.1,0.1-0.1,0.1v16.5c0,0.1,0.1,0.1,0.1,0.1h3.3c0.1,0,0.1-0.1,0.1-0.1v-9.9c0.4,0.7,3.8,6.7,3.8,6.7c0,0,0.1,0.1,0.1,0.1
			h0.1c0,0,0.1,0,0.1-0.1c0,0,3.4-6,3.8-6.7v9.9c0,0.1,0.1,0.1,0.1,0.1h3.3c0.1,0,0.1-0.1,0.1-0.1V44
			C558.2,43.9,558.1,43.9,558,43.9"/>
		<path class="st6" d="M514.7,52c0,0-2.3-1.7-2.3-1.7c-1.2-0.9-1.7-1.7-1.7-2.5c0-0.6,0.4-1.2,1.3-1.2c0.4,0,1.4,0,1.6,1.8
			c0,0,0,0.1,0,0.1c0,0,0.1,0,0.1,0l3.3-0.5c0.1,0,0.1-0.1,0.1-0.1l0-0.2c-0.1-2.4-2.1-3.8-5.1-3.8c-2.4,0-5,1.5-5,4.2
			c0,1.8,0.9,3.4,2.7,4.8c0,0,2.2,1.7,2.2,1.7l0.2,0.1c1.1,0.9,1.7,1.3,1.7,2.1c0,0.8-0.5,1.2-1.5,1.2c-1.1,0-1.6-0.6-1.8-1.7
			c0,0,0-0.1,0-0.1c0,0-0.1,0-0.1,0l-3.5,0.5c-0.1,0-0.1,0.1-0.1,0.1l0,0.2C507,59.4,509,61,512,61c3.2,0,5.4-1.7,5.4-4.4
			C517.4,54.7,516.7,53.4,514.7,52"/>
	</g>
</g>
<g transform="translate(0.000000,573.000000) scale(0.100000,-0.100000)">
	<path d="M2550.7,5055.9v-379.1h110.7h110.7v40.8v40.8h-65.7h-65.7v297.4v297.4l65.4,0.3l65.3,0.4l0.4,40.5l0.3,40.4h-110.7h-110.7
		V5055.9z"/>
	<path d="M3928.6,5394.1v-40.8h65.7h65.7v-297.4v-297.4h-65.7h-65.7v-40.8v-40.8h110.7H4150v379.1v379.1h-110.7h-110.7V5394.1z"/>
	<path d="M3362.1,5339.3c-23.4-3.9-36.2-21.4-41-55.9c-2.2-17.2-0.8-74.3,2.1-87.2c4.8-20.6,13-32.2,27.4-38.9c8.3-3.9,9.5-4,28.8-4
		c23.4,0,30.9,1.9,40.4,10.2c14.2,12.7,19,29.6,20.1,72.8c0.8,34.7-0.7,53.5-5.9,70.1c-7.7,24.3-24.1,34.6-54.6,34.2
		C3373.6,5340.6,3366,5340,3362.1,5339.3z M3390.5,5300c5.7-5.1,6.2-10.5,6.2-54c0-45.2-0.8-50.8-7.6-54.2
		c-4.3-2.2-12.6-2.4-17.2-0.3c-6.9,3.2-8.2,9.7-8.9,47.7c-0.8,46.1,1.2,59.2,9.8,62.8C3377.3,5304.1,3387.4,5302.8,3390.5,5300z"/>
	<path d="M2866.1,5246.8v-91.3h18.1h18.3l-0.7,49.1l-0.6,49.1l5-12.7c2.8-7.1,12.5-29.2,21.4-49.1l16.5-36.4h16.3h16.3v91.3v91.3
		h-18.1h-18.1l0.6-49c0.3-27,0-48.7-0.6-48.4c-0.4,0.3-2.2,4.4-3.7,9.3c-1.7,4.7-10.9,26.3-20.8,48l-17.7,39.4l-16,0.4l-16.2,0.4
		V5246.8z"/>
	<path d="M3039.2,5330.9c-1.1-4-11.8-44.4-23.8-89.6c-12.2-45.2-22-83.1-22-84c0-1.4,4.3-1.8,17-1.8h17.2l1.5,5.3
		c0.7,2.8,2.5,10,3.9,15.9l2.5,10.7l23.5-0.3l23.7-0.4l3.5-15.2l3.6-15.2l20.9-0.4l20.8-0.4l-16.2,60.6
		c-8.9,33.3-19.8,74.4-24.3,91.4l-8,30.7h-20.9H3041L3039.2,5330.9z M3062.6,5279.3c0.8-7.6,3.5-21.6,5.7-31.1s4.3-18.7,4.7-20.3
		c0.7-3.2,0.6-3.2-13.8-3.2c-8,0-14.5,0.3-14.5,0.6c0,0.4,2.5,11.8,5.5,25.2c3,13.6,6.2,29.6,7.1,35.6c1,6.4,2.1,10.2,2.6,9.1
		C3060.4,5294,3061.6,5286.9,3062.6,5279.3z"/>
	<path d="M3122.1,5318.7v-19.4h17.3h17.3v-71.9v-71.9h20.8h20.8l0.3,71.7l0.4,71.5l17.3,0.7l17.3,0.7v18.7v18.7l-55.6,0.4l-55.8,0.3
		V5318.7z"/>
	<path d="M3250.7,5246.8v-91.3h21.4h21.4v91.3v91.3h-21.4h-21.4V5246.8z"/>
	<path d="M3466.6,5246.8v-91.3h18.1h18.1l-0.6,49.1c-0.1,26.8,0,48.6,0.4,48c0.4-0.6,2.5-5.7,4.6-11.3s11.3-27.1,20.6-47.7
		l16.9-37.4l16.3-0.4l16.2-0.4v91.4v91.3h-18.1h-18.3l0.7-49.3l0.6-49.1l-5.9,14.9c-3.3,8.2-13,30.2-21.6,48.8l-15.5,33.9l-16.3,0.4
		l-16.2,0.4V5246.8z"/>
	<path d="M3641.6,5336.4c-1-2.9-26.7-100.4-42.3-160.2c-2.4-8.7-4.6-17-4.8-18.3c-0.7-2.4,0.7-2.5,17-2.5h17.7l3.6,15.6l3.5,15.5
		l23.7,0.4l23.7,0.3l3.7-15.9l3.7-15.9h20.6c19.2,0,20.8,0.1,20.1,2.5c-1.8,6.2-8.3,30.6-17.4,65.3c-12,45.9-28.9,109-29.9,112.5
		c-0.7,2.1-2.9,2.4-21.4,2.4C3647.5,5338.1,3642,5337.7,3641.6,5336.4z M3662.9,5281.8c1-7.5,3.9-22.7,6.5-34
		c2.6-11.2,4.7-21,4.7-21.7c0-0.8-5.9-1.4-14.7-1.4c-13.3,0-14.5,0.3-13.8,2.5c1.9,6.2,10.4,45.1,11.9,54.2
		C3660.3,5299.5,3660.8,5299.5,3662.9,5281.8z"/>
	<path d="M3750.2,5246.8v-91.3h43.6h43.6v19.4v19.4h-22.8h-22.8v71.9v71.9h-20.8h-20.8V5246.8z"/>
	<path d="M2866.1,5110.5v-21.3l19.1-0.4l19-0.4l0.4-80.5l0.3-80.7h23.5h23.5v80.9v80.9h19.4h19.4v21.4v21.4h-62.3h-62.3V5110.5z"/>
	<path d="M3010,5029.6v-102.4h24.2h24.2v42.2v42.2h15.2h15.2v-42.2v-42.2h24.2h24.2v102.4v102.4h-24.2h-24.2v-36.7v-36.7h-15.2
		h-15.2v36.7v36.7h-24.2H3010V5029.6z"/>
	<path d="M3171.5,5030l0.4-102.1l50.5-0.4l50.5-0.3v22.1v22.1h-27h-27v20.8v20.8h23.5h23.5v22.1v22.1h-23.5h-23.5v15.9v15.9h25.3
		h25.2v21.4v21.4h-49.1h-49.1L3171.5,5030z"/>
	<path d="M3320.2,5047.1c-12.3-46.5-24.6-92.6-27.1-102.2l-4.6-17.7h19.8c19.5,0,19.9,0,20.6,3.2c4.3,18.5,7.6,31.7,8.3,32.8
		c0.6,0.8,10.7,1.4,26.3,1.4h25.3l4.4-18.7l4.4-18.7h23.4h23.2l-1.9,6.6c-1,3.6-9.1,33.9-18,67.4s-19.6,74.6-24.1,91.3
		c-4.6,16.7-8.6,32.5-9.1,35l-1,4.4h-23.7h-23.8L3320.2,5047.1z M3366.8,5068.3c1.2-11.9,6.9-40.1,11.9-59.8l1-3.9h-15.8
		c-8.7,0-16.2,0.3-16.6,0.7s0.8,7.2,2.6,14.9c4.2,17.6,9.4,42.7,11.5,56.2C3363.5,5089.1,3364.6,5087.4,3366.8,5068.3z"/>
	<path d="M3433.4,5110.5v-21.4h19.4h19.4v-80.9v-80.9l23.5,0.3l23.5,0.4l0.4,80.2l0.3,80.2l19.4,0.7l19.4,0.7v21.2v21H3496h-62.7
		V5110.5z"/>
	<path d="M3578.3,5029.6l0.3-102.4h22.8h22.8v39.4v39.4h7.5h7.3l13.1-39l13.1-39.2l23.8-0.4c14.4-0.1,23.7,0.1,23.7,1
		c0,1.1-17.3,49.9-28.1,79.7l-3.6,9.5l6.2,6.6c8.2,8.9,12.5,18.4,14.5,33.1c4.3,29.9-6.6,56.2-27.7,67c-13,6.5-21.3,7.6-60.3,7.6
		h-36L3578.3,5029.6z M3648.9,5088.1c7.2-5.4,9.1-9.4,9-19c-0.1-16-6.1-21.6-23.1-21.6h-10.5v22.3v22.4l10.5-0.7
		C3642.1,5091,3646.3,5090,3648.9,5088.1z"/>
	<path d="M3735,5029.6v-102.4h51.2h51.3l-0.4,21.9l-0.4,21.7l-26.6,0.4l-26.7,0.3v20.8v20.8h23.5h23.5v22.1v22.1h-23.5h-23.5v15.9
		v15.9h24.9h24.9v21.4v21.4h-49.1H3735V5029.6z"/>
	<path d="M2893.8,4903.8c-11.5-3.7-17.7-10.1-22-22.4c-7.3-21-7.3-70,0-91c3.3-9.5,8.3-16,15.5-19.9c5.1-2.6,7.9-3,23.8-3
		c14.9,0,18.8,0.4,22.8,2.6c16.9,9,21.3,22.8,21.3,65.9c0,43-4.6,57.1-21.3,65.9c-3.7,1.9-8.6,2.6-20.8,2.9
		C2904.5,4904.8,2895.7,4904.5,2893.8,4903.8z M2919.5,4876c0.1,0,1.1-2.1,2.1-4.4c1.5-3.5,1.9-12.3,1.9-35c0-31.4-0.6-36.2-4.3-40
		c-2.9-2.9-13.4-2.9-16.3,0c-3.7,3.7-4.3,8.7-4.3,41c0,29.6,0.1,31.5,2.9,35.3c3.3,4.4,7.9,5.9,13.7,4.3
		C2917.5,4876.6,2919.4,4876,2919.5,4876z"/>
	<path d="M3111,4903.8c-10.4-3.3-17.4-9.7-21.7-19.4c-2.9-6.4-3.3-31.4-0.6-40.4c2.1-7.6,8.3-15.6,14.2-18.7
		c2.4-1.2,8.9-2.5,14.7-2.9c13.6-1.1,16.9-3.9,16.9-14.2c0-5.7-0.7-7.7-3.5-10.4c-2.9-3-4.6-3.5-12.9-3.5c-5.9,0-12.6,1.1-17.6,2.8
		c-4.4,1.5-8.3,2.8-8.6,2.8c-0.3,0-0.3-6.4-0.1-14.1l0.4-14l5.5-2.1c8.7-3.2,32-3.9,41-1.2c9.8,2.9,18,10,22.1,19.2
		c2.8,6.4,3.2,9.4,3.2,22.6c-0.3,29.1-8.4,40-32.1,42.2c-12.9,1.2-15.5,3.5-15.5,12.7c0,9.7,3,12.2,14.5,12.2c5.8,0,11.9-1.1,18-3.3
		l9-3.3v14.4v14.2l-7.2,2.2C3142.7,4904.2,3116.3,4905.6,3111,4903.8z"/>
	<path d="M3209.7,4903.7c-12.3-2.6-19-8.6-23.8-21.6c-4.2-10.9-5.7-23.1-5.7-46.2c0-40.3,6.1-58.4,22-65.4c8.4-3.7,29.1-3.7,41,0
		l8.3,2.6l0.4,14.9c0.4,14,0.1,14.9-2.1,14c-15.4-6.6-26.8-7.7-32.1-2.9c-4.7,4.3-6.4,14.1-6.4,36.8c0,34,3.5,41,19.4,39.7
		c4.6-0.3,10.9-1.9,14.1-3.6c3.2-1.5,6.2-2.9,6.6-2.9s0.6,6.6,0.4,14.8l-0.4,14.8l-7.9,2.5
		C3233.7,4904.1,3217.4,4905.3,3209.7,4903.7z"/>
	<path d="M3291,4903.1c-18.3-5.9-25-24.3-25-67.2c0-41,5.1-56.7,21.4-65.4c4.8-2.6,7.7-3,22.8-3c15.9,0,18,0.3,24.2,3.6
		c8,4,13.6,11.9,16.7,23.5c5,18.8,5,63.9,0,82.7c-3.2,11.6-8.7,19.5-16.7,23.5c-5.9,3.2-8.9,3.6-22.1,3.9
		C3302.1,4904.9,3295.2,4904.4,3291,4903.1z M3318.9,4874.8c6.9-6.6,6.6-71.1-0.3-78c-3.7-3.7-13.8-3.6-17,0.4
		c-3.5,4.3-4.2,11.6-3.6,43.6c0.4,24.8,0.8,29.7,2.8,32.8C3304.4,4879,3313.7,4879.6,3318.9,4874.8z"/>
	<path d="M2975.4,4835.9V4768l15.6,0.4l15.5,0.4l0.4,28.1l0.3,27.9h14.5h14.5v14.5v14.5h-14.5h-14.5v10.4v10.4h15.9h15.9v14.5v14.5
		h-31.8h-31.8V4835.9z"/>
	<path d="M3365.6,4889.1v-14.5h12.5h12.5v-53.3V4768l15.6,0.4l15.5,0.4l0.4,53l0.3,52.8h12.5h12.5v14.5v14.5h-40.8h-40.8V4889.1z"/>
	<path d="M3461,4835.9v-67.8h32.5h32.7l-0.4,14.2l-0.4,14.1l-16.9,0.4l-17,0.4v53.1v53.3h-15.2H3461V4835.9z"/>
	<path d="M3565.6,4901.3c-0.4-1.4-8.3-31.1-17.6-66.1s-17.2-64.5-17.4-65.3c-0.6-1.4,2.5-1.8,12.6-1.8h13.1l1.4,5.3
		c0.7,2.8,1.8,7.3,2.2,10c2.1,10,1.8,9.8,20.5,9.4l16.9-0.4l2.6-12l2.6-12.2h15.1c9.1,0,14.9,0.6,14.9,1.4s-1.5,7.2-3.5,14.2
		c-4.8,17.6-26,97.7-29.2,110l-2.5,10h-15.6C3568.2,4903.7,3566.3,4903.4,3565.6,4901.3z M3581.4,4866c0-2.5,1.7-12,3.6-21.2
		s3.9-18.7,4.3-21l0.8-4.6h-10.7c-5.8,0-10.5,0.6-10.5,1.1c0,0.6,1.8,9.1,4,19.1c2.4,9.8,4.6,20.8,5,24.5
		C3579,4871.3,3581.4,4872.8,3581.4,4866z"/>
	<path d="M3646.4,4835.9v-67.8h13.3h13.3l-0.6,35.3c-0.3,19.4,0,35.3,0.4,35.3s2.8-5.1,5.3-11.3c2.4-6.4,9.1-22,15.1-35l10.8-23.5
		l12-0.4l12-0.4v67.9v67.8h-13.1h-13.1v-35.6l-0.1-35.7l-5.9,13.8c-3.3,7.6-10.4,23.5-15.8,35.3l-9.8,21.4l-11.9,0.4l-11.8,0.4
		V4835.9z"/>
	<path d="M3750.9,4902.2c-0.4-1.1-0.6-31.5-0.4-67.7l0.4-65.7l19.6-0.4c31.4-0.6,46.5,4,56.6,17.3c9.3,12.2,14.1,34.6,12.5,58.5
		c-1.9,31.1-11.3,47.9-31.1,55.6c-6.6,2.5-11.3,3-32.2,3.6C3756.3,4903.8,3751.4,4903.7,3750.9,4902.2z M3798.2,4873.8
		c7.3-4.7,10.9-21.6,9.7-44.8c-1-20.1-3.9-27.4-12-31.5c-3.5-1.7-7.7-2.9-9.7-2.8l-3.5,0.4l-0.4,39.4c-0.1,21.7,0,40.3,0.4,41.4
		C3783.7,4878.2,3793.5,4877,3798.2,4873.8z"/>
</g>
<rect x="646.3" y="36.8" width="177.2" height="59.1"/>
<path class="st6" d="M778,95.9v-43h14.6v33.9h18.9V96"/>
<path class="st6" d="M735.5,96c-6.4-4.6-9.5-12.4-9.5-19.9c0-12.3,8.3-24.9,23.9-24.9c7,0,13.6,2.5,18.5,7.4c1.9,2,2.9,3.5,3.8,5.4
	L760,70c-1.2-2.7-3.4-7.6-9.6-7.6c-3.2,0-5.2,1.5-6.2,2.5c-3.5,3.3-3.5,8.5-3.5,10.4c0,6.8,2.5,13.3,9.7,13.3c6.8,0,8.8-6,9.3-7.5
	l12.4,6c-1.2,2.2-2.3,4.3-4.5,6.5c-0.9,0.9-1.9,1.7-3,2.5"/>
<path class="st6" d="M685.2,96c-0.6-0.4-1.2-0.9-1.7-1.4c-4.6-4.4-4.6-9.6-4.8-14.4V52.9h14.7v28.7c0,1.9,0.1,4,1.7,5.5
	c1.2,1.2,3,1.7,4.6,1.7c2.3,0,3.8-0.9,4.6-1.6c1.7-1.6,1.7-3.6,1.7-5.6V52.9h14.7v24.4c0,5.3,0,12.1-5.4,17.3
	c-0.5,0.5-1.1,0.9-1.7,1.4"/>
<g>
	<g>
		<path class="st6" d="M671.3,63.2l-7.9-1.7c0,0-7.8,1.7-7.9,1.7s0,0.1,0,0.1l0.1,0.4l0,0l0,0c0,0,0.1,0,0.2,0.1l0.1,0.6
			c0,0,0,0.1,0.1,0.1s0.3,0,0.3,0h14.3c0,0,0.2,0,0.3,0s0.1,0,0.1,0l0.1-0.6c0.1-0.1,0.2-0.1,0.2-0.1l0,0l0,0L671.3,63.2
			C671.4,63.3,671.4,63.3,671.3,63.2L671.3,63.2L671.3,63.2z"/>
		<path class="st6" d="M670.5,64.7L670.5,64.7v-0.2l0,0h-1.2l0,0v0.2l0,0h0.1c0,0,0,0,0,0.1c0,0,0,0.2,0.1,0.3v0.1c0,0,0,0-0.1,0
			l0,0v0.1v0.1l0,0l0,0l0,0l0,0v4.4l-0.1,0.1l0,0v0.1l0,0l0,0h-0.1l0,0v0.1h1.2v-0.1l0,0h-0.1l0,0l0,0l0,0l0,0l-0.1-0.1v-4.4l0,0
			l0,0l0,0l0,0v-0.1v-0.1l0,0l0,0c0,0-0.1-0.1,0-0.1C670.5,65,670.5,64.9,670.5,64.7L670.5,64.7L670.5,64.7L670.5,64.7L670.5,64.7z"
			/>
		<path class="st6" d="M667.9,64.7L667.9,64.7v-0.2l0,0h-1.2l0,0v0.2l0,0h0.1c0,0,0,0,0,0.1c0,0,0,0.2,0.1,0.3v0.1c0,0,0,0-0.1,0
			l0,0v0.1v0.1l0,0l0,0l0,0l0,0v4.4l-0.1,0.1l0,0v0.1l0,0l0,0h-0.1l0,0v0.1h1.2v-0.1l0,0h-0.1l0,0l0,0l0,0l0,0l-0.1-0.1v-4.4l0,0
			l0,0l0,0l0,0v-0.1v-0.1l0,0l0,0c0,0-0.1-0.1,0-0.1C667.9,65,667.9,64.9,667.9,64.7L667.9,64.7L667.9,64.7L667.9,64.7L667.9,64.7z"
			/>
		<path class="st6" d="M665.4,64.7L665.4,64.7v-0.2l0,0h-1.2l0,0v0.2l0,0h0.1c0,0,0,0,0,0.1c0,0,0,0.2,0.1,0.3v0.1c0,0,0,0-0.1,0
			l0,0v0.1v0.1l0,0l0,0l0,0l0,0v4.4l-0.1,0.1l0,0v0.1l0,0l0,0h-0.1l0,0v0.1h1.2v-0.1l0,0h-0.1l0,0l0,0l0,0l0,0l-0.1-0.1v-4.4l0,0
			l0,0l0,0l0,0v-0.1v-0.1l0,0c0,0,0,0-0.1,0c0,0-0.1-0.1,0-0.1C665.2,65,665.3,64.9,665.4,64.7L665.4,64.7L665.4,64.7L665.4,64.7z"
			/>
		<path class="st6" d="M662.8,64.7L662.8,64.7v-0.2l0,0h-1.2l0,0v0.2l0,0h0.1c0,0,0,0,0,0.1c0,0,0,0.2,0.1,0.3v0.1c0,0,0,0-0.1,0
			l0,0v0.1v0.1l0,0l0,0l0,0l0,0v4.4l-0.1,0.1l0,0v0.1l0,0l0,0h-0.1l0,0v0.1h1.2v-0.1l0,0h-0.1l0,0l0,0l0,0l0,0l-0.1-0.1v-4.4l0,0
			l0,0l0,0l0,0v-0.1v-0.1l0,0l0,0c0,0-0.1-0.1,0-0.1C662.7,65,662.7,64.9,662.8,64.7L662.8,64.7L662.8,64.7L662.8,64.7z"/>
		<path class="st6" d="M660.2,64.7L660.2,64.7v-0.2l0,0H659l0,0v0.2l0,0h0.1c0,0,0,0,0,0.1c0,0,0,0.2,0.1,0.3v0.1c0,0,0,0-0.1,0l0,0
			v0.1v0.1l0,0l0,0l0,0l0,0v4.4l-0.1,0.1l0,0v0.1l0,0l0,0H659l0,0v0.1h1.2v-0.1l0,0h-0.1l0,0l0,0l0,0l0,0l-0.1-0.1v-4.4l0,0l0,0l0,0
			l0,0v-0.1v-0.1l0,0c0,0,0,0-0.1,0c0,0-0.1-0.1,0-0.1C660.1,65,660.1,64.9,660.2,64.7L660.2,64.7L660.2,64.7L660.2,64.7z"/>
		<path class="st6" d="M657.7,64.7L657.7,64.7v-0.2l0,0h-1.2l0,0v0.2l0,0h0.1c0,0,0,0,0,0.1c0,0,0,0.2,0.1,0.3v0.1c0,0,0,0-0.1,0
			l0,0v0.1v0.1l0,0l0,0l0,0l0,0v4.4l-0.1,0.1l0,0v0.1l0,0l0,0h-0.1l0,0v0.1h1.2v-0.1l0,0h-0.1l0,0l0,0l0,0l0,0l-0.1-0.1v-4.4l0,0
			l0,0l0,0l0,0v-0.1v-0.1l0,0c0,0,0,0-0.1,0c0,0-0.1-0.1,0-0.1C657.5,65,657.6,64.9,657.7,64.7L657.7,64.7L657.7,64.7L657.7,64.7z"
			/>
		<g>
			<path class="st6" d="M667.1,60c0,0-0.1,0-0.1,0l0,0c0,0,0-0.1,0-0.1l0,0c0,0-0.1,0-0.1,0l0,0v-0.1l0,0h-0.1c0,0-0.1,0-0.1-0.1
				c0-0.1,0.1-1.4-0.6-2.2c-0.5-0.7-1.2-1.1-1.5-1.3c0-0.1-0.2-0.2-0.4-0.3c-0.1,0-0.1-0.1-0.1-0.1v-0.1c0-0.1,0.1-0.1,0.1-0.1h0.1
				v-0.1c0,0,0-0.1-0.1-0.1s-0.1,0-0.1,0c0,0-0.1,0-0.1-0.1c0,0,0,0,0-0.1s0-0.1-0.1-0.1v-0.9c0,0,0,0,0.1,0l0,0l0,0l0,0v-0.1l0,0
				h-0.1c0,0,0,0,0-0.1s0-0.1,0-0.1l0,0l0,0v-0.1l0,0H664c0,0,0,0-0.1,0c-0.1-0.1-0.3-0.3-0.3-0.3l0,0c0,0,0-0.1-0.1-0.1
				s0-0.1,0-0.1l0,0c0,0,0,0,0-0.1l-0.1-0.1l0,0c0,0-0.1,0.1-0.1,0.1v0.1l0,0v0.1c-0.1,0-0.1,0-0.1,0.1l0,0c0,0-0.1,0.2-0.3,0.3
				c0,0,0,0-0.1,0H663l0,0v0.1l0,0l0,0c0,0,0,0,0,0.1c0,0.1,0,0.1,0,0.1h-0.1l0,0v0.1l0,0l0,0l0,0h0.1v0.9l-0.1,0.1
				c0,0.1,0,0.1,0,0.1s0,0.1-0.1,0.1c0,0-0.1,0-0.1,0c0,0-0.1,0-0.1,0.1v0.1c0,0,0,0,0.1,0s0.1,0,0.1,0.1v0.1c0,0.1-0.1,0.1-0.1,0.1
				c-0.1,0-0.3,0.1-0.4,0.3c-0.4,0.1-1.1,0.6-1.5,1.3c-0.6,0.9-0.6,2-0.6,2.2c0,0,0,0.1-0.1,0.1h-0.1l0,0v0.1l0,0h-0.1l0,0v0.1l0,0
				h-0.1l0,0c0,0,0,0.1,0,0.1l0,0c0.1,0,0.1,0.1,0.1,0.1c0,0.1,0.1,0.1,0.1,0.1v0.5c0,0.1-0.1,0.1-0.1,0.1l0,0v0.5l3.6-0.8l0,0
				l3.6,0.8V61l0,0c-0.1,0-0.1-0.1-0.1-0.1v-0.5c0,0,0.1,0,0.1-0.1c0-0.1,0.1-0.1,0.1-0.1l0,0c0-0.1,0-0.1,0-0.1l0,0L667.1,60z"/>
		</g>
		<polygon class="st6" points="671.1,70.5 670.5,70.5 670.5,70 656.4,70 656.4,70.5 655.8,70.5 655.8,71.6 655.2,71.6 655.2,72.6 
			671.8,72.6 671.8,71.6 671.1,71.6 		"/>
	</g>
</g>
<path class="st7" d="M26.6,72.3L26.6,72.3c2.7-2.5,4.8-3.3,8-3.3c6.7,0,9.4,4.2,9.4,10.3v15.4h-8.8V82.6c0-2.4,0.4-6.6-3.9-6.6
	c-3.6,0-4.6,2.7-4.6,5.8v12.9h-8.8V69.9h8.8V72.3z M66.3,79c-0.4-2.4-2.6-4.2-4.9-4.2c-2.5,0-4.6,1.6-5.1,4.2
	C56.3,79,66.3,79,66.3,79z M74.1,84.1H56c0,2.7,2.3,5.2,5.4,5.2c2.6,0,4.4-1.5,5.1-2.7h7.4c-1.3,5.9-6.9,8.9-12.3,8.9
	c-7.9,0-13.8-4.6-13.8-13.2C47.8,74.1,53.2,69,61,69c8.3,0,13,5.7,13,14.1L74.1,84.1z M94.1,77c-1.2-0.9-3.1-1.6-4.5-1.7
	c-1-0.1-2.8,0.1-2.9,1.4c-0.2,1.7,3.1,2.1,4.3,2.3c4.5,0.8,8.2,3.4,7.7,8.6c-0.7,6.5-7,8.5-12.7,7.9c-3.5-0.4-6.9-1.8-9.7-3.9
	l3.9-5.7c1.6,1.4,4.5,3,6.7,3.3c1.1,0.1,2.8-0.2,2.9-1.6c0.2-1.9-3.2-2.3-5.9-3s-6.5-3.2-6-7.7c0.7-6.1,6.5-8.2,11.9-7.5
	c2.8,0.3,5.5,1,8,2.5C97.7,71.8,94.1,77,94.1,77z M113.4,94.8h-8.8V77.2l-3.9,0v-7.3l3.9,0v-7.5h8.8V70l3.9,0v7.3l-3.9,0V94.8z
	 M126.9,82.3c0,3.3,2.2,5.8,5.9,5.8s5.9-2.5,5.9-5.8c0-3.2-2.2-5.9-5.9-5.9S126.9,79.1,126.9,82.3 M146.9,94.7h-8.4v-1.9h-0.1
	c-1.8,1.9-4.3,2.7-7.1,2.7c-7,0-12.1-5.5-12.1-13.3s4.9-13.2,12-13.2c2.7,0,5.4,0.9,7.3,2.4v-1.6h8.4L146.9,94.7L146.9,94.7z"/>
<path class="st8" d="M163.1,95.8c2.5,0,4.6,2.1,4.6,4.6s-2.1,4.6-4.6,4.6s-4.6-2.1-4.6-4.6S160.6,95.8,163.1,95.8"/>
<path class="st9" d="M212.7,49.6c3.2,0,5.8,2.6,5.8,5.8c0,3.2-2.6,5.8-5.8,5.8c-3.2,0-5.8-2.6-5.8-5.8
	C206.9,52.2,209.5,49.6,212.7,49.6"/>
<path class="st10" d="M198.9,24.2c4.4,0,8.1,3.6,8.1,8.1s-3.6,8.1-8.1,8.1c-4.4,0-8.1-3.6-8.1-8.1S194.4,24.2,198.9,24.2"/>
<path class="st11" d="M167.7,72.7c0,12.7,10.3,23.1,23.1,23.1V49.6C178.1,49.6,167.7,59.9,167.7,72.7"/>
<path class="st7" d="M206.9,88.8c0-8.9-7.2-16.2-16.2-16.2V105C199.7,105,206.9,97.7,206.9,88.8"/>
</svg>
