<?xml version="1.0" standalone="no"?>
<!DOCTYPE svg PUBLIC "-//W3C//DTD SVG 20010904//EN"
 "http://www.w3.org/TR/2001/REC-SVG-20010904/DTD/svg10.dtd">
<svg version="1.0" xmlns="http://www.w3.org/2000/svg"
 width="1818.000000pt" height="693.000000pt" viewBox="0 0 1818.000000 693.000000"
 preserveAspectRatio="xMidYMid meet">
<metadata>
Created by potrace 1.16, written by Peter Selinger 2001-2019
</metadata>
<g transform="translate(0.000000,693.000000) scale(0.100000,-0.100000)"
fill="#000000" stroke="none">
<path d="M450 6854 c-90 -23 -175 -72 -233 -133 -71 -75 -103 -132 -128 -229
-19 -75 -20 -105 -17 -459 l3 -379 38 -76 c70 -143 228 -262 474 -359 166 -66
236 -103 277 -149 40 -45 73 -127 86 -218 6 -41 10 -861 10 -2139 0 -1413 3
-2096 11 -2148 37 -270 191 -458 434 -531 93 -28 287 -26 385 5 161 49 278
148 349 292 83 170 75 -60 81 2364 5 2019 7 2164 23 2225 42 153 97 201 329
288 268 101 439 225 506 369 l27 58 3 392 c2 326 0 403 -13 459 -43 185 -182
325 -366 369 -94 22 -2195 21 -2279 -1z m2231 -250 c74 -22 141 -89 163 -163
24 -81 24 -706 0 -757 -37 -78 -157 -156 -362 -236 -174 -68 -256 -113 -329
-182 -97 -90 -149 -211 -173 -400 -6 -52 -10 -815 -10 -2141 0 -1352 -4 -2082
-10 -2123 -16 -96 -46 -166 -97 -222 -56 -62 -119 -96 -207 -110 -164 -26
-316 43 -383 175 -56 108 -53 -9 -53 2170 0 1283 -4 2069 -10 2155 -13 166
-38 278 -85 370 -66 131 -166 205 -405 300 -218 87 -337 166 -380 254 -21 44
-21 54 -18 383 3 331 3 339 27 391 34 76 89 120 176 142 17 4 496 8 1066 9
925 1 1041 -1 1090 -15z"/>
<path d="M11860 6688 c-148 -21 -340 -105 -485 -212 -612 -454 -934 -1531
-935 -3131 -1 -1112 164 -1999 475 -2556 94 -170 180 -284 310 -414 199 -199
381 -301 624 -350 113 -23 322 -16 435 14 365 97 688 393 913 836 106 209 175
399 248 688 l43 169 5 -339 c6 -414 25 -561 102 -789 84 -252 213 -424 385
-513 104 -54 179 -71 325 -71 246 0 408 59 589 214 l59 50 15 -24 c36 -57 144
-150 215 -184 140 -67 341 -84 487 -40 204 60 354 223 411 443 19 74 20 117
19 1755 l0 1679 32 -27 c18 -14 56 -40 85 -57 l52 -31 4 -1251 c3 -1358 1
-1294 59 -1542 120 -516 413 -851 838 -958 116 -29 379 -31 485 -3 252 65 428
238 465 458 25 146 -5 370 -65 489 -55 107 -166 195 -270 214 -117 21 -197
112 -242 275 -17 61 -18 139 -18 1164 l0 1099 55 13 c284 71 465 334 446 649
-12 198 -90 350 -233 452 -68 48 -174 97 -235 108 l-38 7 0 495 c0 567 -2 590
-76 740 -60 124 -142 207 -257 262 -102 49 -174 64 -302 63 -303 -1 -520 -172
-595 -467 -19 -74 -21 -109 -20 -475 0 -217 -3 -459 -6 -536 l-7 -142 -31 -15
c-50 -23 -133 -93 -168 -142 -18 -24 -36 -44 -39 -45 -3 0 -20 22 -38 49 -68
106 -202 195 -339 227 -86 20 -258 20 -337 -1 -209 -54 -351 -193 -426 -420
l-24 -70 -5 -1405 c-3 -773 -10 -1416 -14 -1430 -21 -60 -41 -64 -64 -12 -16
34 -17 148 -22 1432 l-6 1395 -23 75 c-38 127 -79 198 -161 281 -122 124 -241
170 -440 170 -130 0 -201 -15 -300 -63 -83 -40 -203 -158 -245 -242 l-29 -59
-28 161 c-120 705 -363 1248 -701 1569 -274 260 -606 371 -957 321z m363 -263
c97 -25 253 -107 348 -183 371 -300 622 -887 733 -1712 99 -734 97 -1689 -5
-2395 -105 -731 -315 -1253 -633 -1570 -150 -150 -267 -224 -436 -276 -106
-33 -281 -33 -393 -1 -583 168 -974 912 -1096 2087 -67 644 -60 1486 20 2115
84 667 262 1192 519 1530 80 104 225 239 321 299 93 57 220 106 311 120 81 13
231 6 311 -14z m4839 -178 c62 -31 126 -93 158 -157 46 -91 50 -139 50 -720 0
-527 1 -546 20 -578 24 -39 44 -48 137 -62 115 -16 179 -45 244 -109 75 -74
101 -142 101 -261 0 -95 -22 -170 -71 -237 -54 -74 -171 -133 -266 -133 -57 0
-104 -33 -135 -95 l-25 -50 0 -1175 0 -1175 22 -84 c45 -168 138 -307 255
-382 29 -19 93 -47 142 -64 79 -26 93 -35 118 -70 38 -55 61 -152 61 -265 1
-115 -22 -178 -88 -239 -90 -83 -194 -115 -375 -115 -99 0 -142 5 -205 23
-332 93 -551 398 -652 906 l-28 140 -5 1275 c-5 1221 -6 1276 -24 1310 -29 54
-45 68 -114 101 -114 55 -172 132 -194 258 -22 130 20 272 101 343 20 17 72
48 116 69 44 20 87 48 95 61 13 19 16 113 20 623 5 586 6 601 27 658 43 113
111 181 216 219 81 29 224 21 299 -15z m-2822 -1513 c95 -28 157 -79 202 -168
55 -107 52 -28 58 -1546 4 -1044 8 -1414 17 -1438 32 -90 109 -178 182 -210
20 -8 65 -15 101 -15 117 -1 205 60 264 183 l31 65 5 1420 5 1420 22 59 c30
77 55 117 104 161 70 63 118 79 244 79 99 1 116 -2 166 -25 103 -48 171 -141
198 -267 8 -38 11 -594 11 -1950 0 -2076 3 -1953 -57 -2065 -73 -133 -233
-198 -403 -163 -126 27 -212 102 -256 225 -9 25 -20 56 -25 69 -13 33 -67 62
-117 62 -42 0 -48 -4 -166 -117 -198 -191 -300 -238 -516 -238 -115 0 -130 2
-183 27 -186 88 -309 326 -362 703 -13 93 -15 337 -15 1764 0 1766 -2 1700 48
1797 43 85 110 140 205 169 58 19 173 18 237 -1z"/>
<path d="M11937 5356 c-110 -41 -159 -105 -216 -280 -130 -398 -190 -1046
-178 -1916 10 -748 70 -1222 194 -1547 42 -109 91 -171 167 -210 70 -37 188
-39 257 -5 99 49 142 112 203 299 121 377 173 948 163 1788 -9 705 -50 1126
-148 1495 -58 220 -105 303 -200 355 -64 34 -179 45 -242 21z m134 -281 c47
-81 118 -408 149 -685 35 -319 41 -443 47 -905 10 -811 -38 -1349 -153 -1707
-55 -171 -86 -188 -132 -72 -54 134 -107 385 -136 649 -30 261 -37 399 -43
810 -10 695 29 1255 113 1631 27 121 77 278 95 301 18 20 40 12 60 -22z"/>
<path d="M8827 5039 c-150 -20 -330 -99 -474 -211 -92 -70 -232 -227 -313
-350 -130 -197 -228 -404 -315 -672 l-42 -130 -7 145 c-13 266 -56 444 -158
641 -195 380 -516 581 -843 529 -194 -32 -359 -118 -551 -288 l-81 -72 -48 70
c-137 201 -367 309 -590 280 -145 -20 -299 -85 -465 -195 -46 -31 -86 -56 -89
-56 -3 1 -22 24 -41 51 -68 99 -192 183 -306 210 -27 6 -90 11 -140 11 -281
-1 -485 -147 -581 -417 l-28 -80 0 -1995 0 -1995 27 -80 c76 -223 238 -370
451 -410 303 -58 576 66 695 315 76 159 72 88 72 1407 0 1134 5 1354 31 1513
16 94 25 103 38 39 34 -167 35 -197 41 -1474 6 -1264 6 -1281 27 -1355 42
-150 104 -253 200 -333 128 -107 326 -150 506 -112 190 40 330 158 408 344 60
142 59 127 59 1455 0 708 4 1250 10 1306 13 129 31 230 41 225 7 -5 18 -62 41
-207 8 -50 13 -476 17 -1348 l6 -1275 24 -70 c80 -242 233 -385 461 -431 99
-20 242 -15 330 12 190 56 330 193 395 387 38 115 44 189 45 552 l1 330 38
-110 c140 -408 392 -786 656 -984 89 -67 247 -145 350 -173 67 -18 106 -21
240 -21 138 0 173 4 256 26 202 53 357 143 505 291 183 184 308 426 336 651
27 224 -67 435 -244 549 -179 114 -395 94 -561 -51 -164 -144 -233 -159 -304
-65 -39 52 -60 118 -73 234 -18 160 20 368 74 403 27 18 257 35 476 35 182 0
265 15 365 64 280 138 421 494 385 974 -60 820 -308 1454 -678 1732 -146 109
-294 165 -481 180 -64 5 -118 9 -121 9 -3 -1 -36 -5 -73 -10z m277 -269 c335
-86 583 -432 725 -1013 97 -396 127 -841 72 -1052 -45 -172 -133 -291 -248
-336 -53 -20 -82 -23 -338 -30 -399 -11 -470 -25 -550 -105 -48 -49 -100 -158
-122 -254 -26 -118 -24 -388 5 -504 54 -215 169 -339 347 -369 118 -20 238 22
365 128 132 110 198 134 285 101 60 -23 130 -102 150 -169 76 -257 -165 -667
-480 -818 -121 -58 -219 -80 -355 -81 -125 -1 -201 17 -310 72 -249 126 -502
458 -665 870 -71 182 -145 519 -180 820 -22 189 -30 591 -16 775 32 402 112
766 243 1098 190 484 459 788 768 871 80 21 212 20 304 -4z m-4619 -44 c63
-29 124 -96 168 -183 19 -37 46 -78 60 -91 58 -54 148 -35 284 61 301 212 463
259 627 182 94 -45 155 -114 226 -260 68 -139 94 -165 163 -165 52 0 86 20
129 77 57 76 215 223 295 276 94 62 164 93 261 112 122 25 217 3 333 -75 154
-105 288 -318 358 -569 l26 -96 3 -1690 c2 -1185 -1 -1706 -8 -1742 -25 -119
-102 -223 -197 -265 -183 -81 -405 -13 -487 150 -57 112 -56 99 -56 1364 0
695 -4 1211 -10 1283 -21 250 -69 429 -138 519 -52 68 -92 88 -168 84 -112 -7
-180 -76 -229 -231 -60 -190 -58 -144 -65 -1572 -5 -944 -10 -1321 -18 -1351
-32 -113 -97 -206 -172 -244 -85 -43 -209 -46 -303 -6 -48 20 -114 82 -139
129 -56 111 -52 15 -59 1372 -5 1076 -8 1267 -22 1375 -37 286 -106 452 -209
506 -34 18 -119 18 -161 0 -73 -30 -138 -130 -172 -261 -49 -196 -48 -175 -55
-1555 -6 -1440 -1 -1341 -73 -1447 -68 -98 -168 -147 -302 -147 -172 0 -286
80 -348 242 l-22 57 -3 1913 c-3 2068 -5 1978 49 2085 25 50 92 122 134 144
92 49 219 57 300 19z"/>
<path d="M8865 3911 c-170 -42 -251 -197 -243 -466 3 -116 7 -136 31 -190 32
-69 75 -118 132 -148 31 -17 58 -22 120 -22 70 0 87 4 133 29 107 59 156 174
156 361 0 120 -13 192 -51 272 -32 69 -109 138 -176 158 -55 16 -58 16 -102 6z
m64 -292 c12 -34 15 -236 5 -263 -3 -9 -17 -16 -30 -16 -19 0 -24 7 -30 35
-11 58 0 240 15 259 19 23 28 20 40 -15z"/>
<path d="M2905 4999 c-95 -9 -147 -24 -230 -67 -144 -74 -249 -216 -295 -397
-20 -79 -20 -106 -20 -2025 0 -2165 -5 -2013 70 -2169 31 -64 57 -101 113
-156 112 -112 225 -161 397 -172 314 -19 557 150 647 452 17 57 18 168 21
2010 3 2194 8 2033 -73 2202 -113 234 -338 349 -630 322z m246 -283 c100 -47
168 -140 195 -265 21 -101 21 -3783 -1 -3885 -42 -196 -172 -302 -370 -299
-185 2 -307 102 -350 286 -13 58 -15 290 -13 1984 l3 1918 22 57 c42 113 111
182 216 220 78 28 222 21 298 -16z"/>
</g>
</svg>
